<svg width="180" height="180" viewBox="0 0 180 180" fill="none" xmlns="http://www.w3.org/2000/svg">
<path opacity="0.1" d="M1.95654 92.2329C4.80175 103.147 10.8257 112.581 20.3461 117.153C40.1392 126.658 84.7505 121.755 118.051 116.13C135.28 113.219 150.413 105.193 161.413 93.882L1.95654 92.2329Z" fill="#6C63FF"/>
<path opacity="0.1" d="M176.811 39.2931H158.442C157.568 39.2931 156.852 38.6729 156.852 37.9149C156.852 37.157 157.566 36.5367 158.442 36.5367H161.62C160.746 36.5367 160.031 35.9164 160.031 35.1585C160.031 34.4005 160.744 33.7818 161.62 33.7818H159.352C158.478 33.7818 157.763 33.1615 157.763 32.4036C157.763 31.6456 158.477 31.0253 159.352 31.0253H168.94C166.812 30.166 164.331 29.5564 161.461 29.2371C135.318 26.3219 125.983 28.2492 122.685 30.2326C118.587 32.7302 114.027 34.4649 109.249 35.3446C93.1192 38.2326 62.9538 41.7077 35.6123 34.2311C22.0234 30.517 11.9243 36.803 5.86963 47.2886H180C179.773 44.2387 179.093 41.4217 177.844 38.9573C177.549 39.1765 177.185 39.2948 176.811 39.2931Z" fill="#6C63FF"/>
<path opacity="0.1" d="M0.393578 68.7837C-0.309448 75.4177 -0.0697086 82.1213 1.10529 88.6846L161.976 94.1871C166.408 89.4366 170.17 84.0729 173.152 78.252L0.393578 68.7837ZM64.0154 82.9805H60.8451C61.7154 82.9805 62.4303 83.6472 62.4303 84.4618C62.4303 85.2764 61.717 85.9415 60.8451 85.9415H42.5307C41.6605 85.9415 40.9456 85.2764 40.9456 84.4618C40.9456 83.6472 41.6589 82.9805 42.5307 82.9805H45.7009C44.8307 82.9805 44.1158 82.3138 44.1158 81.4992C44.1158 80.6846 44.8291 80.0179 45.7009 80.0179H43.4358C42.5656 80.0179 41.8507 79.3528 41.8507 78.5382C41.8507 77.7236 42.564 77.0569 43.4358 77.0569H61.7582C62.63 77.0569 63.3433 77.7236 63.3433 78.5382C63.3433 79.3528 62.6316 80.0179 61.7582 80.0179H64.0154C64.8872 80.0179 65.6005 80.6846 65.6005 81.4992C65.6005 82.3138 64.8919 82.9805 64.0154 82.9805Z" fill="#6C63FF"/>
<path opacity="0.1" d="M179.919 48.2656L4.21035 52.1769C2.0695 57.2058 0.653358 62.8905 0 68.7837H176.84C177.991 65.3354 178.845 61.7942 179.393 58.1991C179.919 54.7351 180.13 51.3858 179.919 48.2656ZM35.6762 61.0821H32.5045C33.3752 61.0821 34.0904 61.7348 34.0904 62.5323C34.0904 63.3299 33.3767 63.9825 32.5045 63.9825H14.1756C13.305 63.9825 12.5898 63.3299 12.5898 62.5323C12.5898 61.7348 13.3034 61.0821 14.1756 61.0821H17.3473C16.4767 61.0821 15.7615 60.431 15.7615 59.6334C15.7615 58.8359 16.4751 58.1832 17.3473 58.1832H15.0811C14.2105 58.1832 13.4953 57.5305 13.4953 56.733C13.4953 55.9354 14.2089 55.2828 15.0811 55.2828H33.4116C34.2838 55.2828 34.9975 55.9354 34.9975 56.733C34.9975 57.5305 34.2854 58.1832 33.4116 58.1832H35.6762C36.5468 58.1832 37.262 58.8359 37.262 59.6334C37.262 60.431 36.5468 61.0821 35.6762 61.0821Z" fill="#6C63FF"/>
<path opacity="0.1" d="M86.4739 152.725C95.1917 152.725 102.259 151.14 102.259 149.186C102.259 147.231 95.1917 145.646 86.4739 145.646C77.7561 145.646 70.689 147.231 70.689 149.186C70.689 151.14 77.7561 152.725 86.4739 152.725Z" fill="#6C63FF"/>
<path opacity="0.1" d="M123.154 162.761C138.882 162.761 151.631 161.716 151.631 160.426C151.631 159.137 138.882 158.092 123.154 158.092C107.427 158.092 94.6772 159.137 94.6772 160.426C94.6772 161.716 107.427 162.761 123.154 162.761Z" fill="#6C63FF"/>
<path opacity="0.1" d="M52.2327 142.707C64.0666 142.707 73.6598 141.123 73.6598 139.168C73.6598 137.213 64.0666 135.628 52.2327 135.628C40.3989 135.628 30.8057 137.213 30.8057 139.168C30.8057 141.123 40.3989 142.707 52.2327 142.707Z" fill="#6C63FF"/>
<path d="M68.2455 54.9635C67.7923 51.9165 65.0205 44.806 65.0205 44.806C64.9723 44.5964 64.9177 44.3869 64.8569 44.1773C62.8908 37.4294 60.1694 36.8426 60.1694 36.8426L50.4211 34.747C50.5028 34.798 50.574 34.8641 50.6309 34.9419C50.5794 34.9466 50.5283 34.9543 50.4777 34.9649C50.0313 34.4386 49.7362 33.8013 49.6237 33.1207C49.6049 33.0202 49.5881 32.9112 49.5755 32.8085C50.2756 32.1269 50.8217 31.3036 51.1772 30.3939C51.5326 29.4842 51.6891 28.5091 51.6363 27.534C51.5834 26.559 51.3224 25.6064 50.8707 24.7404C50.419 23.8743 49.7871 23.1148 49.0174 22.5126C48.9145 22.433 48.8075 22.3555 48.7047 22.2821C49.1642 21.7938 49.1789 21.1149 48.8348 20.4359C48.0669 18.8432 46.3967 17.8352 44.6803 17.3427C43.3689 16.9676 41.9526 16.8461 40.6475 17.2568C39.9069 17.4915 39.2312 17.8855 38.5367 18.2355C37.2421 18.8809 35.809 19.3922 34.8417 20.4547C34.6151 20.702 34.4053 21.0185 34.4725 21.3454C34.5228 21.5885 34.7159 21.7771 34.8396 21.9929C35.1187 22.477 35.0495 23.0869 34.8585 23.615C34.6676 24.1431 34.3885 24.6334 34.2563 25.1741C34.1242 25.7148 34.1745 26.3518 34.5816 26.7395C34.7768 26.89 34.9799 27.0299 35.19 27.1587C35.4128 27.3483 35.6084 27.5676 35.7713 27.8104C36.1573 28.3273 36.542 28.8464 36.9253 29.3675C37.4664 30.0581 37.9499 30.792 38.371 31.5616C38.6584 32.1274 38.8808 32.731 39.2648 33.2381C39.3773 33.3861 39.5061 33.5211 39.6488 33.6405L39.5355 33.5965C39.7023 33.766 39.9021 33.8998 40.1225 33.9895C40.343 34.0793 40.5795 34.1231 40.8175 34.1183C40.8385 34.1183 40.8574 34.1183 40.8762 34.1183C40.9638 34.1164 41.0476 34.0821 41.1112 34.0219C41.1112 34.0931 41.1112 34.1644 41.1112 34.2314C41.1343 34.9796 41.1301 35.7759 41.0777 36.5241L40.9874 36.478C40.8536 36.4115 40.7036 36.3845 40.555 36.4001C40.4064 36.4157 40.2652 36.4732 40.1482 36.566L31.174 43.7582C31.174 43.7582 29.2227 46.4238 29.4955 51.0258L27.9218 57.9268C27.9218 57.9268 25.9558 63.782 27.4686 67.9628C28.9814 72.1436 29.8585 74.5347 29.8585 74.5347C29.8585 74.5347 30.4627 79.2855 31.3713 79.6732C32.2798 80.0609 32.6722 80.2704 32.6722 80.2704L32.8526 81.4062C32.8526 81.4062 32.9135 81.5173 33.0205 81.7038C33.6814 82.8522 36.1301 86.9052 37.5527 86.4714C37.7317 87.572 37.809 88.6867 37.7835 89.8014L39.1914 99.2422C39.1914 99.2422 40.1733 101.809 40.1125 103.155C40.0516 104.5 41.2581 106.418 41.2581 106.418C40.5251 107.758 40.3101 109.32 40.6538 110.808C41.2287 113.323 41.9547 124.907 41.9547 124.907L43.0038 127.716L42.9745 131.008C42.8883 131.545 42.6642 132.05 42.324 132.475C41.6442 133.212 41.6945 134.065 40.0558 135.073C38.4171 136.081 37.3785 136.463 37.3785 137.798C37.3765 137.984 37.3597 138.17 37.3281 138.353C37.1771 139.334 36.8833 139.866 39.8964 140.151C43.4361 140.486 45.7966 138.181 45.7966 138.181C45.7966 138.181 46.3169 137.238 48.7677 136.857C48.7677 136.857 49.607 136.813 49.651 136.073C49.6678 135.817 49.6636 135.329 49.651 134.79C49.6112 133.766 49.5125 132.569 49.3824 132.51C49.2188 132.437 48.9334 131.406 48.8348 131.033H49.5167C49.5167 131.033 50.1462 126.282 49.5167 123.206C48.8873 120.129 49.4559 117.948 49.4559 117.948L49.3342 109.823C49.3342 109.823 48.4949 108.926 49.1537 107.342C49.8126 105.758 49.1537 97.9324 49.1537 97.9324C49.1537 97.9324 49.3971 95.1243 50.0916 94.4662C50.7862 93.8082 50.1252 90.3525 50.0916 90.1723L51.3296 94.3195C51.3296 94.3195 51.873 102.564 53.025 104.056L53.3565 107.79C53.3565 107.79 55.7149 111.227 55.2617 113.078C54.8085 114.928 55.7464 121.621 55.7464 121.621V128.464C55.7464 128.464 54.6868 131.211 56.166 132.198L56.7955 132.173C56.5857 132.368 56.4241 132.661 56.1786 132.915C55.8953 133.206 55.7338 134.315 55.6436 135.268C55.568 136.075 55.5428 136.769 55.5428 136.769C55.5428 136.769 56.1723 137.775 57.3578 137.844C58.5433 137.913 62.4502 140.88 62.4502 140.88C62.4502 140.88 66.3088 140.88 67.3076 140.671L67.3663 140.656C67.6869 140.555 67.9566 140.336 68.1196 140.042C68.3197 139.702 68.3841 139.298 68.3 138.913C68.1763 138.324 67.7083 137.678 66.6718 137.129C64.0931 135.771 63.7091 134.499 63.7091 134.499L62.0159 131.961H62.2572C62.2572 131.961 62.1082 129.273 63.9504 126.255L63.8308 112.962C63.8308 112.962 64.5862 108.392 63.2874 105.911C63.2874 105.911 63.1804 103.283 64.049 102.476C64.9177 101.669 62.8929 93.5148 62.8929 93.5148C62.8929 93.5148 62.4733 89.137 61.9802 85.1428C64.0218 87.077 66.1389 80.1132 66.4956 78.8747H66.548L66.5249 78.7846C66.5396 78.7259 66.548 78.6966 66.548 78.6966C66.548 78.6966 66.0948 77.0872 66.4263 77.4141C66.7579 77.741 67.5762 76.5171 67.5762 76.5171C67.5762 76.5171 67.4545 69.8551 68.8771 66.4979C70.2997 63.1407 68.2455 54.9635 68.2455 54.9635ZM62.1606 59.203L62.1711 59.1841C62.381 63.2518 62.1313 71.9319 62.1313 71.9319C62.1313 71.9319 61.8501 73.0447 61.5501 74.3544L61.3402 66.1081L61.1304 58.3396L62.1606 59.203ZM36.1196 56.3991C36.1196 56.3991 37.1477 69.2432 36.1196 71.0957C35.8279 71.6238 35.5824 72.5627 35.3789 73.6335C35.039 72.7429 34.3193 70.6515 34.5774 69.5429C34.911 68.1095 33.9122 64.3436 33.9122 64.2556C33.9122 64.1676 33.822 62.1599 34.5417 60.6259C35.2614 59.0919 34.7893 58.4276 34.7893 58.4276C34.7893 58.4276 35.3936 55.9129 36.1196 56.3991Z" fill="url(#paint0_linear)"/>
<path d="M38.6244 85.3271C37.7284 89.2607 34.1656 83.3132 33.3536 81.8861C33.2487 81.6996 33.1899 81.5906 33.1899 81.5906L33.576 79.7821L35.6176 78.9438C35.9409 79.1126 36.2472 79.3119 36.5324 79.539C37.6508 80.4171 39.3147 82.2801 38.6244 85.3271Z" fill="#FBBEBE"/>
<path d="M66.2656 78.8913C66.2656 78.8913 66.2656 78.9206 66.2425 78.9793C66.2425 79.0045 66.2257 79.038 66.2152 79.0736C65.8648 80.3017 63.7876 87.2152 61.7817 85.2956C59.5869 83.1999 60.6528 78.3548 60.6528 78.3548H60.6675L65.2836 77.8833L66.1984 78.8221L66.2656 78.8913Z" fill="#FBBEBE"/>
<path d="M63.5947 112.914L63.7122 126.116C61.9014 129.113 62.0504 131.775 62.0504 131.775L56.0831 132.009C54.6269 131.031 55.6634 128.304 55.6634 128.304V121.506C55.6634 121.506 54.7423 114.865 55.1871 113.025C55.6319 111.185 53.3176 107.786 53.3176 107.786L52.9903 104.079C51.8614 102.597 51.3264 94.4136 51.3264 94.4136L50.1157 90.281C50.1493 90.4591 50.7788 93.9085 50.1157 94.5435C49.4527 95.1785 49.1946 97.9825 49.1946 97.9825C49.1946 97.9825 49.8471 105.753 49.1946 107.323C48.542 108.892 49.3708 109.785 49.3708 109.785L49.4904 117.851C49.4904 117.851 48.926 120.016 49.5492 123.069C50.1724 126.123 49.5492 130.84 49.5492 130.84H43.1475L43.1769 127.548L42.1404 124.76C42.1404 124.76 41.427 113.255 40.8625 110.764C40.5247 109.287 40.735 107.738 41.4542 106.405C41.4542 106.405 40.2687 104.508 40.3275 103.173C40.3862 101.838 39.4127 99.2922 39.4127 99.2922L38.032 89.9227C38.07 88.1194 37.8395 86.3206 37.348 84.5851C36.5465 81.9152 35.3589 78.4155 35.3589 78.4155L36.6996 78.535L43.4643 79.1364C43.4643 79.1364 59.9123 78.032 60.6488 78.9499C60.8041 79.25 60.9091 79.5735 60.9593 79.9076C61.6979 83.2208 62.6736 93.6005 62.6736 93.6005C62.6736 93.6005 64.6627 101.696 63.8087 102.496C62.9547 103.297 63.0597 105.904 63.0597 105.904C64.3396 108.366 63.5947 112.914 63.5947 112.914Z" fill="#444053"/>
<path d="M49.6895 135.847C49.6433 136.582 48.8229 136.626 48.8229 136.626C46.4184 137.004 45.9064 137.938 45.9064 137.938C45.9064 137.938 43.5984 140.229 40.1174 139.896C37.1589 139.611 37.4464 139.085 37.5995 138.11C37.6293 137.929 37.6454 137.745 37.6478 137.561C37.6478 136.226 38.6717 135.847 40.2748 134.837C41.8778 133.827 41.8338 132.99 42.501 132.257C43.1682 131.524 43.2375 130.101 43.2375 130.101C43.9928 128.787 45.9085 130.31 45.9085 130.31C45.9987 130.775 48.846 130.71 48.846 130.71C48.846 130.71 49.2237 132.223 49.4188 132.311C49.5468 132.37 49.6434 133.556 49.6811 134.575C49.7021 135.109 49.7063 135.593 49.6895 135.847Z" fill="#B07473"/>
<path opacity="0.1" d="M49.6895 135.846C49.6433 136.582 48.8229 136.626 48.8229 136.626C46.4184 137.003 45.9064 137.938 45.9064 137.938C45.9064 137.938 43.5984 140.228 40.1174 139.895C37.1589 139.61 37.4464 139.084 37.5995 138.11C38.9214 138.437 41.4477 138.894 42.9227 138.093C44.9727 136.982 46.4436 136.207 46.4436 136.207L49.6832 134.579C49.7021 135.109 49.7063 135.593 49.6895 135.846Z" fill="black"/>
<path d="M67.8112 139.805C67.6534 140.096 67.3886 140.315 67.0727 140.415L67.016 140.43C66.0361 140.639 62.2488 140.639 62.2488 140.639C62.2488 140.639 58.4196 137.682 57.2614 137.615C56.1032 137.548 55.48 136.546 55.48 136.546C55.48 136.546 55.5031 135.859 55.5765 135.058C55.6667 134.111 55.8241 133.011 56.1031 132.722C56.6151 132.187 56.7326 131.464 57.8845 131.921C57.8845 131.921 59.5296 129.025 61.4683 131.263L63.4742 134.302C63.4742 134.302 63.8519 135.559 66.3928 136.924C67.4084 137.468 67.8616 138.11 67.9896 138.694C68.0704 139.074 68.0068 139.47 67.8112 139.805Z" fill="#B07473"/>
<path opacity="0.1" d="M67.8112 139.805C67.5846 139.996 67.335 140.201 67.0727 140.415L67.016 140.43C66.0361 140.639 62.2488 140.639 62.2488 140.639C62.2488 140.639 58.4196 137.682 57.2614 137.615C56.1032 137.548 55.48 136.547 55.48 136.547C55.48 136.547 55.5031 135.859 55.5765 135.059C56.7557 135.411 58.5413 136.033 59.0197 136.704C59.7541 137.724 61.9845 139.149 61.9845 139.149C61.9845 139.149 66.1432 138.749 67.9896 138.695C68.0704 139.074 68.0068 139.47 67.8112 139.805Z" fill="black"/>
<path d="M51.6272 36.3251L46.1508 42.1069C46.1508 42.1069 39.5141 41.6186 40.6723 39.6613C41.2619 38.6638 41.3542 36.5766 41.3018 34.7617C41.2535 33.0119 41.0731 31.5219 41.0731 31.5219C41.0731 31.5219 50.3808 26.8947 49.6758 31.2096C49.5239 32.0227 49.5154 32.856 49.6506 33.672C50.0472 35.8515 51.6272 36.3251 51.6272 36.3251Z" fill="#FBB7B7"/>
<path opacity="0.1" d="M49.6681 31.2096C49.5162 32.0227 49.5077 32.856 49.6429 33.672C49.0063 34.3163 48.2476 34.8277 47.4112 35.1764C46.5747 35.525 45.6772 35.7039 44.7708 35.7027C43.5119 35.7027 42.1501 34.6695 41.1325 34.0723C41.0842 32.3203 41.0737 31.5219 41.0737 31.5219C41.0737 31.5219 50.3815 26.8947 49.6681 31.2096Z" fill="black"/>
<path d="M51.6279 28.4957C51.6284 30.0478 51.1012 31.5542 50.1326 32.7679C49.164 33.9817 47.8114 34.831 46.2963 35.1767C44.7813 35.5223 43.1936 35.3439 41.7934 34.6706C40.3931 33.9973 39.2633 32.869 38.589 31.4706C37.9147 30.0721 37.7358 28.4865 38.0817 26.9732C38.4277 25.46 39.2778 24.109 40.493 23.1414C41.7082 22.1738 43.2163 21.6471 44.7704 21.6475C46.3245 21.6478 47.8323 22.1753 49.0471 23.1434C49.8519 23.7849 50.5018 24.5991 50.9486 25.5256C51.3953 26.4521 51.6275 27.4673 51.6279 28.4957Z" fill="#FBBEBE"/>
<path opacity="0.1" d="M60.9583 79.9081C59.2504 83.9673 48.2641 84.0511 48.2641 84.0511V79.6252L47.5989 79.5812C47.8864 80.849 47.1961 83.9401 47.1961 83.9401C38.5136 85.1639 36.3965 80.2224 36.3965 80.2224L36.6986 78.5312L43.4633 79.1327C43.4633 79.1327 59.9113 78.0283 60.6478 78.9462C60.8036 79.2476 60.9085 79.5726 60.9583 79.9081Z" fill="black"/>
<path d="M48.2641 83.5164V79.0905L47.5989 79.0485C47.8864 80.3059 47.1961 83.4075 47.1961 83.4075C40.6622 84.3274 37.8464 81.7582 36.8539 80.4296C36.6755 80.2007 36.5221 79.9534 36.3965 79.6919L39.0486 64.7919L39.6781 42.8632L40.6286 39.0156L40.8489 37.1694V37.1484H40.872L41.5476 37.4376L45.5909 39.1833L50.1839 35.7192L50.2511 35.671L50.4798 35.4971L50.8596 35.8009L51.8038 36.5575L54.8315 56.0867C54.8315 56.0867 60.0771 71.1229 61.059 77.1918C61.0989 77.4349 61.1304 77.6612 61.1556 77.8729C61.8039 83.4137 48.2641 83.5164 48.2641 83.5164Z" fill="#6C63FF"/>
<path d="M46.0822 40.0047C46.2977 40.0047 46.4724 39.8302 46.4724 39.6149C46.4724 39.3996 46.2977 39.2251 46.0822 39.2251C45.8666 39.2251 45.6919 39.3996 45.6919 39.6149C45.6919 39.8302 45.8666 40.0047 46.0822 40.0047Z" fill="#67647E"/>
<path d="M46.2633 43.5633C46.4789 43.5633 46.6536 43.3888 46.6536 43.1735C46.6536 42.9582 46.4789 42.7837 46.2633 42.7837C46.0478 42.7837 45.873 42.9582 45.873 43.1735C45.873 43.3888 46.0478 43.5633 46.2633 43.5633Z" fill="#67647E"/>
<path d="M46.6535 49.324C46.869 49.324 47.0437 49.1495 47.0437 48.9342C47.0437 48.7189 46.869 48.5444 46.6535 48.5444C46.4379 48.5444 46.2632 48.7189 46.2632 48.9342C46.2632 49.1495 46.4379 49.324 46.6535 49.324Z" fill="#67647E"/>
<path d="M47.297 55.5296C47.5125 55.5296 47.6873 55.3551 47.6873 55.1398C47.6873 54.9245 47.5125 54.75 47.297 54.75C47.0815 54.75 46.9067 54.9245 46.9067 55.1398C46.9067 55.3551 47.0815 55.5296 47.297 55.5296Z" fill="#67647E"/>
<path d="M47.6867 61.3553C47.9022 61.3553 48.0769 61.1807 48.0769 60.9655C48.0769 60.7502 47.9022 60.5757 47.6867 60.5757C47.4711 60.5757 47.2964 60.7502 47.2964 60.9655C47.2964 61.1807 47.4711 61.3553 47.6867 61.3553Z" fill="#67647E"/>
<path d="M48.0768 67.5603C48.2923 67.5603 48.4671 67.3858 48.4671 67.1705C48.4671 66.9553 48.2923 66.7808 48.0768 66.7808C47.8613 66.7808 47.6865 66.9553 47.6865 67.1705C47.6865 67.3858 47.8613 67.5603 48.0768 67.5603Z" fill="#67647E"/>
<path d="M47.922 73.6985C48.1376 73.6985 48.3123 73.524 48.3123 73.3087C48.3123 73.0935 48.1376 72.9189 47.922 72.9189C47.7065 72.9189 47.5317 73.0935 47.5317 73.3087C47.5317 73.524 47.7065 73.6985 47.922 73.6985Z" fill="#67647E"/>
<path opacity="0.1" d="M41.1092 66.9592C41.1092 66.9592 40.6728 72.6656 39.8713 74.3254C39.0698 75.9851 38.7131 80.6416 38.7131 80.6416L36.8519 80.432C36.6735 80.2032 36.5201 79.9559 36.3945 79.6944L39.0467 64.7944L39.6762 42.8657L40.6287 39.016L40.8491 37.1698L40.8742 37.1593C40.9782 37.1102 41.092 37.0857 41.207 37.0875C41.3219 37.0893 41.4349 37.1175 41.5373 37.1698L41.6254 37.2159C41.5988 37.2913 41.5737 37.3689 41.5499 37.4485C40.8239 39.7181 40.5532 43.9009 40.5532 43.9009C40.5532 43.9009 41.6023 51.5521 41.7114 55.1105C41.8205 58.6689 41.1092 66.9592 41.1092 66.9592Z" fill="black"/>
<path opacity="0.1" d="M36.5324 79.5453C36.512 79.5931 36.4882 79.6393 36.4611 79.6836C35.7393 80.9012 33.9096 81.6745 33.3536 81.8861C33.2487 81.6996 33.1899 81.5906 33.1899 81.5906L33.576 79.7821L35.6176 78.9438C35.9411 79.1146 36.2475 79.316 36.5324 79.5453Z" fill="black"/>
<path d="M31.5881 50.4243L29.8948 51.4323L28.3527 58.2829C28.3527 58.2829 26.4223 64.0941 27.9057 68.2456C29.3892 72.397 30.2516 74.7735 30.2516 74.7735C30.2516 74.7735 30.8453 79.4887 31.7371 79.8743C32.6288 80.2599 33.0128 80.4673 33.0128 80.4673L33.1912 81.5948C33.1912 81.5948 35.6083 80.7754 36.4623 79.3315C37.3163 77.8876 35.8328 74.302 35.8328 74.302C35.8328 74.302 34.5571 71.2465 34.8844 69.8236C35.2118 68.4007 34.2298 64.6642 34.2298 64.5845C34.2298 64.5049 34.1417 62.5077 34.8593 60.98C35.5768 59.4523 35.0985 58.8006 35.0985 58.8006L34.6515 54.4416L31.5881 50.4243Z" fill="#67647E"/>
<path opacity="0.1" d="M61.0988 78.6254C61.0988 78.6254 56.6149 80.3144 55.1902 78.8349C53.7655 77.3554 53.9124 70.4126 53.9124 70.4126C53.9124 70.4126 52.5485 57.602 51.6861 55.4979C50.8238 53.3939 51.2665 38.209 51.2665 38.209C51.2665 38.209 50.6874 36.2453 50.1817 35.7319C50.1498 35.6989 50.1138 35.6701 50.0747 35.646L50.2489 35.6837L50.8573 35.8136L51.8015 36.5702L54.8293 56.0994C54.8293 56.0994 60.0748 71.1356 61.0568 77.2045L61.0988 78.6254Z" fill="black"/>
<path opacity="0.1" d="M66.2655 79.0697H66.2151C65.6507 79.1431 60.6695 79.7445 60.6485 78.7093C60.6477 78.5895 60.654 78.4699 60.6674 78.3509L65.2835 77.8794L66.1983 78.8182C66.2151 78.879 66.2277 78.9314 66.2403 78.9733L66.2655 79.0697Z" fill="black"/>
<path d="M61.4859 43.5635L64.7592 45.2693C64.7592 45.2693 67.4869 52.3232 67.9233 55.3472C67.9233 55.3472 69.9439 63.4489 68.5528 66.781C67.1616 70.1131 67.277 76.7269 67.277 76.7269C67.277 76.7269 66.4755 77.9424 66.1482 77.6175C65.8209 77.2927 66.2678 78.8917 66.2678 78.8917C66.2678 78.8917 60.6718 79.6335 60.6487 78.5354C60.6257 77.4373 61.9329 72.1898 61.9329 72.1898C61.9329 72.1898 62.2896 59.7061 61.7839 57.7488C61.2782 55.7915 61.4859 43.5635 61.4859 43.5635Z" fill="#67647E"/>
<path opacity="0.1" d="M51.7171 56.8599C51.7171 56.8599 49.8748 61.3655 49.281 61.6631C48.6872 61.9606 49.4006 63.1447 49.4006 63.1447C49.4006 63.1447 52.7557 58.4609 51.7171 56.8599Z" fill="black"/>
<path opacity="0.1" d="M50.6174 41.0546C50.6384 40.9687 48.4206 43.2278 47.8268 43.5694C47.233 43.911 49.9942 43.5484 50.6174 41.0546Z" fill="black"/>
<path opacity="0.1" d="M44.4435 56.5039C44.4435 56.5039 41.0591 58.6897 41.506 59.5551C41.9529 60.4206 44.4435 56.5039 44.4435 56.5039Z" fill="black"/>
<path opacity="0.1" d="M50.5889 88.4097C50.5889 88.4097 53.4697 90.2601 57.9515 90.7149L50.5889 88.4097Z" fill="black"/>
<path opacity="0.1" d="M43.6704 92.8589C43.6704 92.8589 46.3415 96.2119 47.5605 96.2978C48.7796 96.3838 43.6704 92.8589 43.6704 92.8589Z" fill="black"/>
<path opacity="0.1" d="M47.4128 105.999C47.2932 106.057 45.8978 109.023 44.4752 109.113C43.0526 109.203 47.4128 105.999 47.4128 105.999Z" fill="black"/>
<path opacity="0.1" d="M59.7925 112.495C59.7925 112.495 62.4404 111.902 63.03 113.799C63.03 113.792 62.8517 113.199 59.7925 112.495Z" fill="black"/>
<path opacity="0.1" d="M58.0098 123.342C58.0098 123.342 61.2179 122.688 61.8999 123.579C62.5818 124.47 58.0098 123.342 58.0098 123.342Z" fill="black"/>
<path opacity="0.1" d="M48.9356 124.859C48.9356 124.889 45.6708 125.513 45.7883 125.928C45.9058 126.343 49.2713 126.284 49.3909 125.631C49.4123 125.55 49.4175 125.466 49.4061 125.384C49.3948 125.301 49.3671 125.222 49.3248 125.15C49.2824 125.078 49.2262 125.015 49.1594 124.966C49.0925 124.916 49.0165 124.88 48.9356 124.859Z" fill="black"/>
<path opacity="0.1" d="M56.9419 127.671C56.9419 127.671 62.3071 127.018 61.9776 128.145C61.6482 129.273 56.9419 127.671 56.9419 127.671Z" fill="black"/>
<path opacity="0.1" d="M28.8569 61.6631C28.8863 61.7511 32.3903 62.2268 32.8645 63.3543C32.8645 63.3543 29.4214 61.7511 28.8779 61.7511" fill="black"/>
<path opacity="0.1" d="M33.7844 70.8252C33.7844 70.8252 30.8742 71.7452 31.0819 73.1304C31.2896 74.5156 30.7861 72.4891 33.7844 70.8252Z" fill="black"/>
<path opacity="0.1" d="M32.4277 77.8833C32.4277 77.8833 33.4873 76.431 34.4966 76.6971C35.5058 76.9633 32.4277 77.8833 32.4277 77.8833Z" fill="black"/>
<path opacity="0.1" d="M49.0466 23.1437C48.9447 23.2424 48.8305 23.3277 48.7067 23.3972C47.8674 23.8855 47.6366 24.6378 47.238 25.5054C46.8666 26.2997 46.4574 27.14 45.7084 27.5906C44.7411 28.1732 43.4675 27.9594 42.4624 28.4666C42.0162 28.6986 41.6499 29.0587 41.4105 29.5006C41.1712 29.9424 41.0698 30.4458 41.1195 30.9457C41.1834 31.3315 41.2789 31.7114 41.4049 32.0815C41.6335 32.8831 41.7368 33.7151 41.7112 34.5481C41.7134 34.5725 41.7134 34.597 41.7112 34.6214C40.8513 34.1924 40.0914 33.5875 39.4807 32.8461C38.87 32.1047 38.4221 31.2433 38.1663 30.3178C37.9104 29.3924 37.8523 28.4236 37.9955 27.4742C38.1388 26.5249 38.4803 25.6162 38.998 24.8072C39.5156 23.9982 40.1977 23.307 41.0001 22.7783C41.8025 22.2497 42.7072 21.8954 43.6556 21.7385C44.6039 21.5817 45.5747 21.6257 46.5049 21.8678C47.4351 22.1098 48.3039 22.5445 49.055 23.1437H49.0466Z" fill="black"/>
<path d="M48.869 21.0812C48.1157 19.5011 46.477 18.4994 44.7921 18.0111C43.5059 17.6402 42.1085 17.5186 40.8328 17.9273C40.1047 18.1578 39.4438 18.556 38.7618 18.8976C37.4903 19.5388 36.0929 20.046 35.1361 21.1001C34.9116 21.3453 34.7165 21.6596 34.7731 21.9844C34.8214 22.2254 35.0102 22.4036 35.1319 22.6257C35.4068 23.1077 35.3417 23.7133 35.1508 24.2373C34.9599 24.7612 34.6892 25.2473 34.5591 25.7859C34.429 26.3245 34.4794 26.9553 34.878 27.3388C35.0564 27.5085 35.2851 27.6154 35.4781 27.7579C35.6963 27.9461 35.8876 28.1633 36.0467 28.4034L37.1798 29.95C37.712 30.6353 38.1865 31.3636 38.5982 32.1273C38.8793 32.6889 39.0976 33.2883 39.4752 33.7892C39.8529 34.29 40.4404 34.6924 41.0657 34.6379C41.1141 34.6391 41.1621 34.6289 41.2059 34.6082C41.2496 34.5874 41.2878 34.5567 41.3175 34.5184C41.3407 34.4694 41.3515 34.4154 41.3489 34.3613C41.3766 33.5313 41.2754 32.7021 41.0489 31.9031C40.9226 31.533 40.8272 31.1531 40.7635 30.7672C40.7153 30.2675 40.8172 29.7647 41.0564 29.3231C41.2956 28.8816 41.6612 28.5212 42.1064 28.2881C43.1136 27.781 44.3872 27.9947 45.3524 27.4142C46.1035 26.9616 46.5127 26.1212 46.882 25.3186C47.2869 24.451 47.5114 23.6987 48.3507 23.2104C49.19 22.7221 49.2865 21.9132 48.869 21.0812Z" fill="#585268"/>
<path opacity="0.1" d="M45.7969 133.045C45.7969 133.045 46.846 134.38 46.5732 135.141C46.3004 135.901 45.7969 133.045 45.7969 133.045Z" fill="black"/>
<path opacity="0.1" d="M59.9912 136.385C59.9912 136.385 60.2241 134.596 61.1578 134.579C62.0915 134.562 62.1377 134.482 62.8511 134.757C63.5645 135.031 64.2338 135.457 64.0198 135.52C63.8058 135.583 62.7923 134.497 61.7516 135.052C61.1021 135.407 60.5089 135.857 59.9912 136.385Z" fill="black"/>
<path opacity="0.1" d="M42.6653 41.4278L45.6028 39.372C45.6028 39.372 41.3056 36.8363 40.7937 37.1925C40.2817 37.5488 39.9292 40.7551 39.9292 40.7551L42.6653 41.4278Z" fill="black"/>
<path d="M42.6536 41.2957L45.5911 39.2001C45.5911 39.2001 41.2939 36.6644 40.782 37.0206C40.27 37.3769 39.9175 40.7592 39.9175 40.7592L42.6536 41.2957Z" fill="#E1E7EF"/>
<path d="M42.6536 41.2957L45.5911 39.2001C45.5911 39.2001 41.2939 36.6644 40.782 37.0206C40.27 37.3769 39.9175 40.7592 39.9175 40.7592L42.6536 41.2957Z" fill="#6C63FF"/>
<path d="M41.2676 37.0377L41.1795 36.9937C41.0484 36.9269 40.9008 36.8995 40.7544 36.9148C40.6081 36.93 40.4693 36.9873 40.3549 37.0796L31.5423 44.2194C31.5423 44.2194 29.6266 46.8662 29.8931 51.4326L35.0904 58.7862C35.0904 58.7862 35.6842 56.2966 36.3955 56.7702C36.3955 56.7702 37.4047 69.5221 36.3955 71.36C35.3863 73.1978 34.9414 80.0778 34.9414 80.0778L38.3553 80.4634C38.3553 80.4634 38.7119 75.8069 39.5135 74.1472C40.315 72.4874 40.7514 66.781 40.7514 66.781C40.7514 66.781 41.4732 58.4907 41.3536 54.9323C41.234 51.3739 40.1954 43.7227 40.1954 43.7227C40.1954 43.7227 40.487 39.2381 41.2676 37.0377Z" fill="#67647E"/>
<path opacity="0.1" d="M50.0467 40.1286L46.3853 38.7748C46.3853 38.7748 51.0475 33.674 51.6308 36.5031L50.0467 40.1286Z" fill="black"/>
<path d="M50.0467 39.9503L46.3853 38.5966C46.3853 38.5966 51.0475 33.4958 51.6308 36.3249L50.0467 39.9503Z" fill="#E1E7EF"/>
<path d="M50.0467 39.9503L46.3853 38.5966C46.3853 38.5966 51.0475 33.4958 51.6308 36.3249L50.0467 39.9503Z" fill="#6C63FF"/>
<path opacity="0.1" d="M49.9277 35.6101C49.9805 35.6016 50.0346 35.6136 50.0788 35.6436L49.9277 35.6101Z" fill="black"/>
<path d="M50.2812 35.2561L59.996 37.3518C59.996 37.3518 62.6692 37.9448 64.5995 44.6467C66.5299 51.3485 61.9558 59.5592 61.9558 59.5592L60.9465 58.7021L61.4522 78.2732C61.4522 78.2732 56.9683 79.9623 55.5436 78.4828C54.1189 77.0033 54.2679 70.0541 54.2679 70.0541C54.2679 70.0541 52.9019 57.2456 52.0396 55.1395C51.1772 53.0334 51.6199 37.8526 51.6199 37.8526C51.6199 37.8526 50.8268 35.1388 50.2812 35.2561Z" fill="#67647E"/>
<path opacity="0.1" d="M59.1689 47.7275C59.0325 47.8533 58.8731 53.7755 59.4669 58.2833C59.8299 61.0283 60.3909 63.7436 61.1454 66.408L60.2642 48.3499C60.2642 48.3499 59.5843 47.3419 59.1689 47.7275Z" fill="black"/>
<path opacity="0.1" d="M57.981 42.6265C58.2181 42.7753 59.2588 45.2355 58.7825 46.2435C58.3062 47.2515 57.981 42.6265 57.981 42.6265Z" fill="black"/>
<path opacity="0.1" d="M48.812 21.0811C48.3351 20.1431 47.5922 19.3662 46.676 18.8472C47.3573 19.3344 47.9072 19.9823 48.277 20.7332C48.6966 21.5715 48.5728 22.4097 47.7566 22.8687C46.9404 23.3276 46.6865 24.1093 46.2879 24.9769C45.9165 25.7711 45.5073 26.6115 44.7562 27.0725C43.791 27.6551 42.5174 27.4393 41.5102 27.9464C41.0652 28.1803 40.6999 28.5411 40.4607 28.9829C40.2216 29.4248 40.1195 29.9277 40.1673 30.4276C40.2319 30.8128 40.328 31.192 40.4548 31.5614C40.6833 32.3629 40.7866 33.1949 40.7611 34.0279C40.763 34.0823 40.7515 34.1363 40.7276 34.1851C40.6986 34.2236 40.6608 34.2545 40.6173 34.2753C40.5739 34.2961 40.526 34.3061 40.4779 34.3046C40.2261 34.3238 39.9736 34.2769 39.7456 34.1683C39.9107 34.3319 40.1076 34.46 40.3241 34.5447C40.5406 34.6293 40.7722 34.6689 41.0045 34.6608C41.0424 34.6663 41.081 34.663 41.1173 34.6511C41.1536 34.6392 41.1867 34.6191 41.2139 34.5923C41.2412 34.5655 41.2618 34.5328 41.2743 34.4967C41.2867 34.4606 41.2906 34.4221 41.2857 34.3842C41.3129 33.5512 41.2102 32.7191 40.9815 31.9176C40.8535 31.5479 40.7573 31.1679 40.694 30.7818C40.6457 30.2821 40.7477 29.7793 40.9869 29.3377C41.2261 28.8961 41.5916 28.5358 42.0369 28.3027C43.044 27.7955 44.3176 28.0093 45.2828 27.4288C46.034 26.9761 46.4431 26.1358 46.8124 25.3332C47.2174 24.4656 47.4419 23.7132 48.2812 23.2249C49.1205 22.7367 49.2317 21.9131 48.812 21.0811Z" fill="black"/>
<path d="M108.584 47.3983C105.693 47.3417 103.142 45.3027 101.696 42.811C101.317 42.2181 101.078 41.5464 100.999 40.8473C101.009 40.6885 101.036 40.5312 101.079 40.3779C101.167 40.1441 101.237 39.9037 101.289 39.6591C101.3 39.5617 101.3 39.4632 101.289 39.3657C101.289 39.3657 101.289 39.3657 101.289 39.349C101.358 38.8188 101.045 38.3011 100.659 37.9386C100.273 37.5761 99.7886 37.3099 99.3857 36.9495C98.1435 35.8597 97.7659 34.112 97.7428 32.448V32.36C97.7575 31.6475 97.8141 30.9329 97.8078 30.2204C97.8176 29.8159 97.8001 29.4112 97.7554 29.0091C97.6358 28.0011 97.2518 26.9742 96.4587 26.3309C94.3898 24.6544 90.9109 26.4 88.7687 24.8157C88.2483 24.428 87.8266 23.8559 87.195 23.7051C86.7187 23.5898 86.2235 23.7449 85.7577 23.8999C84.1798 24.4197 82.4194 25.1028 81.8025 26.6243C81.45 27.4982 81.5487 28.4957 81.2255 29.38C81.0157 29.9731 80.615 30.4823 80.3233 31.044C80.0839 31.4668 79.9676 31.948 79.9876 32.4334C79.9617 32.6846 79.997 32.9384 80.0904 33.1731C80.2 33.456 80.3764 33.7084 80.6045 33.9087C80.5222 34.0837 80.4193 34.2483 80.2981 34.3991C79.8953 34.8915 79.2763 35.2373 78.8566 35.7277C78.0803 36.6267 78.1097 37.8485 78.4916 38.9047C78.8734 39.9609 79.5638 40.9228 80.04 41.9517C80.2499 42.3981 80.4093 42.8969 80.1974 43.3411C80.0484 43.6492 79.74 43.8839 79.5008 44.1501C79.1508 44.5419 78.9309 45.0324 78.8713 45.5541C74.1482 46.6313 74.144 50.4223 74.144 50.4223L71.5926 56.8307C71.5926 56.8307 71.1834 57.91 70.7029 59.335L67.6836 58.7943L69.7818 62.3024C69.3853 63.7317 69.1041 65.0561 69.1964 65.7225C69.1964 65.7225 68.2585 70.1234 69.9266 70.8924L73.6069 72.5459C73.7663 72.6436 73.9377 72.7203 74.1167 72.7743L74.2657 72.8414C74.3194 72.8674 74.3782 72.8808 74.4378 72.8808C74.4974 72.8808 74.5562 72.8674 74.6098 72.8414H74.6203H74.6602C74.7316 72.8462 74.8032 72.8354 74.87 72.81C74.952 72.7659 75.0169 72.6958 75.0547 72.6109C75.0535 72.6039 75.0535 72.5968 75.0547 72.5899L76.1562 72.2714L77.0899 73.3758C77.5096 73.6713 77.9292 73.9269 78.3258 74.1574L76.8801 88.4958C76.8801 88.4958 76.6472 107.566 75.9422 111.912C75.682 113.522 75.6799 114.62 75.7786 115.366L75.7513 115.412C75.9254 116.638 76.3807 116.879 76.3807 116.879V116.862C76.3891 116.869 76.3983 116.875 76.408 116.879C76.6204 116.322 76.8728 115.782 77.1634 115.261C77.1634 115.364 77.1634 115.471 77.1634 115.576C77.1487 117.193 77.0983 119.459 76.9305 120.932C76.6451 123.447 77.6607 131.735 77.6607 131.735L78.0111 139.279C78.0681 140.56 77.7704 141.832 77.1508 142.955C76.3115 144.462 75.2393 146.583 75.1617 147.524C75.1575 147.574 75.1575 147.626 75.1617 147.676L73.3614 149.839C73.3614 149.839 72.6585 150.925 74.2468 151.363C75.1008 151.6 76.5738 151.363 77.7572 151.084C78.2737 150.965 78.7347 150.675 79.0651 150.261C79.3954 149.847 79.5756 149.333 79.5763 148.804C79.8754 147.765 80.3806 146.796 81.0619 145.956L81.3577 147.693L83.3385 148.184L83.5923 143.422C83.6946 143.155 83.741 142.87 83.7287 142.584C84.119 139.198 82.8097 139.501 82.8097 139.501C82.8448 139.531 82.8672 139.573 82.8727 139.619L82.8097 139.504C82.0061 137.919 82.3901 135.312 82.3901 135.312C82.3901 135.312 83.4392 127.768 83.798 125.775C84.056 124.367 83.949 119.756 83.863 117.183C83.863 117.076 83.863 116.973 83.8525 116.871C86.9243 116.831 90.6885 116.728 93.3302 116.472V116.783L92.8434 134.606C92.81 135.742 92.5785 136.864 92.1594 137.921C92.1594 137.942 92.1447 137.961 92.1363 137.982C91.5572 139.475 91.2303 141.053 91.169 142.653L90.9424 148.311V148.469C90.548 148.62 89.9248 149.058 89.908 150.327C89.8807 152.188 93.1644 151.568 93.1644 151.568C96.4461 151.568 96.4734 148.156 96.4734 148.156C96.4734 148.156 96.5762 145.028 96.7335 142.934C96.8909 140.841 96.2384 141.302 96.2384 141.302L96.188 147.257C96.188 147.272 96.188 147.287 96.188 147.303V142.083L96.2384 141.327V141.306V141.144L96.6517 135.002C96.6517 135.002 99.6752 124.767 100.143 122.803C100.477 121.408 100.338 117.204 100.229 114.88C100.229 114.773 100.229 114.67 100.212 114.572C101.15 114.488 101.979 114.48 102.311 114.48H102.464C102.464 114.48 102.309 98.0414 101.916 91.8467C101.524 85.652 100.901 79.9833 99.3374 78.2775C98.3932 77.2464 97.0776 74.0631 96.1901 71.7056C98.0559 72.5113 99.9925 73.1427 101.975 73.5916C106.925 74.6269 106.247 70.335 106.247 70.335L105.745 62.2186H105.779C105.761 60.0926 105.578 57.9711 105.233 55.873C104.971 54.2636 104.57 52.5997 103.958 51.2626C104.495 51.0531 105.026 50.8288 105.546 50.5983C106.891 50.0053 108.406 49.1649 108.599 47.7168H108.534C108.56 47.6123 108.577 47.5057 108.584 47.3983ZM77.902 59.1338C77.9124 59.9721 77.881 61.4265 77.8306 63.0338L76.259 60.9382L77.8348 58.3857L77.902 59.1338ZM99.6144 66.5608L96.9958 65.7225C97.4601 64.999 98.0026 64.3285 98.6135 63.7233L98.8401 63.5137L98.7583 63.5305L98.8842 63.4152L98.9597 63.3985L98.8401 63.5137L98.9828 63.4844C99.1404 64.1414 99.4453 64.754 99.8746 65.2761C100.815 66.3009 99.6165 66.5608 99.6165 66.5608H99.6144Z" fill="url(#paint1_linear)"/>
<path d="M83.7062 142.001L83.3999 147.802L81.4464 147.314L81.0352 144.902L83.7062 142.001Z" fill="#A27772"/>
<path opacity="0.1" d="M83.7062 142.001L83.3999 147.802L81.4464 147.314L81.0352 144.902L83.7062 142.001Z" fill="black"/>
<path d="M90.877 148.571L93.8564 149.188L96.0659 147.239V141.746L96.1162 140.996V140.973V140.813L96.5275 134.709C96.5275 134.709 99.5091 124.547 99.9728 122.596C100.3 121.213 100.164 117.038 100.055 114.731C100.011 113.786 99.9728 113.153 99.9728 113.153L93.3948 111.562L93.2563 116.613L92.7759 134.309C92.7427 135.436 92.5148 136.55 92.1023 137.601L92.0792 137.662C91.5072 139.144 91.1846 140.71 91.1245 142.297L90.9021 147.924V148.079L90.877 148.571Z" fill="#FBB7B7"/>
<path opacity="0.1" d="M90.877 148.571L93.8564 149.187L96.0659 147.238V146.771C96.0587 146.874 96.026 146.974 95.9707 147.062C95.9154 147.15 95.8393 147.223 95.749 147.274L95.7176 147.293C94.6913 147.835 93.5285 148.064 92.373 147.953L91.2106 147.854C91.1046 147.864 91.0007 147.89 90.9021 147.93V148.085L90.877 148.571Z" fill="black"/>
<path d="M95.7177 147.446L95.7492 147.429C95.8461 147.375 95.9269 147.296 95.9833 147.2C96.0397 147.104 96.0697 146.996 96.0702 146.885L96.1185 140.973C96.1185 140.973 96.7606 140.514 96.6053 142.593C96.45 144.672 96.3493 147.777 96.3493 147.777C96.3493 147.777 96.3241 151.164 93.0866 151.164C93.0866 151.164 89.849 151.78 89.8742 149.932C89.8993 148.083 91.2107 148.008 91.2107 148.008L92.3732 148.108C93.5289 148.22 94.6919 147.99 95.7177 147.446Z" fill="#B07473"/>
<path d="M75.3584 147.314C75.434 148.649 79.366 147.877 79.366 147.877L82.0119 142.747C82.0119 142.747 84.2213 141.052 83.1156 139.564C83.0564 139.483 83.0024 139.398 82.954 139.31C82.954 139.31 82.954 139.31 82.9435 139.298C82.9204 139.26 82.8994 139.22 82.8785 139.178C82.0853 137.607 82.4756 135.029 82.4756 135.029C82.4756 135.029 83.5016 127.535 83.8625 125.559C84.1164 124.163 84.0115 119.584 83.9276 117.023C83.894 115.959 83.8625 115.244 83.8625 115.244L77.3349 113.499C77.3349 113.499 77.3349 114.312 77.3349 115.443C77.3203 117.051 77.2699 119.299 77.1041 120.762C76.823 123.25 77.8238 131.487 77.8238 131.487L78.17 138.984C78.23 140.254 77.9397 141.516 77.3307 142.632C76.5124 144.128 75.4423 146.237 75.3689 147.169C75.3616 147.217 75.3581 147.265 75.3584 147.314Z" fill="#FBB7B7"/>
<path opacity="0.1" d="M75.3583 147.314C75.4338 148.649 79.3659 147.878 79.3659 147.878L82.0117 142.747C82.0117 142.747 84.2212 141.052 83.1154 139.564C83.0562 139.483 83.0023 139.398 82.9538 139.311C82.9182 140.088 82.0642 142.035 82.0642 142.035C82.0642 142.035 79.8799 146.4 79.1854 147.4C78.4909 148.399 75.4737 147.213 75.3604 147.171C75.356 147.219 75.3553 147.266 75.3583 147.314Z" fill="black"/>
<path d="M82.8773 139.172C82.8773 139.172 84.1698 138.873 83.7837 142.234C83.7984 142.616 83.7116 142.995 83.5321 143.332C83.3526 143.67 83.0869 143.954 82.7619 144.156C81.8366 144.736 80.4098 145.985 79.688 148.414C79.6886 148.938 79.5116 149.447 79.1859 149.858C78.8602 150.269 78.4049 150.558 77.894 150.677C76.7274 150.95 75.2733 151.189 74.4319 150.954C72.8646 150.518 73.5591 149.441 73.5591 149.441L75.3573 147.31C75.3573 147.31 78.492 148.542 79.1844 147.54C79.8768 146.539 82.0632 142.178 82.0632 142.178C82.0632 142.178 83.2613 139.455 82.8773 139.172Z" fill="#B07473"/>
<path opacity="0.1" d="M93.3943 112.185L93.2559 117.236C95.0079 117.066 96.2626 116.829 96.4766 116.496C96.9403 115.779 98.6231 115.477 100.054 115.354C100.01 114.409 99.9723 113.776 99.9723 113.776L93.3943 112.185Z" fill="black"/>
<path opacity="0.1" d="M77.334 116.058C77.5015 115.715 77.7482 115.418 78.0537 115.19C78.7461 114.806 78.6706 117.654 78.6706 117.654C78.6706 117.654 80.9786 117.675 83.9266 117.638C83.893 116.573 83.8616 115.856 83.8616 115.856L77.334 114.113C77.334 114.113 77.3466 114.922 77.334 116.058Z" fill="black"/>
<path d="M76.5907 116.732C76.5907 116.732 77.3629 114.637 78.0595 114.264C78.7561 113.891 78.6764 116.726 78.6764 116.726C78.6764 116.726 95.6342 116.881 96.4819 115.571C97.3296 114.261 102.263 114.339 102.263 114.339C102.263 114.339 102.109 98.0182 101.723 91.8613C101.337 85.7043 100.722 80.0817 99.1802 78.3884C98.1836 77.2924 96.7652 73.7466 95.8881 71.3827C95.4118 70.0918 95.095 69.1509 95.095 69.1509L78.9093 70.073L78.7771 71.3827L77.0586 88.5502C77.0586 88.5502 76.8278 107.488 76.1333 111.799C75.4388 116.11 76.5907 116.732 76.5907 116.732Z" fill="#444053"/>
<g opacity="0.1">
<path opacity="0.1" d="M95.164 115.571C96.0033 114.264 100.945 114.339 100.945 114.339C100.945 114.339 100.791 98.0182 100.405 91.8613C100.019 85.7043 99.4045 80.0817 97.8623 78.3884C96.8614 77.2882 95.4472 73.7466 94.5702 71.3827C94.1694 70.2972 93.882 69.461 93.8022 69.2221L95.0612 69.1509C95.0612 69.1509 95.378 70.0918 95.8564 71.3827C96.7335 73.7466 98.1498 77.2924 99.1464 78.3884C100.689 80.0817 101.305 85.7022 101.689 91.8613C102.073 98.0203 102.231 114.339 102.231 114.339C102.231 114.339 97.2979 114.264 96.4481 115.571C95.7242 116.688 83.246 116.741 79.6245 116.73C84.2721 116.72 94.5093 116.581 95.164 115.571Z" fill="black"/>
<path opacity="0.1" d="M76.7417 114.264C77.0543 114.09 77.2096 114.572 77.2872 115.156C77.0071 115.663 76.7637 116.19 76.5592 116.732C76.5592 116.732 76.1122 116.491 75.9297 115.265C76.1857 114.827 76.4689 114.414 76.7417 114.264Z" fill="black"/>
</g>
<path d="M81.5921 29.6628C80.4717 31.1885 81.6047 33.3574 80.4024 34.8412C80.0059 35.3315 79.3953 35.6794 78.9819 36.1614C78.2161 37.0541 78.2455 38.2675 78.6211 39.3153C78.9966 40.3632 79.6702 41.3188 80.1486 42.3414C80.3584 42.7836 80.5137 43.2803 80.3038 43.7204C80.157 44.0263 79.8527 44.2589 79.6156 44.523C78.8435 45.3843 78.8225 46.5809 79.2379 47.5952C79.6534 48.6095 80.4465 49.4813 81.2292 50.3405C81.5376 50.6779 81.9279 51.0509 82.4419 51.0404C82.7123 51.0199 82.9736 50.9344 83.2036 50.791C84.9837 49.8829 86.3445 48.324 87.0027 46.439C87.6608 44.5539 87.5657 42.488 86.737 40.6712C86.0865 39.1142 85.0018 37.6221 84.9913 35.977C84.9913 34.6714 85.6627 33.4245 85.7823 32.1252C85.9271 30.5451 84.9913 28.0366 83.0819 27.3472C83.2078 28.3615 82.1608 28.8791 81.5921 29.6628Z" fill="#585268"/>
<path opacity="0.1" d="M81.5921 29.6628C80.4717 31.1885 81.6047 33.3574 80.4024 34.8412C80.0059 35.3315 79.3953 35.6794 78.9819 36.1614C78.2161 37.0541 78.2455 38.2675 78.6211 39.3153C78.9966 40.3632 79.6702 41.3188 80.1486 42.3414C80.3584 42.7836 80.5137 43.2803 80.3038 43.7204C80.157 44.0263 79.8527 44.2589 79.6156 44.523C78.8435 45.3843 78.8225 46.5809 79.2379 47.5952C79.6534 48.6095 80.4465 49.4813 81.2292 50.3405C81.5376 50.6779 81.9279 51.0509 82.4419 51.0404C82.7123 51.0199 82.9736 50.9344 83.2036 50.791C84.9837 49.8829 86.3445 48.324 87.0027 46.439C87.6608 44.5539 87.5657 42.488 86.737 40.6712C86.0865 39.1142 85.0018 37.6221 84.9913 35.977C84.9913 34.6714 85.6627 33.4245 85.7823 32.1252C85.9271 30.5451 84.9913 28.0366 83.0819 27.3472C83.2078 28.3615 82.1608 28.8791 81.5921 29.6628Z" fill="black"/>
<path opacity="0.1" d="M94.0188 85.1572C91.7758 85.2746 89.6649 86.2386 87.701 87.3283C85.7371 88.418 83.8361 89.6524 81.7231 90.4257" fill="black"/>
<path opacity="0.1" d="M92.6266 90.4365C90.4077 90.6479 88.34 91.6525 86.804 93.2656C86.2584 93.8419 85.7884 94.4874 85.2198 95.0406C84.3494 95.8891 83.2737 96.4977 82.0977 96.8073" fill="black"/>
<path opacity="0.1" d="M93.0855 94.4536C91.2961 94.9496 89.6766 95.9251 88.4023 97.2743C88.0582 97.6453 87.7455 98.0413 87.4014 98.4123C85.5445 100.403 82.9217 101.459 80.3892 102.459" fill="black"/>
<path d="M92.8935 38.7411C92.943 40.5313 93.0971 42.317 93.3551 44.0892C93.5649 45.3466 93.8587 46.4782 94.2804 46.9791C95.5142 48.446 88.269 50.4054 88.269 50.4054L83.9907 47.0943C83.9907 47.0943 87.3815 43.976 85.8015 40.9353C84.2215 37.8945 92.8935 38.7411 92.8935 38.7411Z" fill="#FBB7B7"/>
<path opacity="0.1" d="M78.7729 71.3827H95.884C95.4077 70.0918 95.0909 69.1509 95.0909 69.1509L78.9051 70.073L78.7729 71.3827Z" fill="black"/>
<path d="M77.6709 71.0749H95.9654C95.4513 69.2371 95.9654 67.5375 96.6976 66.2298C97.2109 65.3134 97.8564 64.4774 98.6133 63.7486L98.7392 63.6333L105.126 62.2209L105.47 62.1454C105.47 62.1454 105.523 50.5461 101.41 48.9534C97.2977 47.3607 94.8323 45.2085 94.8323 45.2085L89.1818 46.9521L85.0189 44.8564C83.6824 46.292 80.1364 45.7282 80.1364 45.7282C74.3306 46.3946 74.3306 50.7578 74.3306 50.7578C74.3306 50.7578 77.7213 58.6604 77.9794 58.6604C78.2375 58.6604 77.6709 71.0749 77.6709 71.0749Z" fill="#6C63FF"/>
<path opacity="0.1" d="M83.9869 63.7002C83.9869 63.7002 80.2562 62.8746 78.9868 61.4307L83.9869 63.7002Z" fill="black"/>
<path opacity="0.1" d="M102.797 59.3726L98.4702 62.9142C98.5016 63.1961 98.5492 63.476 98.6129 63.7524L98.7388 63.6372L105.126 62.2247L102.797 59.3726Z" fill="black"/>
<path opacity="0.1" d="M91.0835 69.8425C91.0835 69.8425 92.0298 70.3748 93.4797 71.0747H95.9661C95.452 69.2369 95.9661 67.5373 96.6983 66.2296L92.3152 64.813C93.807 66.1982 91.0835 69.8425 91.0835 69.8425Z" fill="black"/>
<path d="M76.8983 49.3662L74.33 50.7514L71.8122 57.1159C71.8122 57.1159 69.1915 64.0943 69.4475 65.9427C69.4475 65.9427 68.5243 70.3058 70.1672 71.0749L74.4475 73.0112C74.5232 73.0446 74.6073 73.0536 74.6883 73.0371C74.7693 73.0205 74.8432 72.9792 74.8997 72.9189C74.9561 72.8586 74.9924 72.7822 75.0035 72.7004C75.0146 72.6186 75 72.5353 74.9616 72.4622C74.351 71.3075 73.6796 69.5011 74.7518 68.5077L73.518 65.9427L77.9768 58.6541L79.4665 56.1393L76.8983 49.3662Z" fill="#6C63FF"/>
<path opacity="0.1" d="M82.6125 62.2437C82.8349 63.149 83.5861 64.5489 86.0725 65.0707L88.8002 67.3025L91.702 68.6165L92.8854 69.1509L93.3869 65.5317L92.2475 64.903L90.9194 64.1779C90.9194 64.1779 87.9231 58.7565 83.179 61.0345C82.9585 61.1388 82.7814 61.3166 82.678 61.5373C82.5746 61.758 82.5514 62.0078 82.6125 62.2437Z" fill="black"/>
<path d="M82.7682 61.9356C82.9907 62.843 83.7397 64.2408 86.2261 64.7626L88.9538 66.9944L91.8578 68.3084L93.0391 68.8428L93.5405 65.2236L92.4012 64.5949L91.0835 63.8761C91.0835 63.8761 88.0851 58.4547 83.3411 60.7432C83.1229 60.8459 82.9468 61.0205 82.8425 61.2377C82.7382 61.4549 82.7119 61.7013 82.7682 61.9356Z" fill="#FBBEBE"/>
<path opacity="0.1" d="M88.1141 43.4355C91.7748 43.4355 94.7424 40.4716 94.7424 36.8154C94.7424 33.1592 91.7748 30.1953 88.1141 30.1953C84.4534 30.1953 81.4858 33.1592 81.4858 36.8154C81.4858 40.4716 84.4534 43.4355 88.1141 43.4355Z" fill="black"/>
<path d="M88.1141 43.2822C91.7748 43.2822 94.7424 40.3183 94.7424 36.6621C94.7424 33.0059 91.7748 30.042 88.1141 30.042C84.4534 30.042 81.4858 33.0059 81.4858 36.6621C81.4858 40.3183 84.4534 43.2822 88.1141 43.2822Z" fill="#FBBEBE"/>
<path opacity="0.1" d="M92.2209 50.8079L90.2275 46.9393C90.2275 46.9393 93.1441 45.7616 93.356 44.3973C93.5679 43.0331 96.1508 45.9963 95.5927 46.9791C95.0346 47.962 92.2209 50.8079 92.2209 50.8079Z" fill="black"/>
<path d="M92.2209 50.4996L90.2275 46.631C90.2275 46.631 93.1441 45.4533 93.356 44.089C93.5679 42.7248 96.1508 45.6901 95.5927 46.6709C95.0346 47.6516 92.2209 50.4996 92.2209 50.4996Z" fill="#6C63FF"/>
<path d="M75.9066 60.4938L86.9202 75.2826C86.9202 75.2826 82.8601 77.4893 77.2683 73.5391L74.8533 70.6639L67.9585 59.0562L75.9066 60.4938Z" fill="#F6F8FB"/>
<path d="M73.7385 68.5347L74.7415 68.5074C74.7415 68.5074 80.8683 62.5684 82.3728 65.5735C83.8772 68.5787 78.5561 71.3868 78.5561 71.3868L76.9383 72.2586L74.8296 72.8873L73.4805 71.0788L73.7385 68.5347Z" fill="#FBBEBE"/>
<path opacity="0.1" d="M75.2179 71.7431C75.3102 72.0847 75.3984 72.4619 75.2431 72.7783C75.2059 72.863 75.1417 72.933 75.0606 72.9774C74.9938 73.0031 74.922 73.0131 74.8507 73.0068C74.32 72.9616 73.826 72.7176 73.468 72.3236C73.1164 71.9309 72.8154 71.4959 72.5721 71.0285C72.2993 70.5528 72.016 70.0268 72.1126 69.4861C72.2217 68.8972 72.742 68.4886 73.2519 68.1575C74.2674 67.4869 74.301 68.2685 74.5234 69.1319C74.7458 69.9953 74.985 70.8713 75.2179 71.7431Z" fill="black"/>
<path d="M75.0639 71.7431C75.1541 72.0847 75.2443 72.4619 75.0891 72.7783C75.0519 72.863 74.9877 72.933 74.9065 72.9774C74.8397 73.003 74.768 73.013 74.6967 73.0068C74.1657 72.9627 73.6713 72.7184 73.314 72.3236C72.961 71.9316 72.6592 71.4964 72.4159 71.0285C72.1432 70.5528 71.8599 70.0268 71.9585 69.4861C72.0655 68.8972 72.588 68.4886 73.0958 68.1575C74.1134 67.4869 74.1449 68.2685 74.3694 69.1319C74.5939 69.9953 74.8289 70.8713 75.0639 71.7431Z" fill="#6C63FF"/>
<path opacity="0.1" d="M77.978 58.6541L78.49 57.7886L78.0431 59.3959L77.978 58.6541Z" fill="black"/>
<path opacity="0.1" d="M91.8647 68.3087L93.046 68.8431L93.5475 65.2239L92.4082 64.5952C93.195 65.4963 92.5068 67.1624 91.8647 68.3087Z" fill="black"/>
<path opacity="0.1" d="M96.6077 64.1066C96.6077 64.1066 92.7932 64.3392 91.1733 63.2998L96.6077 64.1066Z" fill="black"/>
<g opacity="0.1">
<path opacity="0.1" d="M96.1322 66.5379C96.6455 65.6209 97.291 64.7842 98.0479 64.0546C98.2294 63.9409 98.4179 63.8387 98.6123 63.7486L104.559 62.529L104.903 62.4535C104.903 62.4535 104.955 50.8542 100.845 49.2615C98.5391 48.3858 96.3777 47.1702 94.4326 45.6549L94.8837 45.5166C94.8837 45.5166 97.3492 47.6709 101.462 49.2615C105.574 50.8521 105.52 62.4535 105.52 62.4535H104.903L98.8179 63.6166C98.8179 63.6166 98.5556 63.8702 98.4759 63.9435C97.7128 64.7069 97.0583 65.5714 96.5308 66.5128C95.7257 68.0059 95.5424 69.7558 96.021 71.383H95.3915C94.8837 69.5451 95.4083 67.8456 96.1322 66.5379Z" fill="black"/>
<path opacity="0.1" d="M79.8926 46.0638C79.9912 46.0491 80.0856 46.0344 80.1884 46.0239C80.6057 46.0831 81.026 46.1174 81.4474 46.1267C80.9283 46.1411 80.4088 46.12 79.8926 46.0638Z" fill="black"/>
<path opacity="0.1" d="M88.6153 47.2601L84.8511 45.3573C84.9258 45.2961 84.9959 45.2296 85.0609 45.1582L88.9888 47.1428L88.6153 47.2601Z" fill="black"/>
</g>
<path d="M102.947 59.0562L105.464 62.1367L105.978 70.5025C105.978 70.5025 106.646 74.7608 101.765 73.734C96.8847 72.7071 91.2363 69.5343 91.2363 69.5343C91.2363 69.5343 93.964 65.89 92.4701 64.5048L99.4593 66.7639C99.4593 66.7639 100.641 66.5061 99.7153 65.4814C98.7899 64.4566 98.6263 62.6062 98.6263 62.6062L102.947 59.0562Z" fill="#6C63FF"/>
<path opacity="0.1" d="M104.083 67.8936L105.47 69.4841C105.114 69.3747 104.795 69.1677 104.55 68.8866C104.304 68.6055 104.143 68.2615 104.083 67.8936Z" fill="black"/>
<path opacity="0.1" d="M101.718 67.6357L103.877 70.4062L102.799 70.6639L101.718 67.6357Z" fill="black"/>
<path opacity="0.1" d="M80.1965 33.6238C79.9594 33.0433 80.1419 32.3664 80.4273 31.8194C80.7126 31.2725 81.105 30.7548 81.319 30.166C81.6359 29.29 81.5394 28.2988 81.8856 27.4416C82.4961 25.9223 84.2314 25.2433 85.7862 24.7173C86.2457 24.5643 86.7346 24.4114 87.2046 24.5245C87.834 24.6733 88.2432 25.2433 88.7572 25.6268C90.8681 27.1985 94.3008 25.4676 96.3423 27.1315C97.1229 27.7602 97.5026 28.7891 97.6201 29.7888C97.7376 30.7884 97.6201 31.8027 97.6076 32.8107C97.574 34.5752 97.9055 36.5053 99.2274 37.6746C99.6261 38.0267 100.096 38.2907 100.486 38.6554C100.877 39.02 101.183 39.5293 101.116 40.0574C101.064 40.2999 100.994 40.5381 100.906 40.7699C100.644 41.6899 101.036 42.6559 101.514 43.4942C102.941 45.9608 105.457 47.9935 108.309 48.0501C108.118 49.4877 106.63 50.3218 105.298 50.9107C103.619 51.663 101.831 52.4006 99.9828 52.3063C98.1342 52.212 96.206 51.0301 95.8828 49.2111C95.7716 48.5824 95.7863 47.8259 95.2534 47.499C94.926 47.2999 94.5022 47.3502 94.1497 47.2014C93.6398 46.9918 93.388 46.4197 93.2202 45.8937C92.8762 44.8084 92.6917 43.6789 92.6725 42.5407C92.6494 41.1911 92.8278 39.7179 92.062 38.6072C91.3528 37.5782 90.0938 37.0564 89.2755 36.1113C88.5201 35.2353 87.6997 34.1791 86.4618 34.0156C84.7496 33.7746 81.2078 36.0987 80.1965 33.6238Z" fill="black"/>
<path d="M80.1965 33.3157C79.9594 32.7352 80.1419 32.0583 80.4273 31.5113C80.7126 30.9644 81.105 30.4467 81.319 29.8579C81.6359 28.9819 81.5394 27.9907 81.8856 27.1335C82.4961 25.6121 84.2314 24.9331 85.7862 24.4092C86.2457 24.2562 86.7346 24.1033 87.2046 24.2164C87.834 24.3652 88.2432 24.9352 88.7572 25.3187C90.8681 26.8904 94.3008 25.1595 96.3423 26.8234C97.1229 27.4521 97.5026 28.481 97.6201 29.4827C97.7376 30.4845 97.6201 31.4946 97.6076 32.5026C97.574 34.2671 97.9055 36.1972 99.2274 37.3665C99.6261 37.7186 100.096 37.9826 100.486 38.3473C100.877 38.7119 101.183 39.2212 101.116 39.7493C101.064 39.9918 100.994 40.23 100.906 40.4618C100.644 41.3818 101.036 42.3478 101.514 43.1861C102.945 45.6443 105.451 47.6833 108.302 47.7399C108.111 49.1775 106.624 50.0116 105.291 50.6025C103.613 51.3528 101.825 52.0904 99.9765 51.9961C98.1279 51.9018 96.1997 50.7199 95.8765 48.9009C95.7653 48.2722 95.78 47.5157 95.2471 47.1888C94.9197 46.9897 94.4959 47.04 94.1434 46.8912C93.6335 46.6816 93.3817 46.1095 93.2139 45.5835C92.8698 44.4982 92.6853 43.3687 92.6662 42.2305C92.6432 40.8809 92.8215 39.4077 92.0557 38.297C91.3465 37.268 90.0875 36.7462 89.2692 35.8011C88.5139 34.9251 87.6934 33.8689 86.4555 33.7054C84.7496 33.4665 81.2078 35.7948 80.1965 33.3157Z" fill="#585268"/>
<path opacity="0.1" d="M84.9014 50.3278L88.7012 47.2472C88.7012 47.2472 86.0994 45.839 85.7889 44.6382C85.4784 43.4374 83.3969 45.2082 83.6089 46.2853C83.8208 47.3625 84.9014 50.3278 84.9014 50.3278Z" fill="black"/>
<path d="M85.0508 49.8648L88.8507 46.7863C88.8507 46.7863 86.2489 45.378 85.951 44.1772C85.653 42.9764 83.559 44.7472 83.7709 45.8244C83.9828 46.9015 85.0508 49.8648 85.0508 49.8648Z" fill="#6C63FF"/>
<path opacity="0.1" d="M88.9989 49.666C89.1658 49.666 89.3011 49.5309 89.3011 49.3643C89.3011 49.1976 89.1658 49.0625 88.9989 49.0625C88.8321 49.0625 88.6968 49.1976 88.6968 49.3643C88.6968 49.5309 88.8321 49.666 88.9989 49.666Z" fill="black"/>
<path opacity="0.1" d="M88.9989 51.3423C89.1658 51.3423 89.3011 51.2072 89.3011 51.0405C89.3011 50.8739 89.1658 50.7388 88.9989 50.7388C88.8321 50.7388 88.6968 50.8739 88.6968 51.0405C88.6968 51.2072 88.8321 51.3423 88.9989 51.3423Z" fill="black"/>
<path opacity="0.1" d="M88.9989 53.0166C89.1658 53.0166 89.3011 52.8815 89.3011 52.7149C89.3011 52.5482 89.1658 52.4131 88.9989 52.4131C88.8321 52.4131 88.6968 52.5482 88.6968 52.7149C88.6968 52.8815 88.8321 53.0166 88.9989 53.0166Z" fill="black"/>
<g opacity="0.1">
<path opacity="0.1" d="M81.7299 29.0366C82.03 28.213 81.9649 27.2889 82.2461 26.459C82.1158 26.6425 82.0081 26.8409 81.9251 27.05C81.5767 27.9155 81.6754 28.9067 81.3564 29.7743L81.3354 29.8246C81.4909 29.5746 81.6229 29.3108 81.7299 29.0366Z" fill="black"/>
<path opacity="0.1" d="M105.703 49.7811C104.024 50.5313 102.236 51.269 100.388 51.1747C98.5393 51.0804 96.611 49.8985 96.2879 48.0816C96.1767 47.4529 96.1914 46.6942 95.6584 46.3673C95.3311 46.1682 94.9073 46.2185 94.5548 46.0697C94.0449 45.8602 93.7931 45.2881 93.6252 44.7621C93.2811 43.6768 93.0966 42.5473 93.0776 41.409C93.0545 40.0616 93.235 38.5883 92.4691 37.4755C91.7578 36.4466 90.4989 35.9269 89.6806 34.9796C88.9252 34.1058 88.1048 33.0475 86.8669 32.884C85.1694 32.6535 81.6213 34.9796 80.6183 32.5026C80.4573 32.0346 80.4805 31.5228 80.6834 31.0713C80.6099 31.1949 80.5386 31.3186 80.4736 31.4443C80.1882 32.0018 80.0078 32.6703 80.2449 33.2507C81.2541 35.7236 84.7959 33.3995 86.4934 33.6322C87.7313 33.7998 88.5517 34.8581 89.3071 35.7278C90.1254 36.675 91.3843 37.1947 92.0935 38.2258C92.8615 39.3365 92.681 40.8097 92.7041 42.1572C92.7232 43.2954 92.9076 44.4249 93.2517 45.5102C93.4196 46.0383 93.6714 46.6041 94.1813 46.8179C94.5338 46.9667 94.9576 46.9185 95.2849 47.1155C95.8263 47.4424 95.8116 48.2073 95.9144 48.8297C96.2417 50.6466 98.1679 51.8285 100.014 51.9228C101.861 52.0172 103.64 51.2816 105.329 50.5293C106.546 49.9886 107.902 49.2404 108.267 48.0145C107.683 48.8108 106.651 49.3599 105.703 49.7811Z" fill="black"/>
</g>
<path d="M142.784 61.6087C138.342 59.0562 136.664 58.4275 136.655 58.4275L136.563 58.3625C136.079 57.9912 135.695 57.5059 135.445 56.9501C135.44 56.8489 135.44 56.7474 135.445 56.6462C135.444 56.656 135.444 56.6658 135.445 56.6756C135.514 55.3239 136.477 54.0937 137.39 53.0208L139.725 50.2776C139.99 50.0061 140.196 49.682 140.327 49.3262C140.374 49.135 140.396 48.9383 140.39 48.7415C140.39 48.6618 140.39 48.5822 140.39 48.5026C140.378 47.8215 140.359 47.1383 140.334 46.4572C140.313 45.8621 140.159 45.1118 139.564 44.9903C139.253 44.9274 138.842 45.0385 138.678 44.7807C138.623 44.6713 138.608 44.5456 138.638 44.4266C138.637 44.4363 138.637 44.4462 138.638 44.4559V44.4224C138.754 43.9626 138.827 43.4934 138.859 43.0204C138.872 42.7796 138.839 42.5386 138.762 42.31C138.418 41.3229 137.228 40.9164 136.177 40.7299C135.126 40.5434 133.947 40.3841 133.288 39.5626C133.111 39.2885 132.919 39.0247 132.713 38.7725C132.409 38.5028 132.038 38.3197 131.639 38.2423C130.334 37.9213 128.959 38.0407 127.73 38.5818C127.222 38.8082 126.712 39.1141 126.154 39.0806C125.596 39.0471 125.08 38.6447 124.509 38.5483C123.586 38.3911 122.702 39.068 122.247 39.8707C121.977 40.3466 121.833 40.883 121.827 41.4298V41.522C121.814 42.1104 122.029 42.681 122.427 43.1147C122.826 43.5338 123.418 43.8104 123.583 44.3532C123.651 44.5733 123.634 44.8122 123.695 45.0364C123.701 45.0642 123.71 45.0915 123.72 45.1181L123.69 45.1579C122.738 46.3751 122.221 47.8757 122.222 49.4205C122.232 50.9209 122.72 52.3793 123.614 53.5847C124.509 54.7901 125.764 55.6803 127.199 56.1265C127.199 56.1956 127.199 56.2648 127.199 56.3361C127.199 57.1743 126.957 58.0482 126.234 58.6832L119.941 61.1937C119.941 61.1937 116.147 60.7432 114.779 66.2798C114.561 67.1989 114.482 68.1455 114.544 69.088C114.595 69.9262 114.479 71.3932 113.495 73.2939C111.94 76.3368 112.295 83.3215 115.476 84.0131C118.478 84.6669 119.653 84.3945 119.777 84.3631V84.4846C119.727 85.7965 119.251 97.1003 117.52 98.4667C117.041 98.846 117.129 99.0954 117.52 99.2735C117.52 99.2735 117.52 99.3468 117.509 99.4831C117.457 100.321 117.19 103.465 116.04 105.25C114.695 107.325 114.836 119.291 114.836 119.291L113.919 126.345C113.919 126.345 114.483 130.702 113.919 131.462C113.413 132.139 112.742 148.257 112.601 151.752H112.543C112.265 151.77 111.995 151.856 111.758 152.002C111.521 152.149 111.324 152.351 111.183 152.591C110.44 153.796 107.838 156.023 107.838 156.023C107.274 156.824 105.186 157.591 104.083 157.951C103.937 157.999 103.796 158.061 103.663 158.136C103.25 158.36 102.918 158.709 102.715 159.133C102.642 159.259 102.595 159.398 102.578 159.542C102.561 159.686 102.573 159.832 102.614 159.971C102.895 160.661 108.764 161.147 110.249 160.453C111.416 159.911 116.04 159.196 117.96 158.915C118.309 158.871 118.633 158.713 118.881 158.465C119.13 158.217 119.289 157.893 119.332 157.545C119.351 157.425 119.345 157.302 119.314 157.184C119.284 157.066 119.23 156.956 119.156 156.859C118.789 156.405 118.602 155.162 118.527 154.345C118.683 154.281 118.828 154.195 118.959 154.089C118.798 151.577 119.156 149.058 120.008 146.689C121.422 142.955 121.846 136.039 121.494 131.544C121.494 131.544 125.805 113.01 129.2 111.281C129.253 111.349 130.9 113.459 131.11 119.995C131.32 126.634 133.724 130.991 133.724 130.991C133.724 130.991 132.662 142.263 133.724 146.482L132.337 153.135C132.234 153.05 132.169 152.983 132.169 152.983C132.169 152.983 132.211 153.167 132.268 153.462L132.239 153.605L132.299 153.617C132.457 154.456 132.69 155.9 132.593 156.761C132.539 157.245 132.402 157.909 132.31 158.561C132.163 159.586 132.123 160.579 132.662 160.797C133.548 161.153 138.747 161.635 139.629 160.495C139.827 160.263 139.956 159.98 140.001 159.678C140.046 159.376 140.006 159.068 139.885 158.787C139.821 158.63 139.735 158.484 139.629 158.352C139.629 158.352 138.248 156.099 138.638 154.51C138.674 154.355 138.678 154.194 138.65 154.037C138.621 153.881 138.561 153.731 138.472 153.599C138.533 152.819 138.848 149.21 139.662 146.147C140.548 142.819 142.413 135.522 141.041 130.725C140.989 130.536 140.93 130.352 140.864 130.172C140.072 127.552 139.808 124.802 140.086 122.08C139.577 119.757 139.577 117.35 140.086 115.026C140.936 111.154 141.53 107.35 141.53 107.35C141.53 107.35 141.997 102.233 141.588 99.0954C141.588 99.0283 141.569 98.9613 141.561 98.8858L141.783 98.8355C141.783 98.8355 140.581 93.5105 140.157 90.1219C140.057 89.3213 139.927 88.3091 139.784 87.2278C140.175 87.1631 140.56 87.0671 140.936 86.9407C144.752 85.6267 145.955 73.7382 145.955 73.7382V69.9661C145.955 69.9661 147.239 64.1674 142.784 61.6087ZM114.341 153.448C114.223 153.389 114.154 153.349 114.154 153.349L114.341 153.448Z" fill="url(#paint2_linear)"/>
<path d="M140.481 130.247C142.137 135.002 140.204 142.72 139.306 146.174C138.408 149.628 138.133 153.756 138.133 153.756C134.615 154.307 132.061 153.618 132.061 153.618L133.511 146.52C132.474 142.316 133.511 131.081 133.511 131.081C133.511 131.081 131.165 126.739 130.957 120.123C130.747 113.612 129.147 111.506 129.096 111.441C125.785 113.164 121.576 131.635 121.576 131.635C121.92 136.113 121.505 143.005 120.126 146.723C119.289 149.086 118.937 151.594 119.092 154.096C118.609 154.515 117.938 154.573 117.203 154.456C115.233 154.137 112.871 152.442 112.871 152.442C112.871 152.442 113.628 132.324 114.182 131.561C114.736 130.798 114.182 126.46 114.182 126.46L115.078 119.432C115.078 119.432 114.939 107.507 116.251 105.441C117.384 103.656 117.644 100.516 117.694 99.6929C117.694 99.5629 117.694 99.4833 117.694 99.4833L119.692 97.0943C119.692 97.0943 139.012 95.6462 140.464 97.0943C140.819 97.4484 141.039 98.2573 141.169 99.2737C141.568 102.4 141.111 107.499 141.111 107.499C141.111 107.499 140.532 111.29 139.703 115.148C139.206 117.466 139.206 119.862 139.703 122.179C139.436 124.893 139.701 127.634 140.481 130.247Z" fill="#65617D"/>
<path d="M139.272 160.466C138.409 161.604 133.338 161.122 132.474 160.768C131.947 160.558 131.987 159.559 132.13 158.538C132.22 157.891 132.352 157.228 132.406 156.746C132.543 155.506 131.987 152.989 131.987 152.989C131.987 152.989 133.124 154.196 133.399 152.989C133.521 152.461 133.944 152.19 134.385 152.054C134.976 151.875 135.612 151.915 136.177 152.165C137.073 152.555 138.567 153.383 138.3 154.502C137.921 156.084 139.266 158.331 139.266 158.331C139.37 158.462 139.455 158.607 139.517 158.762C139.637 159.041 139.677 159.348 139.634 159.649C139.591 159.949 139.465 160.232 139.272 160.466Z" fill="#A27772"/>
<path opacity="0.1" d="M139.274 160.466C138.411 161.604 133.34 161.122 132.475 160.768C131.949 160.558 131.989 159.559 132.131 158.538C132.677 158.794 133.6 159.005 135.146 158.863C135.507 158.829 135.869 158.817 136.231 158.829C137.33 158.879 138.43 158.856 139.525 158.762C139.644 159.042 139.684 159.349 139.639 159.65C139.595 159.95 139.468 160.233 139.274 160.466Z" fill="black"/>
<path opacity="0.1" d="M121.575 131.626C121.919 136.104 121.504 142.997 120.125 146.714C119.288 149.077 118.936 151.585 119.091 154.087C118.608 154.506 117.937 154.565 117.202 154.447C117.622 151.541 119.393 139.017 120.528 129.122C121.822 117.853 127.872 110.102 127.872 110.102L129.078 111.428C125.784 113.155 121.575 131.626 121.575 131.626Z" fill="black"/>
<path d="M137.201 59.1927L136.362 63.3274L132.235 70.2535L127.147 68.0824C127.147 68.0824 120.222 60.8462 124.576 59.813C125.097 59.7012 125.588 59.4828 126.02 59.1718C126.874 58.5284 127.142 57.5937 127.147 56.6779C127.114 55.6533 126.876 54.6455 126.446 53.7147L135.346 50.9233C134.983 52.0915 134.771 53.3016 134.717 54.5236C134.648 56.9462 135.556 58.1386 136.289 58.7149C136.559 58.9318 136.869 59.0941 137.201 59.1927Z" fill="#FBBEBE"/>
<path opacity="0.1" d="M135.338 50.9233C134.975 52.0915 134.763 53.3016 134.709 54.5236C134.546 54.7169 134.373 54.9009 134.19 55.0748C133.271 55.9514 132.132 56.5632 130.893 56.8455C129.654 57.1277 128.362 57.0698 127.153 56.6779C127.119 55.6528 126.878 54.6451 126.446 53.7147L135.338 50.9233Z" fill="black"/>
<path d="M136.36 49.7852C136.36 51.1758 135.948 52.5354 135.174 53.6919C134.401 54.8484 133.302 55.7499 132.016 56.2823C130.729 56.8148 129.314 56.9543 127.948 56.6833C126.583 56.4122 125.328 55.7428 124.343 54.7596C123.359 53.7764 122.688 52.5236 122.416 51.1597C122.144 49.7958 122.284 48.382 122.816 47.0972C123.349 45.8123 124.251 44.7141 125.409 43.9415C126.567 43.1688 127.928 42.7564 129.32 42.7564C130.246 42.752 131.163 42.9307 132.019 43.2824C132.875 43.634 133.653 44.1515 134.307 44.8051C134.962 45.4586 135.48 46.2352 135.832 47.09C136.185 47.9448 136.364 48.8608 136.36 49.7852Z" fill="#FBBEBE"/>
<path opacity="0.1" d="M137.201 59.1926L136.362 63.3273L132.235 70.2533L127.147 68.0823C127.147 68.0823 120.222 60.846 124.576 59.8129C125.097 59.701 125.588 59.4827 126.02 59.1716C125.235 61.3259 128.475 65.8085 128.475 65.8085C128.852 66.3638 129.717 66.0181 129.717 66.0181C131.805 65.7016 135.646 59.706 136.274 58.7085C136.548 58.9293 136.863 59.0938 137.201 59.1926Z" fill="black"/>
<path opacity="0.1" d="M141.186 99.2777C139.961 99.5564 133.181 101.055 130.611 100.68C127.783 100.261 122.283 99.9923 122.283 99.9923C122.283 99.9923 118.781 100.181 117.703 99.6885C117.703 99.5585 117.703 99.4789 117.703 99.4789L119.7 97.0899C119.7 97.0899 139.021 95.6418 140.473 97.0899C140.836 97.4524 141.056 98.2613 141.186 99.2777Z" fill="black"/>
<path d="M128.473 66.0159C128.473 66.0159 124.833 60.9864 126.205 59.0165L120.055 61.5313C120.055 61.5313 116.354 61.0828 115.019 66.6006C114.806 67.5176 114.729 68.461 114.791 69.4004C114.841 70.2387 114.728 71.7056 113.777 73.5917C112.26 76.624 112.604 83.5857 115.71 84.2794C118.815 84.9731 119.917 84.6231 119.917 84.6231C119.917 84.6231 119.497 97.2346 117.709 98.6827C115.922 100.131 122.284 99.785 122.284 99.785C122.284 99.785 127.783 100.062 130.614 100.474C133.444 100.887 141.377 99.0264 141.377 99.0264C141.377 99.0264 140.204 93.7202 139.789 90.3442C139.374 86.9681 138.406 79.7759 138.406 79.7759L145.444 70.2533C145.444 70.2533 146.686 64.4987 142.338 61.9483C137.991 59.3979 136.356 58.7734 136.356 58.7734C136.356 58.7734 131.988 65.8776 129.711 66.2213C129.715 66.2213 128.851 66.5692 128.473 66.0159Z" fill="#6C63FF"/>
<path opacity="0.1" d="M120.398 68.0132C120.398 68.0132 120.331 70.289 120.745 71.1839C121.158 72.0787 122.677 77.0517 122.677 77.0517H119.226C119.226 77.0517 121.089 75.0524 120.952 74.0863C120.816 73.1202 120.398 68.0132 120.398 68.0132Z" fill="black"/>
<path d="M130.614 85.1744C130.614 85.1744 122.993 83.3135 122.284 81.7292C121.575 80.1449 119.617 76.597 119.617 76.597L120.421 75.5156L124.126 78.4202C124.126 78.4202 128.533 81.9346 130.614 82.2803C132.695 82.6261 130.614 85.1744 130.614 85.1744Z" fill="#FBBEBE"/>
<path opacity="0.05" d="M130.614 85.1744C130.614 85.1744 122.993 83.3135 122.284 81.7292C121.575 80.1449 119.617 76.597 119.617 76.597L120.421 75.5156L124.126 78.4202C124.126 78.4202 128.533 81.9346 130.614 82.2803C132.695 82.6261 130.614 85.1744 130.614 85.1744Z" fill="black"/>
<path d="M137.201 76.2153V80.3437H136.538C133.255 80.3431 130.025 81.1783 127.155 82.7705L125.908 83.4599L125.575 83.6464L123.435 78.8265L125.436 77.0347H125.539C126.028 77.0829 128.145 77.2589 129.043 76.9572C129.895 76.668 130.953 75.7522 133.462 76.3913C134.698 76.7078 135.755 78.0909 136.953 77.6592L137.201 76.2153Z" fill="#FBBEBE"/>
<path opacity="0.1" d="M143.862 68.6963L145.24 70.2471V74.0045C145.24 74.0045 144.067 85.8574 140.343 87.1672C136.619 88.477 129.965 86.4086 129.965 86.4086C129.965 86.4086 128.247 81.8611 129.05 81.5886C129.854 81.3162 136.153 79.6523 136.153 79.6523C136.153 79.6523 136.065 72.6989 137.443 70.6306C137.443 70.6306 136.547 64.153 139.653 64.0146C142.758 63.8763 143.862 68.6963 143.862 68.6963Z" fill="black"/>
<path d="M144.071 68.6963L145.451 70.2471V74.0045C145.451 74.0045 144.278 85.8574 140.552 87.1672C136.825 88.477 130.174 86.4086 130.174 86.4086C130.174 86.4086 128.456 81.8611 129.261 81.5886C130.067 81.3162 136.364 79.6523 136.364 79.6523C136.364 79.6523 136.274 72.6989 137.654 70.6306C137.654 70.6306 136.756 64.153 139.862 64.0146C142.967 63.8763 144.071 68.6963 144.071 68.6963Z" fill="#6C63FF"/>
<path opacity="0.1" d="M134.429 52.7693C134.488 52.3155 134.434 51.8539 134.271 51.426C134.076 51.0069 133.621 50.6905 133.176 50.7974C132.586 50.9357 132.337 51.7027 131.753 51.8871C131.264 52.0422 130.732 51.6964 130.494 51.2416C130.257 50.7869 130.255 50.2525 130.255 49.7411C130.255 49.1669 130.255 48.5906 130.255 48.0143C130.255 47.3857 130.234 46.7109 129.848 46.2184C129.368 45.6065 128.237 45.3382 127.481 45.3634C126.979 45.369 126.497 45.5627 126.13 45.9061C125.727 46.2498 125.259 46.5013 124.71 46.4112C124.48 46.377 124.266 46.2785 124.09 46.1271C123.915 45.9758 123.786 45.7777 123.719 45.5562V45.5352C124.305 44.7578 125.045 44.1103 125.894 43.6335C126.743 43.1568 127.682 42.8612 128.651 42.7655C129.62 42.6699 130.599 42.7761 131.525 43.0777C132.451 43.3792 133.304 43.8694 134.031 44.5173C134.757 45.1652 135.341 45.9566 135.745 46.8415C136.15 47.7264 136.366 48.6855 136.38 49.6582C136.394 50.6308 136.206 51.5958 135.828 52.492C135.449 53.3883 134.888 54.1963 134.181 54.865C134.302 54.1716 134.385 53.4719 134.429 52.7693Z" fill="black"/>
<path d="M124.711 46.2077C124.482 46.1725 124.267 46.0735 124.092 45.9218C123.916 45.7702 123.787 45.5722 123.719 45.3506C123.662 45.1285 123.677 44.8917 123.612 44.6716C123.45 44.1288 122.871 43.848 122.483 43.4352C121.707 42.6116 121.757 41.2578 122.307 40.2666C122.752 39.4682 123.612 38.7996 124.514 38.9505C125.072 39.0469 125.563 39.443 126.121 39.4807C126.679 39.5185 127.17 39.2104 127.659 38.9841C128.858 38.4405 130.206 38.3208 131.482 38.6446C131.874 38.7231 132.236 38.9064 132.531 39.1748C132.732 39.4267 132.919 39.689 133.092 39.9606C133.734 40.7779 134.886 40.9393 135.912 41.1237C136.938 41.3081 138.098 41.7147 138.43 42.6996C138.654 43.3535 138.43 44.0618 138.308 44.7408C138.267 44.8794 138.277 45.0277 138.335 45.1599C138.497 45.424 138.897 45.3129 139.2 45.3695C139.781 45.4931 139.93 46.2412 139.953 46.8364C139.977 47.5154 139.995 48.1951 140.007 48.8755C140.024 49.1286 140.004 49.3827 139.947 49.6299C139.821 49.984 139.621 50.3076 139.361 50.5792L137.082 53.314C136.071 54.5253 134.999 55.9377 135.194 57.5053C134.716 57.7148 134.145 57.3062 133.99 56.8053C133.834 56.3045 133.958 55.7575 134.065 55.2525C134.251 54.3647 134.373 53.4648 134.43 52.5596C134.49 52.1064 134.436 51.6456 134.273 51.2184C134.078 50.7993 133.622 50.4828 133.178 50.5897C132.586 50.728 132.338 51.495 131.755 51.6794C131.266 51.8345 130.733 51.4887 130.496 51.034C130.259 50.5792 130.257 50.0469 130.257 49.5356V47.8067C130.257 47.178 130.236 46.5032 129.85 46.0107C129.369 45.3988 128.238 45.1306 127.483 45.1557C126.981 45.1619 126.5 45.3555 126.134 45.6985C125.729 46.0443 125.261 46.2978 124.711 46.2077Z" fill="#7C5C5C"/>
<path opacity="0.1" d="M126.299 67.8413L128.46 76.7079C128.46 76.7079 130.164 76.6975 126.299 67.8413Z" fill="black"/>
<path opacity="0.1" d="M133.682 66.3599C133.682 66.3599 130.854 70.987 131.958 75.7734L132.484 75.8112C132.484 75.8112 131.544 73.5961 133.682 66.3599Z" fill="black"/>
<path opacity="0.1" d="M135.468 92.5485C135.468 92.5485 138.943 91.4001 139.195 94.0636C139.203 94.0636 138.548 92.2383 135.468 92.5485Z" fill="black"/>
<path opacity="0.1" d="M125.437 77.2485C125.437 77.2485 124.747 82.0685 125.989 84.0028C125.989 84.0028 123.471 85.0359 119.917 84.8305L119.497 77.2485H125.437Z" fill="black"/>
<path opacity="0.1" d="M125.908 83.4599L125.575 83.6464L123.435 78.8264L125.436 77.0347H125.539C125.508 77.2736 124.949 81.4166 125.908 83.4599Z" fill="black"/>
<path d="M125.437 77.043C125.437 77.043 124.747 81.8629 125.989 83.7951C125.989 83.7951 123.471 84.8303 119.917 84.6229L117.502 77.043H125.437Z" fill="#6C63FF"/>
<path d="M119.469 157.532C119.429 157.876 119.276 158.197 119.033 158.445C118.79 158.692 118.472 158.852 118.129 158.899C116.255 159.177 111.742 159.89 110.602 160.433C109.152 161.122 103.426 160.642 103.149 159.951C103.109 159.811 103.097 159.665 103.114 159.522C103.131 159.378 103.177 159.239 103.248 159.112C103.444 158.692 103.768 158.345 104.173 158.119C104.307 158.045 104.448 157.983 104.593 157.935C105.671 157.576 107.709 156.813 108.258 156.013C108.258 156.013 110.799 153.794 111.523 152.595C111.659 152.359 111.852 152.16 112.083 152.016C112.314 151.872 112.577 151.787 112.849 151.769C113.454 151.742 114.127 152.046 114.404 153.368C114.404 153.368 117.713 155.254 118.601 153.601C118.601 153.601 118.739 156.141 119.289 156.836C119.364 156.934 119.419 157.047 119.45 157.166C119.481 157.286 119.487 157.41 119.469 157.532Z" fill="#A27772"/>
<path opacity="0.1" d="M119.469 157.532C119.429 157.876 119.276 158.197 119.033 158.444C118.79 158.692 118.472 158.852 118.129 158.899C116.255 159.177 111.742 159.89 110.602 160.433C109.152 161.122 103.426 160.642 103.149 159.951C103.109 159.811 103.097 159.665 103.114 159.522C103.131 159.378 103.177 159.239 103.248 159.112C103.444 158.692 103.768 158.345 104.173 158.119C105.107 158.748 107.18 159.343 111.739 158.632C116.089 157.953 118.244 157.289 119.293 156.836C119.368 156.935 119.421 157.047 119.452 157.166C119.482 157.286 119.488 157.41 119.469 157.532Z" fill="black"/>
<g opacity="0.1">
<path opacity="0.1" d="M138.296 44.8377V44.8042C138.395 44.2887 138.544 43.7564 138.506 43.2388C138.462 43.6618 138.392 44.0817 138.296 44.4962C138.27 44.6085 138.27 44.7253 138.296 44.8377Z" fill="black"/>
<path opacity="0.1" d="M134.27 51.288C134.379 51.5363 134.437 51.8045 134.44 52.0759C134.471 51.7016 134.412 51.3253 134.27 50.9778C134.077 50.5587 133.621 50.2422 133.177 50.3491C132.585 50.4874 132.337 51.2544 131.752 51.4389C131.265 51.5939 130.732 51.2482 130.493 50.7934C130.254 50.3386 130.254 49.8043 130.254 49.2929C130.254 48.7166 130.254 48.1424 130.254 47.5661C130.254 46.9374 130.233 46.2626 129.847 45.7702C129.364 45.1561 128.235 44.89 127.48 44.9131C126.977 44.9195 126.495 45.1139 126.129 45.4579C125.724 45.8016 125.258 46.0531 124.706 45.963C124.477 45.9281 124.263 45.8293 124.087 45.678C123.912 45.5268 123.783 45.3292 123.716 45.1079C123.659 44.8858 123.674 44.6469 123.609 44.4269C123.447 43.8862 122.868 43.6033 122.48 43.1925C122.116 42.7893 121.909 42.2685 121.899 41.7256C121.87 42.0441 121.907 42.365 122.007 42.6688C122.107 42.9726 122.268 43.2527 122.48 43.4922C122.868 43.9113 123.447 44.1859 123.609 44.7265C123.674 44.9361 123.659 45.1855 123.716 45.4076C123.783 45.6288 123.912 45.8264 124.087 45.9777C124.263 46.129 124.477 46.2277 124.706 46.2626C125.258 46.3528 125.724 46.1013 126.129 45.7576C126.495 45.4136 126.977 45.2191 127.48 45.2127C128.235 45.1897 129.368 45.4558 129.847 46.0698C130.233 46.5623 130.252 47.2392 130.254 47.8658C130.254 48.4421 130.254 49.0163 130.254 49.5926C130.254 50.1039 130.254 50.6404 130.493 51.091C130.732 51.5415 131.259 51.8936 131.752 51.7385C132.331 51.5541 132.591 50.7871 133.177 50.6488C133.621 50.5524 134.077 50.8835 134.27 51.288Z" fill="black"/>
<path opacity="0.1" d="M139.941 49.3912C139.815 49.745 139.614 50.0679 139.354 50.3384L137.075 53.0732C136.116 54.2237 135.103 55.5565 135.187 57.0256C135.256 55.6781 136.196 54.4521 137.075 53.3834L139.354 50.6486C139.614 50.378 139.815 50.0551 139.941 49.7013C139.998 49.4535 140.019 49.1986 140.002 48.9448C139.999 49.0954 139.978 49.2452 139.941 49.3912Z" fill="black"/>
<path opacity="0.1" d="M133.998 56.5646C133.961 56.4448 133.937 56.321 133.929 56.1958C133.91 56.4245 133.933 56.6547 133.998 56.8748C134.153 57.3735 134.722 57.7864 135.202 57.5726C135.189 57.4725 135.18 57.3718 135.177 57.2709C134.699 57.4616 134.145 57.055 133.998 56.5646Z" fill="black"/>
</g>
<path opacity="0.1" d="M111.065 153.226C111.065 153.226 111.787 154.483 114.401 153.376L111.065 153.226Z" fill="black"/>
<path opacity="0.1" d="M133.16 153.532C133.16 153.532 135.414 156.183 138.255 154.401L133.16 153.532Z" fill="black"/>
<path opacity="0.1" d="M139.719 122.183C139.719 122.183 138.127 123.176 138.076 123.744C138.026 124.312 138.899 123.325 138.899 123.325L139.719 122.183Z" fill="black"/>
<path opacity="0.1" d="M140.349 129.803C139.795 130.263 139.107 130.531 138.387 130.568C137.195 130.62 137.296 132.171 138.074 131.706C138.853 131.24 140.349 129.803 140.349 129.803Z" fill="black"/>
<path opacity="0.1" d="M140.651 130.798C140.651 130.798 139.888 134.547 139.267 133.824L140.651 130.798Z" fill="black"/>
<defs>
<linearGradient id="paint0_linear" x1="48.1382" y1="140.88" x2="48.1382" y2="17.0095" gradientUnits="userSpaceOnUse">
<stop stop-color="#808080" stop-opacity="0.25"/>
<stop offset="0.54" stop-color="#808080" stop-opacity="0.12"/>
<stop offset="1" stop-color="#808080" stop-opacity="0.1"/>
</linearGradient>
<linearGradient id="paint1_linear" x1="28847.2" y1="100112" x2="28847.2" y2="21927.4" gradientUnits="userSpaceOnUse">
<stop stop-color="#808080" stop-opacity="0.25"/>
<stop offset="0.54" stop-color="#808080" stop-opacity="0.12"/>
<stop offset="1" stop-color="#808080" stop-opacity="0.1"/>
</linearGradient>
<linearGradient id="paint2_linear" x1="38259.9" y1="101916" x2="38259.9" y2="29560.5" gradientUnits="userSpaceOnUse">
<stop stop-color="#808080" stop-opacity="0.25"/>
<stop offset="0.54" stop-color="#808080" stop-opacity="0.12"/>
<stop offset="1" stop-color="#808080" stop-opacity="0.1"/>
</linearGradient>
</defs>
</svg>
