<svg width="180" height="180" viewBox="0 0 180 180" fill="none" xmlns="http://www.w3.org/2000/svg">
<path d="M148.383 95.8951C151.903 86.9585 153.339 77.3276 152.581 67.7441C151.823 58.1605 148.891 48.88 144.01 40.6172L44.3403 54.514L139.856 34.469C134.045 26.8507 126.571 20.6812 118.012 16.4381C109.453 12.195 100.039 9.99212 90.4997 10C56.1042 10 28.2212 38.0776 28.2212 72.7131C28.2219 75.5756 28.4155 78.4348 28.8008 81.2709L148.383 95.8951Z" fill="#F1F0FF"/>
<path d="M32.3828 95.2925C41.3846 118.77 64.0084 135.426 90.4985 135.426C115.356 135.426 136.809 120.76 146.797 99.5542L32.3828 95.2925Z" fill="#F1F0FF"/>
<path d="M84.1494 57.4655C84.1494 57.4655 92.209 53.9291 95.9945 57.6648C99.7801 61.4004 85.859 60.1707 84.1494 57.4655Z" fill="#3F3D56"/>
<path d="M98.0667 40.6936C95.3582 36.0852 89.9997 35.8704 89.9997 35.8704C89.9997 35.8704 84.7782 35.198 81.4286 42.2167C78.3065 48.7586 73.9977 55.075 80.7349 56.6065L81.9519 52.7924L82.7055 56.8904C83.6648 56.9599 84.6271 56.9765 85.5881 56.94C92.8032 56.7055 99.6744 57.0087 99.4532 54.4015C99.1591 50.9357 100.673 45.1278 98.0667 40.6936Z" fill="#2F2E41"/>
<path d="M90.6212 111.079C98.1747 111.079 104.298 109.647 104.298 107.882C104.298 106.116 98.1747 104.685 90.6212 104.685C83.0677 104.685 76.9443 106.116 76.9443 107.882C76.9443 109.647 83.0677 111.079 90.6212 111.079Z" fill="#3F3D56"/>
<path d="M101.593 147.11L88.4043 148.092L88.4403 148.582L101.629 147.6L101.593 147.11Z" fill="#2F2E41"/>
<path d="M79.7495 145.417L79.5142 145.848L84.3987 148.553L84.6341 148.122L79.7495 145.417Z" fill="#2F2E41"/>
<path d="M93.5524 143.665H89.1562V144.157H93.5524V143.665Z" fill="#2F2E41"/>
<path d="M77.676 169.996L77.1885 169.963L80.8519 112.906L81.3394 112.94L77.676 169.996Z" fill="#2F2E41"/>
<path d="M95.7499 169.992L93.3076 113.919L93.7956 113.895L96.2379 169.968L95.7499 169.992Z" fill="#2F2E41"/>
<path d="M100.634 113.395L100.147 113.436L104.788 170L105.275 169.96L100.634 113.395Z" fill="#2F2E41"/>
<path d="M101.854 124.236C101.854 124.236 98.4352 130.631 96.2371 130.631C94.0391 130.631 94.2833 134.811 94.7717 135.795C95.2602 136.779 96.4813 138.992 94.5275 142.189C93.845 143.306 93.9671 144.573 94.415 145.749C95.6698 149.043 100.551 148.045 100.395 144.52C100.394 144.481 100.391 144.442 100.389 144.403C100.145 140.468 102.099 134.32 104.052 132.844C106.006 131.368 107.716 127.433 107.716 127.433L101.854 124.236Z" fill="#FBB7B7"/>
<path d="M78.4089 122.76C78.4089 122.76 81.8281 129.155 84.0261 129.155C86.2242 129.155 85.98 133.335 85.4915 134.319C85.0031 135.303 83.7819 137.516 85.7357 140.713C86.4182 141.83 86.2961 143.097 85.8483 144.273C84.5935 147.567 79.7123 146.569 79.868 143.044C79.8697 143.005 79.8718 142.966 79.8742 142.927C80.1185 138.992 78.1646 132.844 76.2108 131.368C74.257 129.892 72.5474 125.957 72.5474 125.957L78.4089 122.76Z" fill="#FBB7B7"/>
<path d="M81.0961 91.281L79.6307 94.4781C79.6307 94.4781 58.1385 101.61 60.0924 109.972C62.0462 118.334 71.5712 131.368 73.0365 130.876C74.5019 130.384 82.3172 128.909 82.5615 124.728C82.8057 120.547 76.9442 113.169 76.9442 113.169L85.0038 105.791L96.7317 105.545L106.74 113.169C106.74 113.169 96.2383 122.514 100.879 126.203C105.519 129.892 112.357 132.352 113.334 130.876C114.311 129.401 125.302 107.513 123.592 105.545C121.882 103.578 104.542 96.1996 104.542 96.1996L99.9017 89.5594L81.8288 88.5757L81.0961 91.281Z" fill="#2F2E41"/>
<path d="M85.4925 50.7019C85.4925 50.7019 86.7137 58.8177 84.2714 59.8015C81.8291 60.7852 89.156 64.9661 89.156 64.9661H93.3079L95.9944 59.3096C95.9944 59.3096 93.5521 54.8828 95.0175 50.7019C96.4828 46.521 85.4925 50.7019 85.4925 50.7019Z" fill="#FFB8B8"/>
<path opacity="0.1" d="M85.4925 50.7019C85.4925 50.7019 86.7137 58.8177 84.2714 59.8015C81.8291 60.7852 89.156 64.9661 89.156 64.9661H93.3079L95.9944 59.3096C95.9944 59.3096 93.5521 54.8828 95.0175 50.7019C96.4828 46.521 85.4925 50.7019 85.4925 50.7019Z" fill="#C5AAAA"/>
<path d="M83.7821 57.5879C83.7821 57.5879 86.4687 60.5391 86.9571 61.031C87.4456 61.5228 89.6436 64.2281 94.284 60.2932C98.9244 56.3582 99.4128 61.031 99.4128 61.031V90.543C99.4128 90.543 95.5051 88.8215 92.3302 90.543C89.1552 92.2645 82.561 90.0511 82.561 90.0511L81.3398 59.5554L83.7821 57.5879Z" fill="#D0CDE1"/>
<path d="M85.5777 57.5881C85.5777 57.5881 83.2952 56.6044 81.3414 57.5881C79.3876 58.5718 72.5491 63.4905 73.0376 65.7039C73.5261 67.9173 79.876 83.4111 75.4799 90.7891C71.0838 98.1671 70.3511 100.135 70.3511 100.135L81.0972 94.4781C81.0972 94.4781 89.401 89.3135 88.6683 86.1164C87.9356 82.9193 85.5777 57.5881 85.5777 57.5881Z" fill="#3F3D56"/>
<path d="M95.2658 57.5879C95.2658 57.5879 100.392 58.0798 100.636 58.5716C100.88 59.0635 108.329 61.1539 107.841 63.3673C107.352 65.5807 100.636 85.3784 103.567 89.0674C106.497 92.7564 111.382 97.921 109.672 98.4129C107.963 98.9047 105.032 97.6751 102.101 98.4129C99.1705 99.1507 92.3321 93.0023 93.0648 86.3621C93.7975 79.7219 93.0706 59.3094 95.2658 57.5879Z" fill="#3F3D56"/>
<path d="M83.0508 104.562V107.021C83.0508 107.021 81.8296 112.678 85.7373 112.432C89.645 112.186 87.2027 105.545 87.2027 105.545L86.9584 103.332L83.0508 104.562Z" fill="#FBBEBE"/>
<path d="M94.0417 104.808C94.0417 104.808 91.3551 110.464 94.0417 110.956C96.7282 111.448 98.682 107.759 98.682 106.775C98.682 105.791 94.0417 104.808 94.0417 104.808Z" fill="#FBBEBE"/>
<path d="M85.2497 169.986L84.7612 169.974L86.2266 113.409L86.7151 113.421L85.2497 169.986Z" fill="#2F2E41"/>
<path d="M97.5827 48.3659C97.8525 48.3659 98.0712 47.9255 98.0712 47.3822C98.0712 46.8389 97.8525 46.3984 97.5827 46.3984C97.3129 46.3984 97.0942 46.8389 97.0942 47.3822C97.0942 47.9255 97.3129 48.3659 97.5827 48.3659Z" fill="#FFB8B8"/>
<path d="M83.1716 48.3659C83.4413 48.3659 83.66 47.9255 83.66 47.3822C83.66 46.8389 83.4413 46.3984 83.1716 46.3984C82.9018 46.3984 82.6831 46.8389 82.6831 47.3822C82.6831 47.9255 82.9018 48.3659 83.1716 48.3659Z" fill="#FFB8B8"/>
<path d="M101.856 60.7852C101.856 60.7852 107.961 60.7852 107.717 63.2445C107.473 65.7038 99.4134 108.004 99.4134 108.004C99.4134 108.004 95.9942 104.807 93.0635 105.545L101.856 60.7852Z" fill="#3F3D56"/>
<path d="M78.1648 61.5229C78.1648 61.5229 72.0591 62.7526 72.0591 66.4416C72.0591 70.1306 80.8513 105.545 82.0725 105.545C83.2936 105.545 87.934 104.807 87.934 103.578C87.934 102.348 78.1648 61.5229 78.1648 61.5229Z" fill="#3F3D56"/>
<path opacity="0.2" d="M79.5083 68.7783L85.0035 90.4183C85.0035 90.4183 82.439 71.4836 79.5083 68.7783Z" fill="black"/>
<path opacity="0.2" d="M100.883 65.7373L95.3257 94.0304C95.3257 94.0304 97.1019 67.3694 100.883 65.7373Z" fill="black"/>
<path d="M90.3771 54.6372C94.2887 54.6372 97.4597 51.4441 97.4597 47.5051C97.4597 43.5662 94.2887 40.373 90.3771 40.373C86.4654 40.373 83.2944 43.5662 83.2944 47.5051C83.2944 51.4441 86.4654 54.6372 90.3771 54.6372Z" fill="#FBBEBE"/>
<path d="M96.8699 40.2494L91.576 37.457L84.2654 38.5994L82.7529 45.3264L86.518 45.1806L87.5699 42.7092V45.14L89.3073 45.0726L90.3155 41.1379L90.9458 45.3264L97.1222 45.1995L96.8699 40.2494Z" fill="#2F2E41"/>
</svg>
