<svg width="180" height="180" viewBox="0 0 180 180" fill="none" xmlns="http://www.w3.org/2000/svg">
<path opacity="0.1" fill-rule="evenodd" clip-rule="evenodd" d="M71.558 29.1857C82.052 32.9568 93.0434 36.4048 104.582 36.7749C114.772 37.1029 126.657 34.6516 133.421 28.2864C139.988 22.0982 152.337 21.6306 161.24 25.3644C169.212 28.7101 174.541 35.5621 174.824 42.6202L133.466 49.5906L173.571 49.5906C171.514 54.9067 167.249 59.7089 162.972 64.5252C160.5 67.3088 158.024 70.0971 155.967 72.9921C152.791 77.4628 150.537 82.8377 152.728 87.6623C154.836 92.3111 160.251 95.0645 165.718 97.8449C170.555 100.305 175.434 102.785 178.101 106.618C181.49 111.485 180.238 118.06 175.179 121.941C171.198 125 165.532 126.266 160.045 127.064C150.155 128.503 140.075 128.78 130.03 129.056L129.87 129.061C102.773 129.801 75.6183 130.543 48.6091 128.827C36.3731 128.053 23.8312 126.686 13.1891 121.91C7.94851 119.556 3.11207 116.216 1.08186 111.764C-0.964447 107.274 0.115863 102.229 2.4568 97.8278C2.61979 97.5214 2.78849 97.2172 2.96233 96.9149L57.7841 94.0794L9.64506 87.599C10.2224 86.8514 10.7937 86.1016 11.3488 85.3458C17.8162 76.531 22.0344 65.398 16.0661 56.3689C15.3519 55.2882 14.5049 54.2625 13.6587 53.2378C12.4735 51.8025 11.2899 50.3692 10.4746 48.7894C8.46371 44.8869 8.89519 40.5006 9.62935 36.3334C10.605 30.7929 12.4211 24.8222 18.0368 21.3644C23.8746 17.7768 32.1581 17.9521 39.4031 19.2378C48.9599 20.9292 57.8932 24.1972 66.791 27.4522C68.38 28.0335 69.9679 28.6143 71.558 29.1857Z" fill="#6C63FF"/>
<path opacity="0.1" d="M89.4334 162.602C102.771 162.602 113.583 160.842 113.583 158.671C113.583 156.499 102.771 154.739 89.4334 154.739C76.0959 154.739 65.2837 156.499 65.2837 158.671C65.2837 160.842 76.0959 162.602 89.4334 162.602Z" fill="#6C63FF"/>
<path d="M62.1211 98.229C62.1211 98.229 64.3676 99.1425 67.1252 100.238C67.2197 100.553 67.2922 100.875 67.3424 101.2C67.391 101.836 68.6528 102.733 68.6528 102.733C68.6528 102.733 70.9929 103.156 72.7545 103.652C74.123 104.027 74.3121 103.278 74.1361 102.986L74.5461 103.143C74.6378 106.932 74.7427 109.695 74.7427 109.695C74.7427 109.695 75.3417 109.695 76.2871 109.74C76.2984 109.86 76.3096 109.984 76.3227 110.115C76.684 113.859 77.3486 120.037 77.8634 120.55C78.6122 121.274 78.2809 126.613 77.9926 127.557C77.7043 128.5 77.9926 135.29 77.9926 135.29C77.9926 135.29 79.1514 139.439 79.054 143.966C78.9567 148.492 80.3083 150.851 80.3083 150.851L80.7932 150.887C80.7932 151.012 80.7782 151.136 80.7726 151.261C80.7501 151.671 80.7333 152.081 80.7277 152.454C80.6976 153.022 80.5024 153.57 80.1661 154.03C79.39 155.139 78.855 156.399 78.5954 157.727C78.5387 158.024 78.4987 158.324 78.4756 158.626C78.4756 158.701 78.4662 158.742 78.4662 158.742C78.4662 158.742 78.9155 160.064 83.1314 160.504C87.3473 160.943 86.737 157.894 86.737 157.894C86.737 157.894 86.7576 157.808 86.7838 157.65C86.9683 156.619 86.974 155.564 86.8007 154.532C86.6528 153.727 86.7801 152.334 86.9636 151.057C86.9823 150.924 87.0029 150.793 87.0216 150.664C87.3743 150.59 87.7055 150.436 87.9895 150.215C89.3093 149.011 87.9895 139.441 87.9895 139.441C87.9895 139.441 85.6082 131.614 86.1885 130.481C86.7689 129.348 87.4428 126.615 87.4428 126.615V117.09C88.3788 115.579 88.8001 113.513 88.9742 111.631C88.9854 111.506 88.9966 111.382 89.006 111.257C89.7866 111.272 90.5355 111.244 91.215 111.197L91.4022 111.571C92.5068 113.711 93.63 115.83 93.9052 116.143C94.4837 116.804 94.0007 119.821 93.9052 121.33C93.8097 122.839 94.9667 125.857 94.9667 125.857C93.5196 126.705 93.2294 136.702 93.2294 136.702C93.2294 136.702 94.2909 139.154 92.0706 141.889C89.8503 144.625 90.7189 149.812 91.0091 149.623C91.0859 149.572 91.5558 149.649 92.2241 149.76C92.1027 150.208 91.8856 150.624 91.5876 150.98C90.8706 151.871 90.6253 153.268 90.5542 154.384C90.5124 154.965 90.5124 155.549 90.5542 156.13L92.1623 157.254C92.1623 157.254 93.1601 157.254 93.1601 158.135C93.1601 159.017 95.605 159.895 95.605 159.895C95.605 159.895 99.2406 160.9 102.041 159.895C102.949 159.569 103.226 159.01 103.12 158.33C102.899 156.909 100.998 154.96 99.6281 153.545C98.7033 152.585 98.2821 151.312 98.0949 150.209C98.0743 150.091 98.0575 149.975 98.0425 149.861C98.1553 149.797 98.2561 149.714 98.3401 149.616C99.499 148.2 100.753 144.334 100.753 144.334C100.753 144.334 100.18 140.384 101.435 136.794C102.371 134.137 103.507 127.911 104.035 124.861C104.228 123.755 104.263 122.626 104.14 121.51C103.896 119.284 103.522 115.16 103.655 111.895C103.7 110.83 103.668 109.136 103.595 107.149V107.121C104.282 105.824 105.772 103.707 108.258 103.533C111.862 103.28 109.996 101.301 109.996 101.301C109.996 101.301 107.882 86.4499 106.489 83.814C106.468 83.768 106.444 83.7236 106.416 83.6811C106.21 83.3535 105.986 82.6982 105.748 81.824C104.376 76.76 102.62 64.2845 102.62 64.2845L102.404 61.2499C104.554 62.3039 108.541 64.2265 110.149 64.7881C112.396 65.5744 115.522 65.0708 116.295 62.4929C117.068 59.9151 113.85 54.6976 113.85 54.6976C113.377 52.848 110.106 48.9972 108.404 47.0858C108.24 46.8368 108.077 46.5897 107.918 46.3538C107.48 45.7004 107.085 45.1238 106.834 44.785L106.809 44.8318C106.748 44.7457 106.69 44.6652 106.639 44.5978L106.598 44.6801C105.989 43.5569 105.306 42.4018 104.776 41.7822C103.545 40.3444 98.1717 38.7981 97.64 39.2231C97.2525 39.5319 98.8606 40.8798 99.9857 41.7073L98.9111 40.9809L96.5093 38.9029L95.4515 38.1878C95.4075 38.158 95.3612 38.1317 95.313 38.1092C95.5883 37.0278 95.6216 35.8991 95.4106 34.8034C95.1996 33.7077 94.7496 32.6721 94.0924 31.7703C94.0175 31.6674 93.937 31.5644 93.8565 31.4652C94.9629 30.5441 95.313 29.0221 95.313 27.6836V27.633C95.2312 27.1314 95.0085 26.6633 94.6709 26.2833C94.6877 26.317 94.7046 26.3544 94.7196 26.39C94.526 26.1423 94.2809 25.9395 94.0013 25.7957C93.7218 25.6518 93.4143 25.5704 93.1002 25.5569C92.1642 25.5419 91.3798 26.156 90.5579 26.5772C89.7125 27.0007 88.7855 27.2366 87.8405 27.2689C86.8954 27.3012 85.9546 27.1291 85.0821 26.7644C84.5748 26.5472 84.0637 26.2589 83.5133 26.3039C82.9629 26.3488 82.5267 26.7026 82.1523 27.0714C81.252 27.9392 80.5441 28.9865 80.0743 30.1454C79.9358 30.4842 79.8122 30.8455 79.5445 31.1001C79.3407 31.2665 79.1198 31.4108 78.8856 31.5307C78.482 31.7878 78.1347 32.1241 77.8647 32.5193C77.5948 32.9144 77.4077 33.3601 77.3149 33.8296C77.1402 34.7642 77.2383 35.7293 77.5976 36.6096C77.8147 37.219 78.1696 37.77 78.6347 38.2196C78.9848 38.5435 79.4041 38.7812 79.7748 39.0864C79.9431 39.2235 80.1002 39.3737 80.2447 39.5357C78.561 39.9083 77.0217 40.7616 75.8135 41.9918C74.9057 42.869 74.1469 43.8883 73.567 45.0096C72.0001 47.9544 71.0491 49.7872 70.4837 50.9497C70.201 51.0358 70.0269 51.077 70.0269 51.077C70.0269 51.077 67.904 52.9622 67.9358 58.3688L66.294 69.1819V74.7138C66.294 74.7138 64.1804 80.7176 64.5267 85.6861C64.5267 85.7535 64.5268 85.819 64.5399 85.8845L64.3676 86.7288C64.1025 87.0901 63.9702 87.5318 63.9932 87.9794C63.9825 88.1324 63.9938 88.2863 64.0269 88.4361L63.1658 92.6895L63.3286 92.8617L62.8849 94.1104C61.2132 96.7818 62.1211 98.229 62.1211 98.229ZM74.5367 67.9014C74.6434 67.9744 74.7034 68.0118 74.7034 68.0118C74.7034 68.0118 75.6394 76.3931 75.0778 81.3765L73.1065 81.2418L72.1704 80.9535L72.5055 78.2895C72.5055 78.2895 73.7055 71.2711 74.5292 67.9014H74.5367ZM82.2834 43.5738L82.4706 43.2854C82.4313 43.3884 82.392 43.4895 82.3508 43.5831L82.2834 43.5738ZM73.3854 81.3354L74.4057 81.4402L75.0516 81.575C75.0403 81.6648 75.0291 81.7528 75.0179 81.839L73.3854 81.3354ZM95.313 45.0995C95.3125 45.0062 95.3062 44.9131 95.2943 44.8206L96.0955 45.2961L96.1442 45.326C95.8671 45.2455 95.5826 45.1744 95.313 45.1089V45.0995ZM101.532 48.8062C101.422 48.6336 101.303 48.4668 101.176 48.3064C101.738 48.4411 102.086 48.5198 102.086 48.5198C102.534 48.4419 102.995 48.4885 103.419 48.6546C103.556 48.9335 103.711 49.2036 103.881 49.4633L105.36 52.3276C105.36 52.3276 105.038 52.3594 104.394 52.0449C103.75 51.7304 101.532 48.8062 101.532 48.8062ZM73.4341 102.722L73.8965 102.909C73.7935 102.941 73.6288 102.866 73.4341 102.722Z" fill="url(#paint0_linear)"/>
<path d="M89.4526 41.1851C90.048 41.5351 90.0667 43.0309 89.9749 44.2309C89.9094 45.1089 89.7877 45.8278 89.7877 45.8278L93.6611 55.2443C93.6611 55.2443 95.0969 48.5348 95.1194 45.5395C95.1211 45.3032 95.0851 45.0681 95.0127 44.8431C94.3369 42.6846 90.5403 41.4865 89.4526 41.1851Z" fill="#67647E"/>
<path d="M89.1738 41.1099C89.1738 41.1099 89.2787 41.1342 89.4602 41.1848C89.3732 41.1346 89.2743 41.1088 89.1738 41.1099Z" fill="#67647E"/>
<path d="M90.516 155.743L92.0755 156.866C92.0755 156.866 93.0433 156.866 93.0433 157.74C93.0433 158.615 95.4134 159.487 95.4134 159.487C95.4134 159.487 98.9404 160.485 101.655 159.487C102.535 159.163 102.804 158.609 102.701 157.933C102.486 156.524 100.642 154.597 99.3148 153.184C98.4181 152.231 98.0043 150.967 97.8283 149.874C97.6986 149.092 97.6634 148.297 97.7235 147.506L92.0137 147.1C92.3407 147.961 92.3407 148.913 92.0137 149.775C91.8889 150.083 91.7206 150.372 91.5138 150.632C90.8174 151.516 90.5778 152.903 90.5104 154.002C90.4713 154.582 90.4732 155.163 90.516 155.743Z" fill="#67647E"/>
<path d="M78.7827 158.332C78.7827 158.332 79.2189 159.642 83.3075 160.08C87.3961 160.518 86.8027 157.489 86.8027 157.489C86.8027 157.489 86.8233 157.403 86.8495 157.248C87.0272 156.224 87.0322 155.177 86.8645 154.151C86.7222 153.354 86.8457 151.97 87.0236 150.703C87.2333 149.194 87.5197 147.848 87.5197 147.848L81.1846 148.316C81.1846 148.316 81.0741 149.606 81.0105 150.909C80.9899 151.315 80.973 151.721 80.9674 152.092C80.938 152.655 80.7483 153.197 80.4208 153.655C79.6708 154.762 79.1559 156.011 78.9081 157.325C78.8535 157.619 78.8147 157.917 78.7921 158.216C78.7827 158.291 78.7827 158.332 78.7827 158.332Z" fill="#67647E"/>
<path d="M90.5168 155.743L92.0762 156.866C92.0762 156.866 93.0441 156.866 93.0441 157.74C93.0441 158.615 95.4141 159.487 95.4141 159.487C95.4141 159.487 98.9411 160.485 101.656 159.487C102.535 159.163 102.805 158.609 102.702 157.933C102.618 157.933 102.537 157.944 102.47 157.946C101.358 157.982 100.276 158.281 99.1695 158.381C98.5391 158.427 97.9065 158.437 97.2749 158.411C96.9616 158.408 96.6488 158.384 96.3389 158.338C95.5901 158.205 94.8955 157.817 94.2272 157.437C94.0638 157.36 93.9198 157.248 93.806 157.108C93.716 156.952 93.6527 156.782 93.6188 156.606C93.3829 155.76 92.7239 155.082 91.9676 154.636C91.5073 154.375 91.0195 154.164 90.513 154.009C90.4736 154.586 90.4749 155.166 90.5168 155.743Z" fill="#67647E"/>
<path d="M78.7827 158.332C78.7827 158.332 79.2189 159.642 83.3075 160.08C87.3961 160.519 86.8027 157.49 86.8027 157.49C86.8027 157.49 86.8233 157.403 86.8495 157.248C86.6623 157.345 86.5031 157.435 86.4301 157.476C86.0557 157.695 85.7206 157.997 85.3312 158.201C84.3952 158.693 83.272 158.547 82.2161 158.388C81.72 158.313 81.2239 158.238 80.7297 158.147C80.3529 158.095 79.9862 157.986 79.642 157.825C79.3863 157.676 79.1411 157.509 78.9081 157.327C78.8535 157.621 78.8147 157.919 78.7921 158.218C78.7827 158.291 78.7827 158.332 78.7827 158.332Z" fill="#67647E"/>
<path opacity="0.1" d="M90.5168 155.743L92.0762 156.866C92.0762 156.866 93.0441 156.866 93.0441 157.74C93.0441 158.615 95.4141 159.487 95.4141 159.487C95.4141 159.487 98.9411 160.485 101.656 159.487C102.535 159.163 102.805 158.609 102.702 157.933C102.618 157.933 102.537 157.944 102.47 157.946C101.358 157.982 100.276 158.281 99.1695 158.381C98.5391 158.427 97.9065 158.437 97.2749 158.411C96.9616 158.408 96.6488 158.384 96.3389 158.338C95.5901 158.205 94.8955 157.817 94.2272 157.437C94.0638 157.36 93.9198 157.248 93.806 157.108C93.716 156.952 93.6527 156.782 93.6188 156.606C93.3829 155.76 92.7239 155.082 91.9676 154.636C91.5073 154.375 91.0195 154.164 90.513 154.009C90.4736 154.586 90.4749 155.166 90.5168 155.743Z" fill="black"/>
<path opacity="0.1" d="M78.7827 158.332C78.7827 158.332 79.2189 159.642 83.3075 160.08C87.3961 160.519 86.8027 157.49 86.8027 157.49C86.8027 157.49 86.8233 157.403 86.8495 157.248C86.6623 157.345 86.5031 157.435 86.4301 157.476C86.0557 157.695 85.7206 157.997 85.3312 158.201C84.3952 158.693 83.272 158.547 82.2161 158.388C81.72 158.313 81.2239 158.238 80.7297 158.147C80.3529 158.095 79.9862 157.986 79.642 157.825C79.3863 157.676 79.1411 157.509 78.9081 157.327C78.8535 157.621 78.8147 157.919 78.7921 158.218C78.7827 158.291 78.7827 158.332 78.7827 158.332Z" fill="black"/>
<path opacity="0.1" d="M92.0151 147.1C92.3421 147.961 92.3421 148.913 92.0151 149.775C93.6532 150.054 96.7066 150.617 97.8298 149.874C97.7 149.092 97.6648 148.297 97.725 147.506L92.0151 147.1Z" fill="black"/>
<path opacity="0.1" d="M81.0122 150.909C82.1691 150.991 85.2824 151.154 87.0253 150.703C87.235 149.194 87.5214 147.848 87.5214 147.848L81.1863 148.316C81.1863 148.316 81.0759 149.606 81.0122 150.909Z" fill="black"/>
<path d="M76.4438 107.256C76.4438 107.256 76.5412 108.426 76.6966 110.064C77.0467 113.782 77.6925 119.921 78.1942 120.42C78.9131 121.141 78.6005 126.439 78.3197 127.375C78.0389 128.311 78.3197 135.051 78.3197 135.051C79.0263 137.866 79.3723 140.76 79.3493 143.662C79.2557 148.155 80.5662 150.495 80.5662 150.495C80.5662 150.495 86.744 151.057 88.0226 149.862C89.3012 148.668 88.0226 139.169 88.0226 139.169C88.0226 139.169 85.7087 131.406 86.2704 130.282C86.832 129.159 87.4872 126.445 87.4872 126.445V116.991C88.3952 115.493 88.7977 113.434 88.9718 111.573C89.1103 109.981 89.1147 108.38 88.9849 106.788C88.9849 106.788 90.1474 109.165 91.3324 111.517C92.4033 113.642 93.4928 115.744 93.7661 116.055C94.3278 116.71 93.8597 119.705 93.7661 121.203C93.6725 122.701 94.7958 125.696 94.7958 125.696C93.3917 126.538 93.1109 136.46 93.1109 136.46C93.1109 136.46 94.1406 138.894 91.9877 141.609C89.8348 144.323 90.6772 149.471 90.958 149.284C91.2388 149.097 96.9487 150.688 98.0719 149.284C99.1952 147.88 100.412 144.042 100.412 144.042C100.412 144.042 99.8504 140.111 101.067 136.554C101.97 133.918 103.076 127.738 103.589 124.711C103.773 123.612 103.804 122.494 103.681 121.386C103.445 119.175 103.082 115.083 103.211 111.839C103.254 110.781 103.224 109.1 103.153 107.129C102.911 100.37 102.181 90.2163 102.181 90.2163L97.1078 86.7792L93.7587 84.5103L92.9387 84.6357L77.6588 86.9964L77.0654 94.5333L76.4438 107.256Z" fill="#444053"/>
<path opacity="0.1" d="M97.1118 86.7832L97.3795 88.2547C97.3795 88.2547 99.626 99.0191 100.094 104.542C100.562 110.064 102.528 108.473 102.528 108.473C102.699 108.009 102.91 107.561 103.157 107.133C102.915 100.374 102.185 90.2203 102.185 90.2203L97.1118 86.7832Z" fill="black"/>
<path d="M81.062 45.9456C81.062 45.9456 91.5456 54.3381 89.6099 52.6532C88.5503 51.7284 89.2711 47.7858 90.1397 44.4161C90.8548 41.6361 91.6692 39.2436 91.6692 39.2436C91.6692 39.2436 82.5185 30.6826 83.1831 37.6822C83.4171 40.1496 83.2224 41.9038 82.8723 43.1431C82.2302 45.4139 81.062 45.9456 81.062 45.9456Z" fill="#EFB7B9"/>
<path opacity="0.1" d="M81.9346 43.7144L88.5805 48.9094L90.5143 46.7565C90.5143 46.7565 92.1693 46.0395 92.2928 46.8501C92.4164 47.6607 92.8863 52.6535 91.9184 53.1215C90.9505 53.5895 89.7037 53.9022 88.6123 53.7468C87.5209 53.5914 86.3022 52.3727 85.4916 51.9047C84.681 51.4367 81.6856 49.003 81.6856 49.003L80.188 46.9137L81.9346 43.7144Z" fill="black"/>
<path d="M81.9346 43.9014L88.5805 49.0964L90.5143 46.9435C90.5143 46.9435 92.1693 46.2265 92.2928 47.0371C92.4164 47.8477 92.8863 52.8405 91.9184 53.3085C90.9505 53.7766 89.7037 54.0892 88.6123 53.9338C87.5209 53.7784 86.3022 52.5597 85.4916 52.0917C84.681 51.6237 81.6856 49.19 81.6856 49.19L80.188 47.1007L81.9346 43.9014Z" fill="#A36468"/>
<path opacity="0.1" d="M76.4438 107.256C76.4438 107.256 76.5412 108.426 76.6966 110.064C78.7559 110.143 82.7509 110.386 85.5552 111.12C86.6743 111.397 87.821 111.547 88.9736 111.568C89.1122 109.976 89.1166 108.375 88.9867 106.783C88.9867 106.783 90.1493 109.16 91.3343 111.511C92.3479 111.443 93.3564 111.312 94.354 111.12L93.1053 94.895C93.1053 94.895 93.1465 89.4491 92.9406 84.6304L77.6588 86.9967L77.0654 94.5336L76.4438 107.256Z" fill="black"/>
<path opacity="0.1" d="M87.9257 48.4729C87.9257 48.4729 83.3859 43.5101 82.3095 44.2982C81.233 45.0864 80.5366 47.0071 80.5366 47.0071L84.234 51.062L87.9257 48.4729Z" fill="black"/>
<path d="M87.7377 48.2859C87.7377 48.2859 83.1979 43.3231 82.1215 44.1112C81.0451 44.8993 80.3486 46.8201 80.3486 46.8201L84.046 50.875L87.7377 48.2859Z" fill="#A36468"/>
<path opacity="0.1" d="M91.512 51.4664L88.8911 48.1809C88.8911 48.1809 89.303 45.0752 90.2615 45.472C91.22 45.8689 91.512 47.4583 91.512 47.4583V51.4664Z" fill="black"/>
<path d="M91.6996 51.2491L89.0918 47.9637C89.0918 47.9637 89.5037 44.8579 90.4622 45.2548C91.4207 45.6516 91.6996 47.241 91.6996 47.241V51.2491Z" fill="#A36468"/>
<path opacity="0.1" d="M79.6878 45.3521C79.6878 45.3521 85.0625 51.1555 88.2713 51.5449C88.5614 51.5804 88.8516 51.6291 89.138 51.6871C89.9767 51.8519 91.8039 51.6871 91.5137 46.889L91.9181 46.0391L94.4154 47.5686L95.2578 54.4316L96.7555 72.0291L98.9702 91.6241C98.9702 91.6241 92.1689 90.9689 90.265 92.6856C88.3611 94.4023 87.8313 83.3252 87.8313 83.3252L82.6213 60.8603L77.0669 46.4135L79.6878 45.3521Z" fill="black"/>
<path opacity="0.1" d="M77.0669 47.1623L82.6213 61.6091L87.8313 84.074C87.8313 84.074 88.363 95.1492 90.265 93.4343C90.8865 92.8727 92.0323 92.5657 93.2922 92.4066C94.8414 92.2393 96.4021 92.2042 97.9574 92.3017C98.5789 92.3354 98.9702 92.3729 98.9702 92.3729L96.7536 72.7779L95.256 55.1804L94.4135 48.3174L91.9181 46.7879L91.5118 47.6378C91.5118 47.7632 91.5249 47.8868 91.5305 48.0122C91.7065 52.4453 89.9524 52.6025 89.138 52.4415C88.8497 52.3835 88.5614 52.3348 88.2694 52.2993C85.9967 52.0203 82.6382 49.0306 80.8728 47.3121C80.1446 46.6007 79.6859 46.1064 79.6859 46.1064L77.0669 47.1623Z" fill="black"/>
<path d="M77.0669 46.6008L82.6213 61.0476L87.8313 83.5125C87.8313 83.5125 88.363 94.5876 90.265 92.8728C90.8865 92.3112 92.0323 92.0042 93.2922 91.8451C94.8414 91.6778 96.4021 91.6427 97.9574 91.7402C98.5789 91.7739 98.9702 91.8114 98.9702 91.8114L96.7536 72.2164L95.256 54.6189L94.4135 47.7558L91.9181 46.2264L91.5118 47.0763C91.5118 47.2017 91.5249 47.3253 91.5305 47.4507C91.7065 51.8838 89.9524 52.041 89.138 51.88C88.8497 51.822 88.5614 51.7733 88.2694 51.7377C85.9967 51.4588 82.6382 48.4691 80.8728 46.7505C80.1446 46.0391 79.6859 45.5449 79.6859 45.5449L77.0669 46.6008Z" fill="#6C63FF"/>
<path opacity="0.1" d="M91.5127 47.0765C91.5127 47.2019 91.5258 47.3255 91.5314 47.4509L91.5745 47.4809C92.2334 47.9152 93.2912 55.25 93.2912 55.25L94.6634 73.9389L97.1907 87.8858C97.1907 87.8858 97.5221 89.4752 97.9564 91.746C98.5779 91.7797 98.9692 91.8172 98.9692 91.8172L96.7545 72.2166L95.2568 54.6191L94.4144 47.756L91.9189 46.2266L91.5127 47.0765Z" fill="black"/>
<path d="M89.7939 45.8276C89.7939 45.8276 91.2916 47.0407 91.9506 47.475C92.6095 47.9094 93.6673 55.2442 93.6673 55.2442L95.0395 73.9331L97.5668 87.88C97.5668 87.88 99.8133 98.6444 100.281 104.167C100.749 109.69 102.715 108.098 102.715 108.098C102.715 108.098 104.183 103.793 107.676 103.544C111.169 103.295 109.361 101.327 109.361 101.327C109.361 101.327 107.315 86.5808 105.969 83.9543C105.948 83.9092 105.924 83.8654 105.898 83.8232C105.699 83.4975 105.48 82.8479 105.25 81.9792C103.919 76.9546 102.217 64.569 102.217 64.569L101.156 49.2179C98.4392 44.7905 90.0148 44.944 90.0148 44.944L89.7939 45.8276Z" fill="#67647E"/>
<path opacity="0.1" d="M77.0669 46.601L82.6213 61.0478L87.8313 83.5127C87.8313 83.5127 88.363 94.5879 90.265 92.8731C90.8865 92.3115 92.0323 92.0044 93.2922 91.8453C93.2697 88.0375 93.1536 81.2044 92.6051 78.3327C92.1304 75.7085 91.9321 73.0418 92.0135 70.3764L85.2104 55.5551C85.2104 55.5551 80.094 49.2481 80.0622 48.3458C80.051 48.0126 80.4142 47.3948 80.8747 46.7452C80.1464 46.0338 79.6878 45.5396 79.6878 45.5396L77.0669 46.601Z" fill="black"/>
<path d="M94.1657 110.751L92.9189 94.526C92.9189 94.526 93.0125 82.4193 92.2318 78.3325C91.756 75.7085 91.5571 73.0418 91.6384 70.3762L84.8371 55.555C84.8371 55.555 79.7208 49.248 79.6889 48.3457C79.6571 47.4433 82.3679 44.4424 82.3679 44.4424C82.3679 44.4424 76.4446 45.1351 75.664 47.7859C74.8833 50.4368 70.6094 51.4683 70.6094 51.4683C70.6094 51.4683 68.5501 53.3404 68.5819 58.7076C68.6137 64.0748 75.1342 68.2851 75.1342 68.2851C75.1342 68.2851 76.2256 78.3943 75.2896 82.9509C74.3535 87.5076 75.1641 109.658 75.1641 109.658C75.1641 109.658 81.4356 109.722 85.3669 110.751C89.2983 111.781 94.1657 110.751 94.1657 110.751Z" fill="#67647E"/>
<path d="M84.9298 85.0101L80.1241 103.199C80.1241 103.199 79.4689 104.822 76.0992 103.574C72.7294 102.325 62.9329 98.27 62.9329 98.27C62.9329 98.27 62.0586 96.8341 63.6817 94.1833L68.5809 79.8301L84.9298 85.0101Z" fill="#B07473"/>
<path d="M78.7152 93.0528L70.9461 84.5105L65.9851 82.498L63.9482 92.7701L73.3798 103.02L78.7152 93.0528Z" fill="#E1E7EF"/>
<path d="M70.4113 95.9058C70.4113 95.9058 72.7214 97.263 73.3298 97.3098C73.9382 97.3566 76.0874 101.413 75.1794 101.382C74.2715 101.35 72.1598 100.258 72.3713 100.82C72.5829 101.382 73.9588 103.066 74.3595 102.907C74.7601 102.748 74.9454 104.143 73.2362 103.656C71.527 103.169 69.2581 102.743 69.2581 102.743C69.2581 102.743 68.0412 101.853 67.9944 101.222C67.9476 100.592 66.8955 97.2668 66.8955 97.2668L70.4113 95.9058Z" fill="#EFB7B9"/>
<path d="M107.5 47.9808C107.5 47.9808 105.501 43.6657 104.306 42.2373C103.112 40.8089 97.9021 39.2757 97.3798 39.6969C96.8575 40.1181 100.001 42.4844 100.562 42.7877C101.124 43.091 96.9323 45.9084 96.8481 45.9702C96.7639 46.032 93.572 45.6857 95.21 46.7621C96.8481 47.8385 101.691 48.9356 101.691 48.9356C102.017 48.8789 102.351 48.8894 102.673 48.9663C102.995 49.0433 103.298 49.185 103.563 49.383C104.501 50.0644 107.5 47.9808 107.5 47.9808Z" fill="#EFB7B9"/>
<path opacity="0.1" d="M65.9085 96.1227C66.1732 96.9906 66.5283 97.8282 66.9681 98.6219C67.4361 98.1988 71.9047 96.7255 71.9047 96.7255L71.4086 95.9598L70.5999 94.713C70.5999 94.713 66.6161 93.8481 65.9384 94.713C65.71 95.0032 65.7512 95.5386 65.9085 96.1227Z" fill="black"/>
<path d="M65.721 95.9357C65.9857 96.8036 66.3408 97.6412 66.7806 98.4349C67.2486 98.0118 71.7172 96.5385 71.7172 96.5385L71.2211 95.7728L70.4124 94.526C70.4124 94.526 66.4286 93.6611 65.7509 94.526C65.5225 94.8162 65.5637 95.3516 65.721 95.9357Z" fill="#A36468"/>
<path opacity="0.1" d="M102.932 48.9561C103.075 49.2774 103.244 49.5866 103.437 49.8809C104.158 51.0172 105.249 52.3577 105.249 52.3577C105.249 52.3577 109.507 50.3995 109.507 50.3133C109.507 50.2272 108.215 48.1923 107.165 46.5879C106.74 45.9402 106.356 45.3673 106.112 45.0322C106.112 45.0322 104.523 48.357 102.954 48.3795C102.544 48.3851 102.763 48.5499 102.932 48.9561Z" fill="black"/>
<path d="M103.119 49.1431C103.263 49.4644 103.432 49.7736 103.625 50.0679C104.346 51.2043 105.437 52.5447 105.437 52.5447C105.437 52.5447 109.694 50.5865 109.694 50.5004C109.694 50.4142 108.402 48.3793 107.352 46.7749C106.927 46.1272 106.543 45.5543 106.3 45.2192C106.3 45.2192 104.711 48.544 103.142 48.5665C102.732 48.5721 102.951 48.7369 103.119 49.1431Z" fill="#A36468"/>
<path d="M79.1114 83.4809L79.6581 81.8429L71.9863 81.3037L74.8525 81.6089L78.503 82.3914L78.2222 83.4809H79.1114Z" fill="#B07473"/>
<path opacity="0.1" d="M65.721 95.9357C66.5672 95.5369 68.8249 94.7076 71.2211 95.7728L70.4124 94.526C70.4124 94.526 66.4286 93.6611 65.7509 94.526C65.5225 94.8162 65.5637 95.3516 65.721 95.9357Z" fill="black"/>
<path d="M65.2737 85.8211C65.2924 86.0925 65.3093 86.364 65.3261 86.6335C65.3729 87.4591 65.4048 88.2772 65.4254 89.0672C65.519 92.7253 65.3673 95.743 65.3673 95.743C65.3673 95.743 68.269 93.9964 71.358 95.4622L71.6687 89.5427V89.4398L71.9851 86.8507L73.011 78.4881C73.011 78.4881 74.9448 66.8813 75.5383 66.4451C76.1317 66.0089 71.1389 56.6167 71.1389 56.6167L68.5798 58.7078L66.9885 69.4404V74.9312C66.9885 74.9312 64.9293 80.8919 65.2737 85.8211Z" fill="#67647E"/>
<path opacity="0.1" d="M103.028 48.8794L103.627 50.0681C104.348 51.2045 105.439 52.5449 105.439 52.5449C105.439 52.5449 109.696 50.5867 109.696 50.5006C109.696 50.4145 108.404 48.3795 107.354 46.7752C107.03 46.4008 106.834 46.1948 106.834 46.1948C108.082 49.2837 103.028 48.8794 103.028 48.8794Z" fill="black"/>
<path d="M99.4062 48.3456L101.155 49.2218C101.155 49.2218 103.308 52.1235 103.931 52.4361C104.554 52.7488 104.867 52.7169 104.867 52.7169L103.027 49.0664C103.027 49.0664 108.081 49.4708 106.833 46.3818C106.833 46.3818 112.481 52.5597 113.104 55.057C113.104 55.057 116.225 60.2352 115.476 62.7943C114.727 65.3534 111.7 65.8514 109.515 65.0726C107.331 64.2938 100.623 60.8605 100.623 60.8605L99.4062 48.3456Z" fill="#67647E"/>
<path opacity="0.1" d="M105.679 54.4316C105.679 54.4316 110.391 59.7053 110.017 60.4223C109.642 61.1393 105.928 55.4931 105.679 54.4316Z" fill="black"/>
<path opacity="0.2" d="M84.4149 40.236C84.4149 40.236 77.784 38.2385 74.0399 45.446C70.2957 52.6534 70.1703 53.1533 70.3575 53.4959C70.5447 53.8385 77.814 51.9364 78.2202 52.7789C78.6264 53.6213 74.1016 57.0846 74.1016 57.0846L91.6355 70.3764L84.2689 54.7183C83.7735 53.6215 83.1131 52.6069 82.3107 51.7099C81.0994 50.3545 79.4427 48.2784 80.0286 47.6381C80.5453 47.0765 81.3728 45.6107 82.4885 43.924C83.3066 42.6865 84.6058 41.2918 84.4149 40.236Z" fill="black"/>
<path d="M84.6019 40.0485C84.6019 40.0485 77.971 38.051 74.2269 45.2585C70.4827 52.4659 70.3573 52.9658 70.5445 53.3084C70.7317 53.651 78.001 51.7489 78.4072 52.5914C78.8135 53.4338 74.2886 56.8971 74.2886 56.8971L91.6353 70.3761L84.4559 54.5308C83.9605 53.434 83.3001 52.4194 82.4977 51.5224C81.2865 50.167 79.6297 48.0909 80.2156 47.4506C80.7323 46.889 81.5598 45.4232 82.6755 43.7365C83.4936 42.499 84.7929 41.1043 84.6019 40.0485Z" fill="#67647E"/>
<path opacity="0.1" d="M84.6019 40.0485C84.6019 40.0485 77.971 38.051 74.2269 45.2585C70.4827 52.4659 70.3573 52.9658 70.5445 53.3084C70.7317 53.651 78.001 51.7489 78.4072 52.5914C78.8135 53.4338 74.2886 56.8971 74.2886 56.8971L91.6353 70.3761L84.1114 53.7689C83.8202 53.1233 83.4256 52.5296 82.9432 52.011C81.7582 50.7343 79.5529 48.1751 80.2156 47.4506C80.7323 46.889 81.5598 45.4232 82.6755 43.7365C83.4936 42.499 84.7929 41.1043 84.6019 40.0485Z" fill="black"/>
<path d="M83.2462 73.0887C84.0041 73.0887 84.6185 72.4743 84.6185 71.7165C84.6185 70.9586 84.0041 70.3442 83.2462 70.3442C82.4884 70.3442 81.874 70.9586 81.874 71.7165C81.874 72.4743 82.4884 73.0887 83.2462 73.0887Z" fill="#444053"/>
<path d="M83.2462 81.6068C84.0041 81.6068 84.6185 80.9924 84.6185 80.2345C84.6185 79.4767 84.0041 78.8623 83.2462 78.8623C82.4884 78.8623 81.874 79.4767 81.874 80.2345C81.874 80.9924 82.4884 81.6068 83.2462 81.6068Z" fill="#444053"/>
<path d="M65.4242 89.067C66.2142 89.2542 69.9602 89.17 71.6638 89.5425V89.4396L71.9802 86.8505C70.0594 86.6109 65.8847 86.1559 65.3193 86.6333C64.5874 87.2567 64.4825 88.8517 65.4242 89.067Z" fill="#67647E"/>
<path opacity="0.1" d="M65.4242 89.254C66.2142 89.4412 69.9602 89.357 71.6638 89.7295V89.6266L71.9802 87.0375C70.0594 86.7979 65.8847 86.343 65.3193 86.8203C64.5874 87.4437 64.4825 89.0387 65.4242 89.254Z" fill="black"/>
<path opacity="0.1" d="M65.4242 89.067C66.2142 89.2542 69.9602 89.17 71.6638 89.5425V89.4396L71.9802 86.8505C70.0594 86.6109 65.8847 86.1559 65.3193 86.6333C64.5874 87.2567 64.4825 88.8517 65.4242 89.067Z" fill="black"/>
<path d="M66.2401 88.6442C66.6971 88.6442 67.0675 88.2737 67.0675 87.8167C67.0675 87.3597 66.6971 86.9893 66.2401 86.9893C65.7831 86.9893 65.4126 87.3597 65.4126 87.8167C65.4126 88.2737 65.7831 88.6442 66.2401 88.6442Z" fill="#444053"/>
<path opacity="0.1" d="M81.8726 91.1245L78.3774 103.044C78.3774 103.044 77.4414 103.48 77.4414 102.701C77.4414 101.923 81.8726 91.1245 81.8726 91.1245Z" fill="white"/>
<path opacity="0.1" d="M83.2129 42.5574C83.4336 42.7345 83.6643 42.8989 83.9037 43.0497C85.0925 43.7986 86.1502 44.817 87.6666 44.817C88.5076 44.8182 89.3431 44.6809 90.1396 44.4107C90.8547 41.6307 91.6691 39.2382 91.6691 39.2382C91.6691 39.2382 82.5184 30.6772 83.183 37.6769C83.417 40.1443 83.563 41.3181 83.2129 42.5574Z" fill="black"/>
<path d="M79.9815 36.7557C79.9815 38.276 80.4323 39.7621 81.277 41.0262C82.1216 42.2903 83.3221 43.2755 84.7267 43.8573C86.1312 44.4391 87.6768 44.5913 89.1679 44.2947C90.6589 43.9981 92.0286 43.266 93.1036 42.191C94.1786 41.116 94.9107 39.7464 95.2073 38.2553C95.5039 36.7642 95.3517 35.2186 94.7699 33.8141C94.1881 32.4095 93.2029 31.209 91.9388 30.3644C90.6747 29.5198 89.1886 29.0689 87.6683 29.0689C86.6575 29.0642 85.6558 29.2598 84.7211 29.6445C83.7864 30.0291 82.9371 30.5951 82.2224 31.3098C81.5077 32.0245 80.9417 32.8738 80.557 33.8085C80.1724 34.7432 79.9768 35.7449 79.9815 36.7557Z" fill="#EFB7B9"/>
<path d="M92.0234 43.1898C92.094 43.3657 92.2203 43.5136 92.3828 43.6111L93.6034 44.3599L95.8855 45.7471L99.4967 47.9412C99.5816 47.9923 99.6677 48.0391 99.755 48.0816C100.178 48.2966 100.645 48.4118 101.12 48.4183C101.595 48.4248 102.065 48.3224 102.494 48.119C102.818 47.9732 103.103 47.7526 103.325 47.4754C103.547 47.1981 103.701 46.872 103.773 46.524C103.869 46.0395 103.828 45.5378 103.656 45.075C103.483 44.6121 103.185 44.2064 102.795 43.9031C102.776 43.8864 102.753 43.8742 102.728 43.8675C101.959 43.6519 101.236 43.2986 100.594 42.8248L98.321 41.2522L96.2917 39.397L95.2658 38.6875C95.1154 38.5833 94.9383 38.5244 94.7555 38.5177C94.5727 38.5111 94.3918 38.557 94.2343 38.6501C93.1822 39.2585 91.0873 40.8235 92.0234 43.1898Z" fill="#E1E7EF"/>
<path d="M93.6045 44.349L95.8866 45.7362C96.3621 43.8192 97.5714 42.4657 98.6216 41.4436L96.2928 39.3843C94.5218 40.2623 93.8179 43.1902 93.6045 44.349Z" fill="#A36468"/>
<path opacity="0.1" d="M99.7485 48.0706C100.172 48.2856 100.639 48.4008 101.114 48.4073C101.588 48.4138 102.058 48.3114 102.487 48.108C102.811 47.9622 103.096 47.7416 103.319 47.4644C103.541 47.1871 103.694 46.861 103.766 46.513C103.862 46.0285 103.822 45.5268 103.649 45.064C103.476 44.6011 103.179 44.1954 102.789 43.8921C102.222 44.132 101.697 44.4613 101.235 44.8674C100.59 45.4261 100.122 46.1615 99.8908 46.9829C99.7991 47.3383 99.7514 47.7036 99.7485 48.0706Z" fill="black"/>
<path opacity="0.1" d="M79.9815 36.7559C79.9799 37.8754 80.224 38.9816 80.6966 39.9965C81.1603 40.4582 81.5136 41.0188 81.73 41.6364C82.2504 42.2691 82.4545 42.6267 83.149 43.0648C83.4279 42.7709 84.057 42.593 84.1712 42.213C84.4613 41.2339 84.2966 40.1874 84.2816 39.1671C84.2816 38.7141 84.3453 38.1787 84.744 37.9615C85.0754 37.7743 85.4928 37.9091 85.8186 38.0926C86.1443 38.276 86.4682 38.5138 86.8426 38.5568C87.4042 38.6205 87.9172 38.2255 88.2317 37.7612C88.5462 37.2969 88.7278 36.754 89.0254 36.2785C89.4186 35.6514 89.9989 35.1702 90.5699 34.7022C91.2233 34.1631 91.8579 33.5659 92.5543 33.0829C92.9699 32.7927 93.4679 32.6579 93.8779 32.3659L93.9434 32.3172C93.0011 30.9853 91.6595 29.9877 90.1127 29.4689C88.5659 28.95 86.8941 28.9368 85.3393 29.4311C83.7845 29.9254 82.4273 30.9016 81.4641 32.2184C80.5008 33.5352 79.9816 35.1244 79.9815 36.7559Z" fill="black"/>
<path d="M95.1259 28.2585C94.963 27.1802 94.0701 26.1674 92.9805 26.1487C92.08 26.1337 91.3125 26.744 90.515 27.1615C89.6983 27.5824 88.7986 27.8174 87.8804 27.8498C86.9622 27.8822 86.0482 27.711 85.2039 27.3487C84.7153 27.1334 84.2173 26.847 83.6838 26.8919C83.1502 26.9369 82.7253 27.2851 82.3546 27.6408C81.4795 28.5078 80.7937 29.5468 80.3403 30.6922C80.2073 31.0292 80.0857 31.3868 79.8273 31.6414C79.6288 31.8043 79.4143 31.9467 79.1871 32.0663C78.7957 32.3262 78.4601 32.6615 78.2 33.0528C77.94 33.444 77.7606 33.8832 77.6726 34.3446C77.5038 35.2727 77.5991 36.2295 77.9477 37.106C78.1587 37.707 78.5023 38.2528 78.9531 38.7028C79.2938 39.023 79.7019 39.2645 80.0595 39.5621C80.6417 40.0577 81.0857 40.6957 81.3481 41.4138C81.6106 42.132 81.6826 42.9058 81.5571 43.6601C82.5531 43.8885 83.5078 42.9974 83.8036 42.0183C84.0994 41.0392 83.929 39.9946 83.914 38.9724C83.914 38.5194 83.9777 37.9858 84.3765 37.7687C84.7078 37.5815 85.1253 37.7163 85.451 37.8997C85.7768 38.0832 86.0988 38.3191 86.4751 38.364C87.0367 38.4276 87.5496 38.0326 87.8641 37.5684C88.1786 37.1041 88.3584 36.5612 88.6579 36.0857C89.0492 35.4585 89.6314 34.9774 90.2023 34.5094C90.8557 33.9702 91.4903 33.373 92.1849 32.89C92.6024 32.5999 93.1003 32.4651 93.5103 32.173C94.7421 31.2913 95.1259 29.6738 95.1259 28.2585Z" fill="#585268"/>
<path opacity="0.1" d="M89.1738 41.1099C89.1738 41.1099 89.2787 41.1342 89.4602 41.1848C89.3732 41.1346 89.2743 41.1088 89.1738 41.1099Z" fill="black"/>
<g opacity="0.1">
<path opacity="0.1" d="M83.4224 41.4133C83.7125 40.4342 83.5478 39.3877 83.5328 38.3674C83.5328 37.9144 83.5965 37.379 83.9952 37.1618C84.3266 36.9746 84.744 37.1094 85.0698 37.2928C85.3955 37.4763 85.7175 37.7141 86.0938 37.7571C86.6554 37.8208 87.1684 37.4276 87.4829 36.9615C87.7974 36.4953 87.9771 35.9543 88.2767 35.4788C88.6679 34.8517 89.2501 34.3705 89.8211 33.9025C90.4745 33.3652 91.1091 32.7662 91.8036 32.2832C92.2211 31.993 92.7191 31.8582 93.1291 31.5662C94.3684 30.6788 94.7521 29.0613 94.7521 27.6479C94.7104 27.3769 94.6264 27.1141 94.5032 26.8691C94.8332 27.2497 95.0493 27.7155 95.1266 28.2133C95.1266 29.6267 94.7522 31.2442 93.5035 32.1315C93.0935 32.4236 92.5955 32.5584 92.178 32.8485C91.4835 33.3315 90.8489 33.9306 90.1955 34.4679C89.6245 34.9359 89.0423 35.417 88.6511 36.0442C88.3515 36.5197 88.1737 37.0626 87.8573 37.5269C87.5409 37.9911 87.0261 38.3861 86.4682 38.3225C86.0938 38.2794 85.7756 38.0398 85.4442 37.8582C85.1128 37.6766 84.6954 37.5475 84.3696 37.7272C83.9709 37.9443 83.8997 38.476 83.9072 38.9328C83.9222 39.9531 84.0944 40.9921 83.7968 41.9786C83.4991 42.9652 82.55 43.8507 81.5503 43.6186C81.5817 43.4429 81.6011 43.2653 81.6083 43.0869C82.4414 43.0158 83.1734 42.2538 83.4224 41.4133Z" fill="black"/>
<path opacity="0.1" d="M78.5785 38.0959C78.9192 38.416 79.3273 38.6575 79.6849 38.9552C80.0786 39.2869 80.409 39.6871 80.6603 40.1365C80.4819 39.9098 80.2805 39.7021 80.0593 39.5168C79.6999 39.2192 79.2936 38.9777 78.9529 38.6575C78.6809 38.3962 78.4511 38.0944 78.2715 37.7627C78.3664 37.8804 78.469 37.9917 78.5785 38.0959Z" fill="black"/>
</g>
<path opacity="0.1" d="M88.9197 104.922C89.0563 105.328 89.251 105.725 89.2772 106.153C89.3222 106.882 88.8766 107.561 88.8448 108.291C88.8074 109.141 89.324 109.903 89.8183 110.594C89.2323 110.594 88.5921 110.392 88.2944 109.888C88.1924 109.694 88.1187 109.487 88.0754 109.272C87.5456 107.159 87.0307 104.847 87.9518 102.874C88.093 102.532 88.2997 102.222 88.5602 101.96C88.7156 102.956 88.5846 103.935 88.9197 104.922Z" fill="black"/>
<path opacity="0.1" d="M103.563 90.0049L105.119 87.9063C105.493 87.399 105.881 86.8711 106.015 86.2551C106.161 85.5793 105.991 84.8792 105.969 84.1959C105.969 84.1191 105.969 84.0405 105.969 83.9619C105.948 83.9168 105.924 83.873 105.897 83.8308C105.699 83.5051 105.48 82.8555 105.25 81.9868C105.023 82.2122 104.847 82.4835 104.733 82.7824C104.009 84.5497 104.679 86.6239 104.08 88.4361C103.907 88.9566 103.627 89.4545 103.563 90.0049Z" fill="black"/>
<path opacity="0.1" d="M99.6011 153.532C98.8324 154.083 97.9548 154.463 97.0271 154.646C96.0995 154.83 95.1433 154.813 94.2227 154.597" fill="black"/>
<path opacity="0.1" d="M86.7128 153.841C86.3192 154.209 85.8542 154.493 85.3465 154.675C84.8387 154.857 84.2991 154.933 83.7609 154.898C83.2227 154.863 82.6975 154.717 82.2176 154.471C81.7378 154.225 81.3136 153.883 80.9712 153.466" fill="black"/>
<path opacity="0.1" d="M94.9258 125.619C95.6723 125.792 96.4545 125.717 97.1552 125.407C97.8558 125.097 98.4372 124.569 98.8122 123.901" fill="black"/>
<path opacity="0.1" d="M86.0536 130.35C84.8674 130.437 83.6875 130.113 82.7119 129.433L86.0536 130.35Z" fill="black"/>
<path opacity="0.1" d="M92.1104 141.661C93.1082 142.067 93.9974 142.698 94.969 143.159C95.9406 143.619 97.0657 143.923 98.0954 143.601" fill="black"/>
<path opacity="0.1" d="M53.3015 83.361C53.2603 83.361 53.221 83.3517 53.1816 83.3442C53.2224 83.3398 53.2635 83.3456 53.3015 83.361Z" fill="black"/>
<defs>
<linearGradient id="paint0_linear" x1="89.1464" y1="160.548" x2="89.1464" y2="25.5606" gradientUnits="userSpaceOnUse">
<stop stop-color="#808080" stop-opacity="0.25"/>
<stop offset="0.54" stop-color="#808080" stop-opacity="0.12"/>
<stop offset="1" stop-color="#808080" stop-opacity="0.1"/>
</linearGradient>
</defs>
</svg>
