<svg width="22" height="22" viewBox="0 0 22 22" fill="none" xmlns="http://www.w3.org/2000/svg">
<circle cx="11" cy="11" r="11" fill="#7290A1"/>
<path d="M11.9764 12.7476H9.90343C9.90343 12.334 10.0286 11.9255 10.279 11.522C10.5293 11.1185 10.8247 10.7806 11.1652 10.5083C12.0064 9.82233 12.427 9.19693 12.427 8.63205C12.427 8.279 12.3069 8.00665 12.0665 7.81499C11.8262 7.62334 11.4907 7.52751 11.0601 7.52751C10.2189 7.52751 9.62303 7.97639 9.27253 8.87414L7.5 7.84525C7.80043 7.1089 8.27611 6.53393 8.92704 6.12036C9.57797 5.70679 10.314 5.5 11.1352 5.5C12.0365 5.5 12.8226 5.76731 13.4936 6.30193C14.1645 6.82646 14.5 7.55273 14.5 8.48074C14.5 8.89432 14.4099 9.28771 14.2296 9.66094C14.0594 10.0241 13.8491 10.3368 13.5987 10.599C13.3584 10.8512 13.113 11.0933 12.8627 11.3253C12.6223 11.5472 12.412 11.7792 12.2318 12.0213C12.0615 12.2634 11.9764 12.5055 11.9764 12.7476ZM12.2167 15.2139C12.2167 15.5669 12.0916 15.8696 11.8412 16.1217C11.5908 16.3739 11.2904 16.5 10.9399 16.5C10.5894 16.5 10.289 16.3739 10.0386 16.1217C9.78827 15.8696 9.66309 15.5669 9.66309 15.2139C9.66309 14.8608 9.78827 14.5582 10.0386 14.3061C10.289 14.0539 10.5894 13.9278 10.9399 13.9278C11.2904 13.9278 11.5908 14.0539 11.8412 14.3061C12.0916 14.5582 12.2167 14.8608 12.2167 15.2139Z" fill="white"/>
</svg>
