<svg width="180" height="180" viewBox="0 0 180 180" fill="none" xmlns="http://www.w3.org/2000/svg">
<path d="M108.785 52.5423C105.253 50.5111 103.919 50.0074 103.911 50.0044L103.84 49.9524C103.455 49.6566 103.148 49.2702 102.948 48.8276C102.948 48.7459 102.948 48.6657 102.948 48.5854V48.6092C103.005 47.5334 103.77 46.5542 104.497 45.6999L106.352 43.5156C106.564 43.3 106.727 43.0416 106.831 42.7578C106.869 42.6059 106.886 42.4494 106.881 42.2927C106.881 42.2288 106.881 42.165 106.881 42.1025C106.872 41.5602 106.856 41.0164 106.837 40.4681C106.819 39.9941 106.697 39.3968 106.223 39.2987C105.977 39.2482 105.651 39.3373 105.52 39.1248C105.476 39.038 105.465 38.9383 105.489 38.844C105.488 38.8514 105.488 38.8589 105.489 38.8663V38.8396C105.581 38.4736 105.641 38.1002 105.666 37.7237C105.675 37.5323 105.649 37.3409 105.589 37.159C105.314 36.3715 104.369 36.0491 103.532 35.9005C102.696 35.7519 101.76 35.6241 101.235 34.9703C101.073 34.7683 100.963 34.5246 100.779 34.3418C100.537 34.1274 100.242 33.9817 99.9245 33.9198C98.887 33.6634 97.7937 33.7585 96.8161 34.1902C96.4119 34.37 96.0063 34.6137 95.5635 34.587C95.1207 34.5602 94.7091 34.2408 94.2544 34.1635C93.5204 34.0387 92.8176 34.5781 92.4565 35.2155C92.242 35.5947 92.1275 36.0221 92.1237 36.4577C92.1237 36.4815 92.1237 36.5067 92.1237 36.5305C92.1128 36.9988 92.2838 37.453 92.6006 37.798C92.9171 38.1263 93.3896 38.3522 93.5204 38.7846C93.5739 38.9599 93.5605 39.1501 93.6081 39.3284C93.6081 39.3507 93.6214 39.373 93.6289 39.3938L93.6051 39.425C92.8474 40.396 92.4372 41.593 92.4402 42.8247C92.4479 44.0195 92.8355 45.1808 93.5468 46.1408C94.2581 47.1008 95.2563 47.8097 96.3971 48.1649C96.3971 48.2199 96.3971 48.2764 96.3971 48.3313C96.3971 49.0059 96.2054 49.6939 95.6289 50.2006L90.6274 52.2125C90.6274 52.2125 87.6125 51.8544 86.5249 56.2615C86.3499 56.9932 86.2868 57.7471 86.3377 58.4977C86.3778 59.1619 86.2857 60.3328 85.513 61.8469C84.2753 64.2689 84.5576 69.829 87.0865 70.3803C89.4743 70.9003 90.409 70.6775 90.5041 70.6581V70.7547C90.4654 71.7948 90.0865 80.7978 88.7091 81.8869C88.3287 82.1841 88.4001 82.3921 88.7091 82.5288C88.7091 82.5288 88.7091 82.5868 88.7002 82.6908C88.6586 83.349 88.4461 85.8557 87.5249 87.2821C86.4565 88.9329 86.568 98.4589 86.568 98.4589L85.8503 104.08C85.8503 104.08 86.2961 107.548 85.8503 108.154C85.4491 108.694 84.9142 121.527 84.8102 124.307H84.7626C84.5425 124.32 84.329 124.387 84.1407 124.502C83.9524 124.617 83.795 124.776 83.6824 124.965C83.0881 125.925 81.0227 127.698 81.0227 127.698C80.5769 128.335 78.9142 128.945 78.0361 129.233C77.9184 129.271 77.8049 129.321 77.6973 129.382C77.3692 129.561 77.1057 129.838 76.944 130.175C76.8868 130.274 76.8501 130.384 76.836 130.498C76.822 130.612 76.8309 130.727 76.8622 130.838C77.0881 131.387 81.7537 131.772 82.9335 131.223C83.8622 130.789 87.5397 130.22 89.0657 129.997C89.3428 129.961 89.6004 129.835 89.7981 129.638C89.9957 129.44 90.1223 129.183 90.1579 128.906C90.1713 128.81 90.1651 128.711 90.1396 128.617C90.114 128.523 90.0697 128.436 90.0093 128.359C89.7121 127.997 89.5635 127.009 89.4996 126.364C89.6237 126.314 89.7394 126.245 89.8429 126.16C89.7176 124.16 90.0043 122.155 90.6853 120.27C91.8102 117.298 92.1474 111.79 91.874 108.212C91.874 108.212 95.3034 93.4574 98.0018 92.08C98.0434 92.132 99.3525 93.8141 99.5189 99.0161C99.6883 104.301 101.599 107.769 101.599 107.769C101.599 107.769 100.755 116.744 101.599 120.102L100.495 125.401C100.415 125.331 100.363 125.278 100.363 125.278C100.363 125.278 100.396 125.426 100.442 125.661L100.418 125.772L100.465 125.784C100.59 126.447 100.776 127.601 100.7 128.279C100.656 128.664 100.552 129.193 100.474 129.711C100.358 130.527 100.326 131.318 100.755 131.494C101.458 131.777 105.59 132.163 106.293 131.255C106.451 131.07 106.553 130.844 106.59 130.604C106.626 130.363 106.594 130.118 106.498 129.894C106.447 129.769 106.378 129.653 106.293 129.548C106.293 129.548 105.196 127.754 105.505 126.49C105.535 126.366 105.538 126.238 105.516 126.113C105.493 125.988 105.445 125.869 105.375 125.763C105.422 125.142 105.672 122.27 106.321 119.83C107.024 117.181 108.508 111.373 107.416 107.552C107.375 107.404 107.327 107.255 107.277 107.107C106.646 105.022 106.436 102.832 106.659 100.665C106.253 98.8152 106.253 96.8991 106.659 95.0488C107.333 91.9656 107.804 88.9374 107.804 88.9374C107.804 88.9374 108.177 84.8646 107.852 82.3669L107.829 82.2064L108.008 82.1663C108.008 82.1663 107.052 77.9271 106.715 75.2302C106.635 74.5927 106.531 73.7859 106.418 72.9241C106.729 72.8743 107.036 72.7983 107.335 72.6968C110.36 71.6462 111.311 62.1782 111.311 62.1782V59.1768C111.311 59.1768 112.327 54.5795 108.785 52.5423ZM86.1698 125.658C86.0761 125.61 86.0212 125.579 86.0212 125.579L86.1698 125.658Z" fill="url(#paint0_linear)"/>
<path d="M106.953 107.187C108.269 110.973 106.733 117.117 106.02 119.86C105.306 122.603 105.086 125.897 105.086 125.897C102.289 126.336 100.259 125.786 100.259 125.786L101.41 120.14C100.587 116.793 101.41 107.85 101.41 107.85C101.41 107.85 99.5456 104.394 99.3807 99.1263C99.2187 93.9406 97.9409 92.266 97.8948 92.214C95.2618 93.5855 91.9141 108.291 91.9141 108.291C92.189 111.857 91.8592 117.343 90.7626 120.306C90.0975 122.188 89.8175 124.184 89.9394 126.177C89.556 126.501 89.0226 126.556 88.4461 126.464C86.8844 126.203 85.0107 124.854 85.0107 124.854C85.0107 124.854 85.6051 108.835 86.0509 108.23C86.4966 107.626 86.0509 104.169 86.0509 104.169L86.7626 98.5736C86.7626 98.5736 86.6541 89.0803 87.6957 87.4295C88.5962 86.0075 88.8027 83.5098 88.8428 82.8545C88.8428 82.7505 88.8517 82.6925 88.8517 82.6925L90.4387 80.7906C90.4387 80.7906 105.803 79.6391 106.954 80.7906C107.238 81.0744 107.412 81.7163 107.516 82.5261C107.832 85.015 107.47 89.0744 107.47 89.0744C107.47 89.0744 107.009 92.0922 106.351 95.1665C105.954 97.0107 105.954 98.9181 106.351 100.762C106.132 102.923 106.337 105.105 106.953 107.187Z" fill="#65617D"/>
<path d="M105.993 131.246C105.307 132.151 101.274 131.766 100.587 131.485C100.168 131.312 100.201 130.524 100.314 129.711C100.385 129.194 100.491 128.671 100.534 128.283C100.644 127.295 100.204 125.292 100.204 125.292C100.204 125.292 101.11 126.252 101.329 125.292C101.425 124.873 101.763 124.658 102.112 124.549C102.582 124.408 103.088 124.44 103.537 124.639C104.249 124.948 105.439 125.607 105.225 126.499C104.928 127.759 105.993 129.546 105.993 129.546C106.076 129.651 106.143 129.767 106.192 129.891C106.286 130.114 106.317 130.358 106.282 130.597C106.247 130.835 106.147 131.06 105.993 131.246Z" fill="#A27772"/>
<path opacity="0.1" d="M105.993 131.246C105.306 132.151 101.274 131.766 100.587 131.486C100.168 131.312 100.201 130.524 100.314 129.711C100.746 129.914 101.483 130.083 102.711 129.968C102.997 129.942 103.286 129.933 103.574 129.942C104.447 129.982 105.321 129.964 106.192 129.89C106.286 130.112 106.318 130.357 106.282 130.596C106.247 130.835 106.147 131.06 105.993 131.246Z" fill="black"/>
<path opacity="0.1" d="M91.9187 108.285C92.1936 111.851 91.8637 117.337 90.7672 120.3C90.1021 122.182 89.8221 124.178 89.944 126.171C89.5606 126.494 89.0272 126.549 88.4507 126.457C88.782 124.139 90.1921 114.172 91.103 106.295C92.1253 97.3252 96.9395 91.1528 96.9395 91.1528L97.8994 92.2093C95.2634 93.5793 91.9187 108.285 91.9187 108.285Z" fill="black"/>
<path d="M104.346 50.6197L103.676 53.9109L100.395 59.425L96.3493 57.6969C96.3493 57.6969 90.8515 51.9362 94.3062 51.113C94.72 51.0246 95.1108 50.8505 95.4533 50.6018C96.1323 50.0907 96.3448 49.3463 96.3448 48.6182C96.3448 47.4161 95.7831 46.2571 95.7831 46.2571L102.86 44.0283C102.568 44.9583 102.397 45.9222 102.352 46.8961C102.299 48.8277 103.015 49.7727 103.602 50.2259C103.822 50.4051 104.075 50.5389 104.346 50.6197Z" fill="#FBBEBE"/>
<path opacity="0.1" d="M102.865 44.0356C102.572 44.9656 102.402 45.9296 102.357 46.9034C102.228 47.0568 102.091 47.2027 101.945 47.3402C101.215 48.0386 100.309 48.5261 99.3234 48.7511C98.3382 48.976 97.3105 48.9301 96.3493 48.6181C96.3493 47.416 95.7876 46.257 95.7876 46.257L102.865 44.0356Z" fill="black"/>
<path d="M103.676 43.131C103.676 44.238 103.347 45.3199 102.732 46.2401C102.116 47.1603 101.242 47.8773 100.219 48.3004C99.1963 48.7235 98.071 48.8338 96.9854 48.6172C95.8999 48.4006 94.9029 47.867 94.1207 47.0837C93.3385 46.3005 92.8062 45.3029 92.5911 44.217C92.3759 43.1312 92.4877 42.006 92.9122 40.9836C93.3367 39.9613 94.0548 39.0879 94.9758 38.4738C95.8968 37.8597 96.9792 37.5325 98.0861 37.5337C98.8215 37.5314 99.55 37.6746 100.23 37.9551C100.91 38.2357 101.527 38.648 102.047 39.1683C102.566 39.6886 102.978 40.3067 103.257 40.9868C103.537 41.6669 103.679 42.3957 103.676 43.131Z" fill="#FBBEBE"/>
<path opacity="0.1" d="M104.346 50.6197L103.676 53.9109L100.395 59.425L96.3493 57.697C96.3493 57.697 90.8515 51.9362 94.3062 51.113C94.72 51.0246 95.1108 50.8505 95.4533 50.6019C94.8292 52.3181 97.4057 55.8872 97.4057 55.8872C97.7029 56.3329 98.3938 56.0506 98.3938 56.0506C100.052 55.801 103.109 51.0269 103.606 50.2334C103.825 50.4094 104.077 50.5406 104.346 50.6197Z" fill="black"/>
<path opacity="0.1" d="M107.514 82.5349C106.541 82.7563 101.15 83.9509 99.1057 83.6523C96.8576 83.3224 92.4832 83.104 92.4832 83.104C92.4832 83.104 89.6987 83.2526 88.8413 82.8633C88.8413 82.7593 88.8502 82.7013 88.8502 82.7013L90.4371 80.7994C90.4371 80.7994 105.801 79.6478 106.953 80.7994C107.236 81.0802 107.41 81.7221 107.514 82.5349Z" fill="black"/>
<path d="M97.4054 56.0503C97.4054 56.0503 94.5109 52.0384 95.6015 50.4797L90.7115 52.4842C90.7115 52.4842 87.768 52.1276 86.6996 56.5198C86.5291 57.2497 86.4675 58.0007 86.5169 58.7486C86.5555 59.4113 86.4663 60.5777 85.7115 62.0859C84.5035 64.5005 84.7784 70.0413 87.2479 70.5911C89.7174 71.1409 90.5941 70.8645 90.5941 70.8645C90.5941 70.8645 90.2657 80.906 88.8393 82.0576C87.4129 83.2091 92.4752 82.9357 92.4752 82.9357C92.4752 82.9357 96.8497 83.1557 99.0993 83.484C101.349 83.8124 107.658 82.3325 107.658 82.3325C107.658 82.3325 106.725 78.1066 106.396 75.4187C106.068 72.7307 105.298 67.0057 105.298 67.0057L110.896 59.4277C110.896 59.4277 111.882 54.8467 108.426 52.817C104.97 50.7873 103.671 50.291 103.671 50.291C103.671 50.291 100.203 55.9373 98.3935 56.2152C98.3935 56.2152 97.7055 56.4916 97.4054 56.0503Z" fill="#7C7CDD"/>
<path opacity="0.1" d="M90.9863 57.6421C90.9863 57.6421 90.9314 59.4534 91.2598 60.1681C91.5881 60.8828 92.7962 64.8322 92.7962 64.8322H90.0532C90.0532 64.8322 91.5391 63.2409 91.4247 62.4727C91.3103 61.7045 90.9863 57.6421 90.9863 57.6421Z" fill="black"/>
<path d="M99.1072 71.3047C99.1072 71.3047 93.0478 69.8188 92.4832 68.5603C91.9185 67.3017 90.3599 64.4756 90.3599 64.4756L90.9988 63.6138L93.9468 65.9273C93.9468 65.9273 97.4579 68.7252 99.1042 69.0001C100.751 69.275 99.1072 71.3047 99.1072 71.3047Z" fill="#FBBEBE"/>
<path opacity="0.05" d="M99.1072 71.3047C99.1072 71.3047 93.0478 69.8188 92.4832 68.5603C91.9185 67.3017 90.3599 64.4756 90.3599 64.4756L90.9988 63.6138L93.9468 65.9273C93.9468 65.9273 97.4579 68.7252 99.1042 69.0001C100.751 69.275 99.1072 71.3047 99.1072 71.3047Z" fill="black"/>
<path d="M104.346 64.1726V67.4594H103.817C101.207 67.4599 98.6395 68.1246 96.3568 69.391L95.3672 69.9408L95.1012 70.0894L93.3999 66.2588L94.9913 64.8323H95.073C95.4623 64.8695 97.1458 65.0106 97.859 64.7699C98.5366 64.5396 99.3776 63.81 101.373 64.3242C102.357 64.5753 103.196 65.6778 104.15 65.3331L104.346 64.1726Z" fill="#FBBEBE"/>
<path opacity="0.1" d="M109.641 58.1919L110.739 59.4251V62.4162C110.739 62.4162 109.805 71.853 106.843 72.8961C103.88 73.9392 98.5915 72.2913 98.5915 72.2913C98.5915 72.2913 97.2245 68.6703 97.8634 68.4518C98.5024 68.2334 103.51 66.9095 103.51 66.9095C103.51 66.9095 103.44 61.3731 104.537 59.7268C104.537 59.7268 103.823 54.5708 106.293 54.4608C108.762 54.3509 109.641 58.1919 109.641 58.1919Z" fill="black"/>
<path d="M109.805 58.1919L110.903 59.4251V62.4162C110.903 62.4162 109.973 71.853 107.001 72.8961C104.03 73.9392 98.7489 72.2913 98.7489 72.2913C98.7489 72.2913 97.3833 68.6703 98.0223 68.4518C98.6612 68.2334 103.669 66.9095 103.669 66.9095C103.669 66.9095 103.597 61.3731 104.695 59.7268C104.695 59.7268 103.982 54.5708 106.452 54.4608C108.921 54.3509 109.805 58.1919 109.805 58.1919Z" fill="#7C7CDD"/>
<path opacity="0.1" d="M102.141 45.5082C102.164 45.1471 102.171 44.7652 102.017 44.4398C101.862 44.1144 101.5 43.8544 101.146 43.9376C100.676 44.0475 100.474 44.6582 100.014 44.8053C99.6259 44.9287 99.2024 44.6567 99.0182 44.2912C98.8339 43.9257 98.828 43.5037 98.8265 43.1025C98.8265 42.6449 98.8265 42.1857 98.8265 41.7281C98.8265 41.2288 98.8102 40.688 98.5026 40.2987C98.1207 39.8098 97.2218 39.5973 96.6215 39.6167C96.2216 39.6213 95.8381 39.7762 95.5472 40.0505C95.2262 40.3224 94.8548 40.5245 94.4164 40.4517C94.2343 40.4241 94.0638 40.3456 93.9244 40.2252C93.7851 40.1047 93.6826 39.9474 93.6289 39.7712V39.7534C94.0954 39.137 94.6846 38.624 95.3592 38.2467C96.0338 37.8693 96.7793 37.6359 97.5487 37.561C98.318 37.4861 99.0946 37.5714 99.8293 37.8116C100.564 38.0518 101.241 38.4415 101.818 38.9564C102.394 39.4712 102.858 40.0999 103.179 40.8028C103.501 41.5058 103.673 42.2677 103.686 43.0406C103.698 43.8135 103.55 44.5806 103.252 45.2935C102.953 46.0064 102.51 46.6497 101.95 47.1827C102.045 46.6286 102.109 46.0695 102.141 45.5082Z" fill="black"/>
<path d="M94.4138 40.2823C94.2315 40.2544 94.0609 40.1756 93.9216 40.0549C93.7822 39.9342 93.6799 39.7766 93.6262 39.6003C93.5802 39.4234 93.5921 39.2347 93.5401 39.0579C93.4123 38.627 92.9457 38.4026 92.6485 38.0757C92.0304 37.419 92.0705 36.3402 92.5089 35.5498C92.8625 34.9138 93.549 34.3774 94.2637 34.5007C94.7094 34.578 95.0913 34.8945 95.5415 34.9227C95.9918 34.951 96.3692 34.7073 96.7644 34.5275C97.7156 34.0967 98.7849 34.0018 99.7971 34.2585C100.108 34.321 100.397 34.4663 100.632 34.679C100.791 34.8797 100.94 35.0885 101.078 35.3046C101.591 35.9569 102.506 36.0847 103.322 36.2318C104.137 36.3789 105.059 36.7013 105.328 37.4859C105.504 38.0059 105.328 38.5705 105.231 39.1114C105.197 39.2216 105.204 39.3406 105.252 39.4457C105.38 39.6567 105.698 39.5691 105.938 39.6196C106.402 39.7162 106.521 40.312 106.533 40.7845C106.552 41.3254 106.567 41.8662 106.577 42.4071C106.605 42.6579 106.572 42.9116 106.483 43.1475C106.393 43.3833 106.249 43.5945 106.062 43.7637L104.25 45.9405C103.446 46.9063 102.594 48.0311 102.755 49.2763C102.375 49.4472 101.923 49.1173 101.799 48.7191C101.674 48.3209 101.775 47.8929 101.858 47.4843C102.005 46.7779 102.1 46.0618 102.145 45.3417C102.167 44.9791 102.174 44.5988 102.02 44.2733C101.865 43.9479 101.503 43.679 101.149 43.7696C100.68 43.8796 100.478 44.4903 100.017 44.6374C99.6307 44.7607 99.2057 44.4888 99.0215 44.1233C98.8372 43.7577 98.8313 43.3358 98.8298 42.9346V41.5586C98.8298 41.0609 98.8134 40.5185 98.5059 40.1292C98.124 39.6404 97.225 39.4279 96.6247 39.4472C96.2249 39.4522 95.8415 39.607 95.5504 39.8811C95.2236 40.153 94.8521 40.3536 94.4138 40.2823Z" fill="#7C5C5C"/>
<path opacity="0.1" d="M95.6782 57.5054L97.3959 64.5633C97.3959 64.5633 98.751 64.5559 95.6782 57.5054Z" fill="black"/>
<path opacity="0.1" d="M101.548 56.3257C101.548 56.3257 99.2989 60.0107 100.177 63.819L100.596 63.8502C100.596 63.8502 99.8472 62.0864 101.548 56.3257Z" fill="black"/>
<path opacity="0.1" d="M102.975 77.1753C102.975 77.1753 105.737 76.2615 105.937 78.3819C105.937 78.3819 105.416 76.9287 102.975 77.1753Z" fill="black"/>
<path opacity="0.1" d="M94.9916 65.0015C94.9916 65.0015 94.4433 68.8425 95.4374 70.3789C95.4374 70.3789 93.4284 71.202 90.6082 71.0371L90.2739 65.0015H94.9916Z" fill="black"/>
<path opacity="0.1" d="M95.3672 69.939L95.1012 70.0876L93.3999 66.257L94.9913 64.8306H95.073C95.0477 65.0148 94.6049 68.3135 95.3672 69.939Z" fill="black"/>
<path d="M94.9911 64.8306C94.9911 64.8306 94.4428 68.6701 95.4368 70.2065C95.4368 70.2065 93.4279 71.0296 90.6077 70.8647L88.688 64.8306H94.9911Z" fill="#7C7CDD"/>
<path d="M90.2451 128.911C90.2133 129.184 90.0914 129.439 89.8985 129.636C89.7056 129.833 89.4527 129.96 89.1798 129.997C87.6939 130.22 84.101 130.787 83.1947 131.218C82.0431 131.766 77.4889 131.383 77.269 130.835C77.207 130.613 77.2353 130.376 77.3477 130.175C77.5063 129.84 77.7661 129.563 78.0907 129.383C78.1954 129.323 78.3059 129.273 78.4205 129.234C79.2779 128.948 80.8975 128.343 81.3358 127.704C81.3358 127.704 83.3551 125.937 83.9302 124.982C84.0386 124.794 84.1916 124.636 84.3756 124.522C84.5596 124.407 84.7689 124.34 84.9851 124.325C85.4666 124.303 86.0015 124.545 86.2199 125.598C86.2199 125.598 88.8529 127.101 89.5646 125.783C89.5646 125.783 89.6746 127.807 90.1114 128.359C90.1692 128.438 90.2107 128.527 90.2337 128.621C90.2566 128.716 90.2605 128.814 90.2451 128.911Z" fill="#A27772"/>
<path opacity="0.1" d="M90.2451 128.911C90.2133 129.184 90.0914 129.439 89.8985 129.636C89.7056 129.833 89.4527 129.96 89.1798 129.997C87.6939 130.22 84.101 130.787 83.1947 131.218C82.0431 131.766 77.4889 131.383 77.269 130.835C77.207 130.613 77.2353 130.376 77.3477 130.175C77.5063 129.84 77.7661 129.563 78.0907 129.383C78.8336 129.876 80.4814 130.358 84.107 129.792C87.5646 129.252 89.2764 128.723 90.1114 128.362C90.1688 128.44 90.2101 128.529 90.2331 128.623C90.256 128.717 90.2601 128.815 90.2451 128.911Z" fill="black"/>
<g opacity="0.1">
<path opacity="0.1" d="M105.219 39.1919V39.1651C105.297 38.7535 105.415 38.3286 105.388 37.9185C105.353 38.255 105.296 38.589 105.219 38.9185C105.198 39.0084 105.198 39.1019 105.219 39.1919Z" fill="black"/>
<path opacity="0.1" d="M102.015 44.3269C102.102 44.5248 102.148 44.738 102.151 44.9539C102.176 44.6561 102.13 44.3564 102.015 44.0802C101.867 43.7518 101.5 43.4933 101.146 43.5765C100.677 43.6865 100.474 44.2971 100.014 44.4443C99.626 44.5676 99.2026 44.2957 99.0168 43.9301C98.8311 43.5646 98.8281 43.1426 98.8266 42.7414C98.8266 42.2823 98.8266 41.8246 98.8266 41.3655C98.8266 40.8677 98.8103 40.3254 98.5027 39.9361C98.1208 39.4472 97.2204 39.2348 96.6216 39.2541C96.2217 39.2587 95.8382 39.4136 95.5473 39.688C95.2249 39.9614 94.8549 40.162 94.4165 40.0906C94.2343 40.0627 94.0637 39.9839 93.9244 39.8632C93.785 39.7426 93.6827 39.585 93.629 39.4086C93.583 39.2318 93.5948 39.0431 93.5428 38.8663C93.4136 38.4354 92.9485 38.211 92.6513 37.8841C92.3624 37.5657 92.1983 37.1535 92.1892 36.7236C92.1663 36.9773 92.1955 37.2329 92.275 37.4749C92.3544 37.7169 92.4825 37.9401 92.6513 38.1308C92.9604 38.4577 93.4195 38.6835 93.5428 39.1144C93.5948 39.2897 93.583 39.4784 93.629 39.6553C93.6827 39.8316 93.785 39.9892 93.9244 40.1099C94.0637 40.2306 94.2343 40.3094 94.4165 40.3373C94.8623 40.4086 95.2249 40.208 95.5473 39.9346C95.8382 39.6603 96.2217 39.5054 96.6216 39.5007C97.2159 39.4814 98.1208 39.6954 98.5027 40.1828C98.8103 40.575 98.8251 41.1144 98.8266 41.6122C98.8266 42.0713 98.8266 42.529 98.8266 42.9881C98.8266 43.3952 98.8266 43.8187 99.0168 44.1768C99.207 44.5349 99.626 44.8142 100.014 44.6909C100.474 44.5423 100.677 43.9331 101.146 43.8232C101.504 43.7414 101.862 43.9985 102.015 44.3269Z" fill="black"/>
<path opacity="0.1" d="M106.525 42.816C106.424 43.0979 106.265 43.3552 106.058 43.5708C105.455 44.2969 104.851 45.0225 104.247 45.7476C103.484 46.6644 102.676 47.7253 102.736 48.8947C102.79 47.8219 103.538 46.8457 104.247 45.9942L106.058 43.8189C106.265 43.6025 106.424 43.3448 106.525 43.0626C106.569 42.8679 106.585 42.6676 106.572 42.4683C106.571 42.5857 106.555 42.7025 106.525 42.816Z" fill="black"/>
<path opacity="0.1" d="M101.801 48.5262C101.772 48.4295 101.754 48.3298 101.748 48.229C101.732 48.411 101.75 48.5944 101.801 48.7699C101.926 49.1681 102.379 49.4965 102.759 49.3256C102.749 49.2453 102.743 49.1651 102.74 49.0849C102.357 49.2424 101.917 48.9185 101.801 48.5262Z" fill="black"/>
</g>
<path opacity="0.1" d="M83.5635 125.477C83.5635 125.477 84.137 126.485 86.2143 125.597L83.5635 125.477Z" fill="black"/>
<path opacity="0.1" d="M101.132 125.725C101.132 125.725 102.924 127.835 105.183 126.416L101.132 125.725Z" fill="black"/>
<path opacity="0.1" d="M106.349 100.767C106.349 100.767 105.082 101.559 105.042 102.012C105.002 102.465 105.695 101.682 105.695 101.682L106.349 100.767Z" fill="black"/>
<path opacity="0.1" d="M106.853 106.833C106.413 107.2 105.865 107.414 105.293 107.443C104.346 107.484 104.425 108.719 105.043 108.348C105.661 107.976 106.853 106.833 106.853 106.833Z" fill="black"/>
<path opacity="0.1" d="M107.089 107.625C107.089 107.625 106.482 110.612 105.988 110.036L107.089 107.625Z" fill="black"/>
<path d="M59.543 56.67L60.5649 76.0717C60.5649 76.0717 54.2382 81.5997 42.9025 74.1765C42.9025 74.1765 32.0055 63.9815 26.1328 66.0789C26.1328 66.0789 35.8501 57.7409 47.9456 58.9477C47.9456 58.9477 52.9794 59.3672 59.543 56.67Z" fill="#5D76B7"/>
<path d="M60.4898 56.6983L63.7678 128.218L61.5423 128.516L58.2175 56.8555L60.4898 56.6983Z" fill="#D0D2D5"/>
<path opacity="0.1" fill-rule="evenodd" clip-rule="evenodd" d="M21.5693 97.0203C20.8279 95.1203 20.2403 93.1909 20.062 91.1802C19.0575 79.9972 30.4263 72.7702 41.6044 70.0905C55.3636 66.793 67.435 59.0791 77.8549 50.7278C79.1033 49.7277 80.3311 48.705 81.559 47.6822C85.0768 44.752 88.5954 41.8212 92.6033 39.4192C103.491 32.8938 116.965 30.8237 129.946 28.9239C132.8 28.5054 135.817 28.0995 138.479 28.9839C141.036 29.8334 142.854 31.7388 144.557 33.5703C149.706 39.1109 154.931 44.7645 157.88 51.4141C158.617 53.0755 159.194 54.8165 159.576 56.591L129.745 58.528L160 63.6361C159.687 66.6519 158.691 69.5903 156.849 72.2275C155.336 74.3927 153.332 76.2619 151.328 78.1313C149.347 79.9797 147.365 81.8282 145.858 83.9629C140.933 90.9347 141.975 99.091 143.026 107.319C143.519 111.172 144.013 115.042 143.897 118.812C143.786 122.415 142.976 126.23 140.193 128.995C135.914 133.244 128.653 133.651 122.159 134.015C122.008 134.023 121.858 134.032 121.708 134.04C115.145 134.41 108.61 135.164 102.135 136.299C96.7648 137.24 90.782 138.883 88.3235 143.114C87.9464 143.763 87.6683 144.453 87.3909 145.141C86.9588 146.213 86.5284 147.281 85.7286 148.182C82.9932 151.26 77.5933 150.908 73.2704 150.089C60.0498 147.603 47.1362 143.692 34.7548 138.422C29.8836 136.339 24.5227 133.208 24.5227 128.49C24.5227 127.334 24.8634 126.198 25.2023 125.067C25.2646 124.859 25.3267 124.652 25.3868 124.445C27.2832 117.944 27.0664 111.006 24.7676 104.637C24.6848 104.408 24.5993 104.18 24.5115 103.953L52.1407 100.057C43.8725 99.1976 28.958 97.6789 21.5693 97.0203Z" fill="#6C63FF"/>
<path opacity="0.1" fill-rule="evenodd" clip-rule="evenodd" d="M137.749 130.82C128.18 125.534 104.883 121.803 77.6612 121.803C55.6296 121.803 36.1687 124.247 24.4756 127.981C24.462 128.151 24.4546 128.32 24.4546 128.49C24.4546 133.208 29.8155 136.339 34.6866 138.422C47.068 143.692 59.9816 147.604 73.2022 150.089C77.5252 150.908 82.925 151.261 85.6604 148.182C86.4603 147.282 86.8907 146.214 87.3228 145.141C87.6002 144.453 87.8783 143.763 88.2553 143.114C90.7139 138.884 96.6967 137.24 102.067 136.299C108.542 135.165 115.077 134.41 121.64 134.041C121.79 134.032 121.94 134.024 122.091 134.015C127.5 133.712 133.442 133.379 137.749 130.82Z" fill="#6C63FF"/>
<defs>
<linearGradient id="paint0_linear" x1="32975.8" y1="82159.3" x2="32975.8" y2="17476.8" gradientUnits="userSpaceOnUse">
<stop stop-color="#808080" stop-opacity="0.25"/>
<stop offset="0.54" stop-color="#808080" stop-opacity="0.12"/>
<stop offset="1" stop-color="#808080" stop-opacity="0.1"/>
</linearGradient>
</defs>
</svg>
