<svg width="180" height="180" viewBox="0 0 180 180" fill="none" xmlns="http://www.w3.org/2000/svg">
<path opacity="0.1" d="M163.477 148.417C172.306 148.417 179.463 146.649 179.463 144.468C179.463 142.287 172.306 140.519 163.477 140.519C154.648 140.519 147.491 142.287 147.491 144.468C147.491 146.649 154.648 148.417 163.477 148.417Z" fill="#6C63FF"/>
<path opacity="0.1" d="M22.3621 149.074C31.1909 149.074 38.3482 147.306 38.3482 145.125C38.3482 142.944 31.1909 141.176 22.3621 141.176C13.5332 141.176 6.37598 142.944 6.37598 145.125C6.37598 147.306 13.5332 149.074 22.3621 149.074Z" fill="#6C63FF"/>
<path d="M84.5302 37.0425L84.5765 37.1223C80.249 42.5245 79.9632 50.9127 79.9456 50.9862L79.0322 49.9323C79.0514 49.8588 80.1724 42.4814 84.5302 37.0425Z" fill="#444053"/>
<path d="M103.587 48.0877C103.587 48.0877 101.012 46.3567 101.316 44.3398" stroke="#444053" stroke-miterlimit="10"/>
<path d="M99.6433 50.3249C99.6433 50.3249 95.9706 48.9899 95.6001 43.7603" stroke="#444053" stroke-miterlimit="10"/>
<path d="M93.7152 51.6788C93.7152 51.6788 90.2021 48.7646 91.3694 43.6738" stroke="#444053" stroke-miterlimit="10"/>
<path d="M86.5896 50.2546C86.5896 50.2546 84.2502 45.3507 86.3309 42.1602" stroke="#444053" stroke-miterlimit="10"/>
<path d="M104.385 42.3022C104.385 42.3022 101.726 43.1454 102.296 44.5378" stroke="#444053" stroke-miterlimit="10"/>
<path d="M101.172 37.478C101.172 37.478 97.6154 38.607 97.5308 43.6371" stroke="#444053" stroke-miterlimit="10"/>
<path d="M96.2212 36.3174C96.2212 36.3174 92.986 40.3095 93.2239 43.9424" stroke="#444053" stroke-miterlimit="10"/>
<path d="M90.5502 37.8838C90.5502 37.8838 87.3358 40.9561 87.7462 42.6664" stroke="#444053" stroke-miterlimit="10"/>
<path d="M88.6107 36.7983C88.6107 36.7983 85.5959 37.3397 85.1743 36.3496" stroke="#444053" stroke-miterlimit="10"/>
<path d="M71.873 40.6945C71.873 40.6945 76.7498 41.1128 78.9998 38.5962" stroke="#444053" stroke-miterlimit="10"/>
<path d="M161.942 35.249H14.1771C13.0756 35.249 12.1826 36.142 12.1826 37.2435V119.218C12.1826 120.319 13.0756 121.212 14.1771 121.212H161.942C163.043 121.212 163.936 120.319 163.936 119.218V37.2435C163.936 36.142 163.043 35.249 161.942 35.249Z" fill="#F1F0FF"/>
<path d="M161.718 36.458H14.4183C13.3168 36.458 12.4238 37.351 12.4238 38.4525V118.932C12.4238 120.034 13.3168 120.927 14.4183 120.927H161.718C162.82 120.927 163.713 120.034 163.713 118.932V38.4525C163.713 37.351 162.82 36.458 161.718 36.458Z" fill="white"/>
<path d="M161.718 36.458H14.4183C13.3168 36.458 12.4238 37.351 12.4238 38.4525V118.932C12.4238 120.034 13.3168 120.927 14.4183 120.927H161.718C162.82 120.927 163.713 120.034 163.713 118.932V38.4525C163.713 37.351 162.82 36.458 161.718 36.458Z" fill="white"/>
<path d="M161.718 36.458H14.4183C13.3168 36.458 12.4238 37.351 12.4238 38.4525V118.932C12.4238 120.034 13.3168 120.927 14.4183 120.927H161.718C162.82 120.927 163.713 120.034 163.713 118.932V38.4525C163.713 37.351 162.82 36.458 161.718 36.458Z" fill="#F1F0FF"/>
<path d="M162.944 35.4883H13.1851C12.9814 35.4883 12.786 35.5692 12.642 35.7133C12.4979 35.8573 12.417 36.0527 12.417 36.2564V39.5044H163.706V36.2628C163.707 36.1619 163.688 36.0618 163.65 35.9683C163.612 35.8748 163.556 35.7897 163.486 35.7178C163.415 35.6458 163.331 35.5886 163.238 35.5492C163.145 35.5098 163.045 35.4891 162.944 35.4883Z" fill="#DEDBFF"/>
<path d="M15.4447 38.5339C16.0179 38.5339 16.4826 38.0692 16.4826 37.496C16.4826 36.9227 16.0179 36.458 15.4447 36.458C14.8714 36.458 14.4067 36.9227 14.4067 37.496C14.4067 38.0692 14.8714 38.5339 15.4447 38.5339Z" fill="white"/>
<path d="M18.2391 38.5339C18.8124 38.5339 19.2771 38.0692 19.2771 37.496C19.2771 36.9227 18.8124 36.458 18.2391 36.458C17.6659 36.458 17.2012 36.9227 17.2012 37.496C17.2012 38.0692 17.6659 38.5339 18.2391 38.5339Z" fill="white"/>
<path d="M21.034 38.5339C21.6073 38.5339 22.072 38.0692 22.072 37.496C22.072 36.9227 21.6073 36.458 21.034 36.458C20.4608 36.458 19.9961 36.9227 19.9961 37.496C19.9961 38.0692 20.4608 38.5339 21.034 38.5339Z" fill="white"/>
<path d="M147.074 58.2036H24.1775C23.2788 58.2036 22.5503 58.9321 22.5503 59.8308V119.298C22.5503 120.196 23.2788 120.925 24.1775 120.925H147.074C147.973 120.925 148.702 120.196 148.702 119.298V59.8308C148.702 58.9321 147.973 58.2036 147.074 58.2036Z" fill="white"/>
<path d="M52.8712 43.7666H17.8171C17.4766 43.7666 17.2007 44.0426 17.2007 44.383V46.9587C17.2007 47.2991 17.4766 47.5751 17.8171 47.5751H52.8712C53.2116 47.5751 53.4876 47.2991 53.4876 46.9587V44.383C53.4876 44.0426 53.2116 43.7666 52.8712 43.7666Z" fill="#E7E5FF"/>
<path d="M121.296 65.4839H86.2424C85.9019 65.4839 85.626 65.7598 85.626 66.1003V68.676C85.626 69.0164 85.9019 69.2924 86.2424 69.2924H121.296C121.637 69.2924 121.913 69.0164 121.913 68.676V66.1003C121.913 65.7598 121.637 65.4839 121.296 65.4839Z" fill="#F1F0FF"/>
<path d="M141.671 76.1475H86.2424C85.9019 76.1475 85.626 76.4234 85.626 76.7638V79.3396C85.626 79.68 85.9019 79.956 86.2424 79.956H141.671C142.011 79.956 142.287 79.68 142.287 79.3396V76.7638C142.287 76.4234 142.011 76.1475 141.671 76.1475Z" fill="#F1F0FF"/>
<path d="M141.671 82.3755H86.2424C85.9019 82.3755 85.626 82.6515 85.626 82.9919V85.5676C85.626 85.908 85.9019 86.184 86.2424 86.184H141.671C142.011 86.184 142.287 85.908 142.287 85.5676V82.9919C142.287 82.6515 142.011 82.3755 141.671 82.3755Z" fill="#F1F0FF"/>
<path d="M141.671 88.603H86.2424C85.9019 88.603 85.626 88.879 85.626 89.2194V91.7951C85.626 92.1356 85.9019 92.4115 86.2424 92.4115H141.671C142.011 92.4115 142.287 92.1356 142.287 91.7951V89.2194C142.287 88.879 142.011 88.603 141.671 88.603Z" fill="#F1F0FF"/>
<path d="M141.671 94.8306H86.2424C85.9019 94.8306 85.626 95.1065 85.626 95.447V98.0227C85.626 98.3631 85.9019 98.6391 86.2424 98.6391H141.671C142.011 98.6391 142.287 98.3631 142.287 98.0227V95.447C142.287 95.1065 142.011 94.8306 141.671 94.8306Z" fill="#F1F0FF"/>
<path d="M141.671 101.697H30.0065C29.6661 101.697 29.3901 101.973 29.3901 102.314V104.889C29.3901 105.23 29.6661 105.506 30.0065 105.506H141.671C142.012 105.506 142.288 105.23 142.288 104.889V102.314C142.288 101.973 142.012 101.697 141.671 101.697Z" fill="#F1F0FF"/>
<path d="M141.671 107.925H30.0065C29.6661 107.925 29.3901 108.201 29.3901 108.541V111.117C29.3901 111.457 29.6661 111.733 30.0065 111.733H141.671C142.012 111.733 142.288 111.457 142.288 111.117V108.541C142.288 108.201 142.012 107.925 141.671 107.925Z" fill="#F1F0FF"/>
<path d="M141.671 114.153H30.0065C29.6661 114.153 29.3901 114.429 29.3901 114.769V117.345C29.3901 117.685 29.6661 117.961 30.0065 117.961H141.671C142.012 117.961 142.288 117.685 142.288 117.345V114.769C142.288 114.429 142.012 114.153 141.671 114.153Z" fill="#F1F0FF"/>
<path d="M76.2578 63.3711H30.7475C29.9978 63.3711 29.3901 63.9788 29.3901 64.7284V97.3904C29.3901 98.1401 29.9978 98.7478 30.7475 98.7478H76.2578C77.0074 98.7478 77.6151 98.1401 77.6151 97.3904V64.7284C77.6151 63.9788 77.0074 63.3711 76.2578 63.3711Z" fill="#F1F0FF"/>
<path d="M179.654 102.716C179.715 102.557 179.265 101.643 179.265 101.599C179.265 101.554 178.8 101.048 178.8 100.765C178.8 100.482 178.185 99.8708 178.185 99.8708C178.185 99.8708 177.36 99.5291 177.27 98.7833C177.181 98.0376 176.282 98.0248 176.28 98.0248C176.28 98.0248 176.28 97.9578 176.28 97.854C176.298 97.5595 176.261 97.2643 176.17 96.9837C176.064 96.7778 175.881 96.6223 175.661 96.5509C175.661 96.5509 175.57 95.9697 175.391 95.7908C175.291 95.6864 175.219 95.5584 175.182 95.4188C175.146 95.2792 175.145 95.1325 175.18 94.9924C175.271 94.7114 175.06 93.996 174.626 93.8906C174.191 93.7852 173.695 93.6223 173.695 93.6223L173.575 93.6431L173.516 93.6223C173.411 93.6425 173.304 93.6558 173.197 93.6622C173.105 93.6649 173.015 93.6356 172.943 93.5792C172.793 93.4195 171.577 93.1001 171.346 93.1001C171.114 93.1001 170.476 92.8015 170.476 92.8015C170.476 92.8015 170.025 92.4598 169.837 92.3097C169.648 92.1596 169.321 91.6151 169.272 91.532V91.5208C169.217 91.394 169.171 91.2633 169.136 91.1296C169.355 90.8999 169.543 90.6415 169.693 90.3615C169.709 90.3328 169.724 90.304 169.738 90.2737C169.771 90.2737 169.804 90.2689 169.835 90.2593L169.875 90.2434C169.951 90.2041 170.018 90.1503 170.073 90.0851C170.127 90.0199 170.169 89.9445 170.195 89.8633C170.206 89.8308 170.215 89.7978 170.223 89.7643C170.223 89.7531 170.223 89.742 170.223 89.7308L170.238 89.6637C170.237 89.651 170.237 89.6382 170.238 89.6254L170.247 89.5583V89.52C170.247 89.4913 170.247 89.4641 170.258 89.4354C170.268 89.3282 170.284 89.2215 170.305 89.116C170.394 88.712 170.638 88.3703 170.809 87.9982C170.833 87.9455 170.857 87.8912 170.878 87.8385C170.899 87.7858 170.92 87.7187 170.937 87.6581L170.951 87.6022C170.963 87.5575 170.972 87.5128 170.982 87.468C170.991 87.4233 170.982 87.4281 170.993 87.4074C171.003 87.3467 171.011 87.2844 171.017 87.2205C171.045 86.8642 170.991 86.5062 170.857 86.1746C170.745 85.8951 170.578 85.6428 170.464 85.3634C170.292 84.9402 170.246 84.4596 170.036 84.0556C169.866 83.7278 169.584 83.4713 169.242 83.3321C168.9 83.1928 168.519 83.1798 168.168 83.2955C167.849 83.4168 167.558 83.6516 167.228 83.757C166.784 83.8991 166.311 83.7921 165.851 83.7298C165.391 83.6675 164.893 83.6595 164.516 83.9598C164.091 84.3047 163.976 84.953 163.577 85.3315C163.418 85.4911 163.202 85.5917 163.025 85.7386C162.9 85.8385 162.804 85.9697 162.747 86.1187L162.737 86.149C162.733 86.1621 162.73 86.1754 162.728 86.189C162.724 86.2037 162.721 86.2186 162.72 86.2337C162.719 86.2438 162.719 86.2539 162.72 86.264C162.717 86.2905 162.717 86.3173 162.72 86.3439C162.722 86.3691 162.726 86.3941 162.731 86.4189V86.4397C162.731 86.4604 162.742 86.4812 162.75 86.5019C162.758 86.5227 162.75 86.5099 162.75 86.5131C162.75 86.5163 162.768 86.5594 162.777 86.5818L162.792 86.6153C162.792 86.6249 162.792 86.6345 162.804 86.6425C162.861 86.7534 162.908 86.8694 162.943 86.989C162.962 87.0648 162.957 87.1444 162.929 87.2173C162.891 87.3003 162.837 87.3747 162.769 87.4361C162.47 87.7464 162.24 88.1157 162.092 88.5204C162.074 88.5672 162.058 88.6135 162.044 88.6593H162.065C162.108 88.6716 162.152 88.6806 162.196 88.6864C162.221 88.6879 162.246 88.6879 162.271 88.6864C162.374 88.6925 162.477 88.685 162.578 88.6641L162.654 88.6449C162.759 88.6177 162.86 88.5808 162.958 88.5347C162.958 88.5651 162.958 88.5954 162.958 88.6258C162.958 88.6561 162.958 88.6593 162.958 88.6769C162.959 89.3358 163.143 89.9814 163.491 90.5411C163.839 91.1008 164.336 91.5524 164.927 91.845C164.927 91.877 164.935 91.9089 164.939 91.9408L164.949 92.0223L164.909 91.9839C164.909 91.9839 164.639 91.8498 164.384 92.2362C164.196 92.4898 163.942 92.6861 163.649 92.8031C163.649 92.8031 160.918 93.2343 160.813 93.592L159.536 93.667C159.536 93.667 159.085 93.7261 159.041 94.6651C158.996 95.604 158.756 95.6918 158.756 95.6918C158.756 95.6918 158.231 96.6164 158.277 97.0923C158.283 97.2374 158.248 97.3813 158.176 97.5077C158.105 97.6341 157.999 97.7379 157.872 97.8077L157.813 98.6572C157.813 98.6572 157.318 98.5821 157.174 99.1634C157.117 99.4712 156.989 99.7614 156.8 100.011C156.8 100.011 155.975 100.698 155.93 101.278L155.419 101.597C155.419 101.597 154.234 101.329 153.964 100.853C153.964 100.853 153.932 100.821 153.881 100.775V100.763C153.704 100.604 153.329 100.246 153.386 100.327C153.421 100.402 153.43 100.487 153.41 100.567L153.322 100.47L153.086 100.208C153.086 100.208 151.17 98.4129 150.052 98.2707C150.037 98.242 149.964 97.9514 149.772 98.135C149.614 98.2807 149.487 98.4576 149.4 98.6546C149.313 98.8516 149.267 99.0645 149.266 99.2799C149.265 99.4953 149.309 99.7086 149.394 99.9065C149.479 100.104 149.604 100.282 149.761 100.43L151.556 102.105L151.602 102.138L151.987 102.633C151.922 102.793 151.867 102.94 151.828 103.077V103.092L151.799 103.178C151.795 103.187 151.793 103.197 151.791 103.207C151.781 103.235 151.773 103.263 151.765 103.29L151.751 103.338C151.751 103.347 151.751 103.357 151.751 103.366C151.708 103.516 151.681 103.631 151.668 103.695L151.567 103.663L151.665 103.706V103.721C151.665 103.742 151.665 103.753 151.665 103.753L151.757 103.793C152.283 104.021 154.905 105.172 155.039 105.346C155.173 105.52 156.179 106.107 157.08 105.629C157.98 105.152 158.173 104.423 158.173 104.423C158.173 104.423 159.044 103.216 159.074 103.037C159.104 102.859 159.778 102.651 159.778 102.651C159.778 102.651 159.839 104.645 159.494 105.377C159.149 106.108 158.504 109.339 158.504 109.339C158.546 109.333 158.589 109.333 158.632 109.339L158.593 109.525C158.646 109.515 158.7 109.515 158.753 109.525C158.705 109.893 158.434 111.601 158.434 111.601C158.434 111.601 158.344 112.376 158.194 112.644C158.044 112.912 158.035 114.313 158.035 114.313L157.793 115.325C157.793 115.325 157.825 115.395 157.884 115.499C158.046 115.844 158.282 116.149 158.574 116.392C158.555 116.551 158.514 116.707 158.453 116.855C158.36 117.081 158.319 117.326 158.333 117.57C158.333 117.57 158.079 118.717 158.108 119.044C158.137 119.372 157.948 120.176 157.948 120.176L157.678 122.768C157.678 122.768 157.5 125.016 157.589 125.628C157.632 126.108 157.612 126.591 157.528 127.065C157.528 127.065 157.709 128.838 157.664 129.031C157.619 129.224 157.394 130.059 157.528 130.521C157.662 130.982 157.589 132.249 157.589 132.249C157.589 132.249 157.678 133.917 157.784 134.454C157.84 134.86 157.83 135.273 157.753 135.675C157.753 135.675 157.648 136.822 157.603 136.822C157.559 136.822 157.169 137.611 157.963 138.385C158.756 139.16 158.264 139.04 158.264 139.04C158.264 139.04 157.626 138.721 157.709 139.369C157.779 139.977 157.878 139.819 157.888 139.802L157.738 140.292L157.843 140.306L157.757 140.41C157.666 140.526 157.565 140.633 157.453 140.729C157.336 140.844 157.267 140.998 157.258 141.161C157.258 141.161 156.149 142.368 155.114 142.978C154.569 143.297 154.1 143.57 153.895 143.797C153.71 143.998 153.736 144.161 154.124 144.289C154.933 144.557 156.359 144.691 157.378 144.348C157.989 144.146 158.538 143.793 158.975 143.321C158.975 143.321 159.614 142.992 160.253 143.112C160.891 143.232 162.143 142.413 162.143 142.413L162.119 142.202L162.054 141.592C162.012 141.541 161.98 141.481 161.962 141.418C161.944 141.354 161.939 141.287 161.948 141.221C161.956 141.041 161.938 140.86 161.896 140.685C161.885 140.626 161.873 140.567 161.862 140.512L161.977 140.49C161.977 140.49 161.829 139.731 162.099 139.581C162.368 139.431 162.292 137.481 162.292 137.481C162.292 137.481 161.948 137.034 161.768 136.961C161.588 136.887 161.752 135.961 161.784 135.843C161.816 135.725 162.054 133.414 162.054 133.414C162.054 133.414 161.963 132.686 162.083 132.373C162.202 132.06 161.932 130.853 161.932 130.853C161.908 130.798 161.901 130.736 161.915 130.677C161.928 130.618 161.961 130.564 162.008 130.526C162.167 130.347 162.113 128.753 162.113 128.753C162.113 128.753 162.099 127.955 162.099 127.739C162.099 127.523 162.277 126.771 162.443 126.519C162.61 126.267 162.503 125.476 162.503 125.476L162.512 125.417C162.512 125.395 162.512 125.366 162.525 125.333L162.538 125.253C162.611 124.816 162.709 124.385 162.831 123.959C163.026 123.335 163.251 122.233 163.251 122.233L164.646 118.595L164.661 118.552C164.661 118.552 165.3 119.744 165.3 120.847C165.3 120.847 165.46 122.172 165.422 122.53C165.383 122.888 165.525 124.569 165.525 124.569C165.525 124.569 165.72 126.982 165.72 127.086C165.72 127.19 165.961 129.052 166.111 129.336C166.262 129.62 165.961 130.482 165.87 130.572C165.779 130.661 165.901 132.851 165.901 132.851C165.901 132.851 165.675 134.578 165.631 134.936C165.586 135.294 165.406 136.664 165.556 137.2C165.706 137.737 165.645 137.81 165.645 137.81C165.645 137.81 166.186 138.363 165.87 138.408C165.756 138.433 165.648 138.482 165.553 138.552C165.459 138.622 165.381 138.712 165.324 138.815C165.267 138.917 165.233 139.031 165.224 139.148C165.214 139.265 165.23 139.383 165.27 139.493C165.458 140.039 165.679 140.572 165.931 141.09L166.18 141.038V141.215L166.198 142.103C166.198 142.103 166.303 142.951 166.242 143.145C166.199 143.286 166.139 143.954 166.11 144.303C166.099 144.431 166.092 144.516 166.092 144.516C166.092 144.516 166.092 145.304 167.758 145.067C169.423 144.829 169.722 144.172 169.722 144.172L169.735 144.091C169.759 143.941 169.813 143.621 169.858 143.443C169.917 143.205 169.379 142.131 169.379 142.131C169.379 142.131 169.289 141.402 169.139 141.239C169.076 141.142 169.035 141.033 169.018 140.919C169.005 140.859 168.992 140.797 168.983 140.736C169.02 140.74 169.057 140.747 169.094 140.755C169.094 140.755 169.003 140.234 169.35 140.07C169.696 139.905 169.604 139.564 169.559 139.415C169.514 139.267 169.693 138.432 169.693 138.432C169.668 138.348 169.665 138.26 169.687 138.175C169.708 138.091 169.751 138.014 169.813 137.953C170.024 137.743 170.188 136.284 170.188 136.284L170.219 130.653C170.219 130.653 170.324 129.655 170.204 129.253C170.084 128.85 169.965 128.076 170.129 127.867C170.294 127.658 170.143 126.692 170.143 126.692C170.143 126.692 170.143 124.651 170.369 124.137C170.594 123.622 170.519 120.427 170.519 120.427L170.578 118.327C170.578 118.327 171.068 117.864 170.953 115.453C171.475 115.419 172.071 115.4 172.154 115.474C172.314 115.608 173.383 116.293 174.014 115.86C174.275 115.681 174.525 115.488 174.763 115.28L174.498 110.809C174.658 111.058 174.763 111.223 174.763 111.223C174.763 110.598 176.534 108.572 176.534 108.572C176.534 108.572 178.184 106.442 178.543 106.19C178.902 105.937 179.608 104.593 179.608 104.593C179.712 104.337 179.833 104.089 179.969 103.849C180.135 103.595 179.595 102.879 179.654 102.716ZM175.785 104.28C175.335 104.324 174.39 105.353 174.375 105.576C174.342 105.724 174.274 105.861 174.176 105.976C174.176 105.886 174.161 105.795 174.153 105.702C174.048 104.385 173.933 102.782 173.993 102.627C174.083 102.359 174.053 101.151 174.053 101.151L174.07 101.128C174.372 102.063 175.311 103.165 175.311 103.165C175.311 103.165 175.471 103.644 175.672 103.655C175.873 103.667 175.785 104.28 175.785 104.28Z" fill="url(#paint0_linear)"/>
<path d="M151.737 103.939C151.737 103.939 152.285 101.065 154.043 101.065L155.33 103.711L154.472 104.302C154.472 104.302 152.609 104.353 151.737 103.939Z" fill="#65617D"/>
<path opacity="0.1" d="M155.33 103.703L154.472 104.294C154.472 104.294 153.161 104.335 152.224 104.105C152.057 104.068 151.893 104.015 151.737 103.946L151.746 103.899V103.89C151.826 103.529 151.938 103.177 152.079 102.836C152.133 102.706 152.194 102.574 152.261 102.441C152.518 101.946 152.88 101.459 153.378 101.22C153.561 101.128 153.76 101.073 153.964 101.06H154.043L154.071 101.119L154.506 102.013L155.33 103.703Z" fill="black"/>
<path d="M169.934 115.617C169.934 115.617 171.781 115.44 171.944 115.574C172.107 115.708 173.156 116.387 173.776 115.957C174.395 115.528 173.983 114.041 173.983 113.977C173.983 113.913 173.924 111.804 173.924 111.804L172.816 110.311L171.427 107.695L168.587 107.414L168.661 111.566L168.646 113.694L169.934 115.617Z" fill="#65617D"/>
<path opacity="0.1" d="M169.934 115.617C169.934 115.617 171.781 115.44 171.944 115.574C172.107 115.708 173.156 116.387 173.776 115.957C174.395 115.528 173.983 114.041 173.983 113.977C173.983 113.913 173.924 111.804 173.924 111.804L172.816 110.311L171.427 107.695L168.587 107.414L168.661 111.566L168.646 113.694L169.934 115.617Z" fill="black"/>
<path d="M153.673 100.984C153.673 100.984 153.524 102.786 152.395 102.817C152.395 102.817 152.076 102.625 151.648 102.304C150.661 101.565 149.093 100.145 149.527 98.8246C150.149 96.9324 153.164 100.421 153.164 100.421L153.397 100.682L153.673 100.984Z" fill="#FBBEBE"/>
<path opacity="0.1" d="M153.673 100.983C153.673 100.983 153.524 102.786 152.395 102.817C152.395 102.817 152.076 102.625 151.648 102.304L151.552 102.181C151.744 102.279 151.954 102.333 152.169 102.341C152.337 102.347 152.504 102.303 152.647 102.212C152.789 102.122 152.901 101.99 152.967 101.835C153.088 101.602 153.195 101.363 153.286 101.118C153.339 100.974 153.377 100.826 153.4 100.675L153.673 100.983Z" fill="black"/>
<path d="M153.185 104.251L152.933 103.931L152.082 102.836L151.649 102.276C151.84 102.373 152.05 102.428 152.264 102.435C152.433 102.443 152.6 102.398 152.742 102.307C152.885 102.217 152.997 102.085 153.062 101.929C153.181 101.697 153.285 101.458 153.374 101.214C153.514 100.814 153.511 100.61 153.461 100.54C153.412 100.469 153.781 100.808 153.95 100.974L154.031 101.051L154.062 101.111L154.507 101.974C154.508 101.986 154.508 101.998 154.507 102.01C154.539 102.282 154.683 104.005 153.185 104.251Z" fill="#E7EFFD"/>
<path d="M162.041 142.294C162.041 142.294 160.798 143.109 160.177 142.989C159.747 142.935 159.31 143.007 158.92 143.197C158.493 143.664 157.954 144.015 157.354 144.217C156.348 144.557 154.944 144.423 154.146 144.158C153.769 144.032 153.739 143.869 153.921 143.669C154.103 143.47 154.585 143.176 155.121 142.856C156.142 142.25 157.236 141.054 157.236 141.054C157.243 140.891 157.311 140.738 157.427 140.624C157.537 140.528 157.637 140.421 157.726 140.305C157.886 140.118 158.034 139.921 158.034 139.921L161.693 140.059C161.693 140.059 161.755 140.322 161.804 140.592C161.846 140.766 161.863 140.945 161.855 141.124C161.846 141.189 161.851 141.256 161.869 141.319C161.887 141.383 161.917 141.442 161.959 141.493L162.025 142.096L162.041 142.294Z" fill="#65617D"/>
<path d="M169.677 143.32C169.634 143.497 169.58 143.813 169.556 143.958C169.556 144.008 169.545 144.04 169.545 144.04C169.545 144.04 169.249 144.69 167.608 144.926C165.966 145.162 165.968 144.38 165.968 144.38L165.984 144.167C166.012 143.823 166.072 143.16 166.115 143.019C166.174 142.828 166.072 141.985 166.072 141.985L166.054 141.103L166.041 140.491L168.756 140.21C168.773 140.414 168.803 140.616 168.844 140.816C168.86 140.93 168.9 141.039 168.963 141.135C169.11 141.295 169.2 142.021 169.2 142.021C169.2 142.021 169.741 143.083 169.677 143.32Z" fill="#65617D"/>
<path opacity="0.1" d="M161.693 140.058C161.693 140.058 161.756 140.322 161.805 140.592C161.411 140.663 159.686 140.962 159.25 140.751C158.762 140.515 157.712 140.382 157.712 140.382L157.73 140.322C157.89 140.135 158.038 139.938 158.038 139.938L161.693 140.058Z" fill="black"/>
<path opacity="0.1" d="M168.853 140.82C168.164 140.703 166.652 140.98 166.058 141.107L166.045 140.496L168.76 140.215C168.779 140.418 168.81 140.62 168.853 140.82Z" fill="black"/>
<path d="M170.391 118.412L170.333 120.487C170.333 120.487 170.407 123.665 170.185 124.16C169.963 124.655 169.963 126.688 169.963 126.688C169.963 126.688 170.111 127.646 169.948 127.855C169.785 128.065 169.904 128.831 170.022 129.23C170.14 129.629 170.036 130.619 170.036 130.619L170.007 136.208C170.007 136.208 169.848 137.657 169.637 137.864C169.576 137.926 169.533 138.004 169.513 138.088C169.492 138.172 169.494 138.26 169.519 138.343C169.519 138.343 169.341 139.171 169.386 139.319C169.431 139.468 169.519 139.806 169.18 139.969C168.842 140.132 168.928 140.649 168.928 140.649C168.115 140.456 165.809 140.969 165.809 140.969C165.56 140.455 165.343 139.926 165.158 139.386C165.118 139.277 165.102 139.16 165.111 139.044C165.12 138.927 165.153 138.814 165.209 138.712C165.266 138.61 165.343 138.521 165.436 138.451C165.529 138.381 165.636 138.332 165.75 138.307C166.06 138.264 165.528 137.716 165.528 137.716C165.528 137.716 165.587 137.642 165.439 137.109C165.29 136.576 165.469 135.217 165.514 134.862C165.558 134.508 165.779 132.786 165.779 132.786C165.779 132.786 165.661 130.613 165.75 130.525C165.84 130.437 166.133 129.578 165.986 129.299C165.84 129.019 165.602 127.17 165.602 127.063C165.602 126.956 165.41 124.564 165.41 124.564C165.41 124.564 165.233 122.894 165.277 122.539C165.322 122.185 165.158 120.869 165.158 120.869C165.158 119.775 164.519 118.592 164.519 118.592L164.503 118.635L163.13 122.27C163.13 122.27 162.908 123.363 162.716 123.985C162.595 124.404 162.499 124.831 162.427 125.262L162.414 125.342L162.401 125.425L162.392 125.484C162.392 125.484 162.494 126.266 162.331 126.519C162.15 126.9 162.035 127.31 161.993 127.731C161.993 127.938 162.007 128.737 162.007 128.737C162.007 128.737 162.066 130.318 161.903 130.493C161.859 130.532 161.827 130.583 161.814 130.641C161.801 130.698 161.806 130.759 161.83 130.813C161.83 130.813 162.095 132.01 161.977 132.32C161.859 132.63 161.948 133.355 161.948 133.355C161.948 133.355 161.712 135.646 161.681 135.765C161.651 135.883 161.49 136.799 161.667 136.873C161.844 136.946 162.184 137.39 162.184 137.39C162.184 137.39 162.258 139.327 161.993 139.474C161.728 139.621 161.873 140.376 161.873 140.376C161.873 140.376 159.73 140.79 159.243 140.553C158.756 140.317 157.705 140.185 157.705 140.185L157.852 139.706C157.842 139.723 157.745 139.881 157.676 139.276C157.601 138.637 158.223 138.957 158.223 138.957C158.223 138.957 158.711 139.075 157.927 138.307C157.143 137.539 157.528 136.755 157.573 136.755C157.617 136.755 157.72 135.616 157.72 135.616C157.795 135.216 157.805 134.807 157.75 134.404C157.646 133.872 157.558 132.216 157.558 132.216C157.558 132.216 157.632 130.96 157.498 130.501C157.363 130.043 157.587 129.224 157.632 129.023C157.676 128.821 157.498 127.071 157.498 127.071C157.581 126.597 157.601 126.114 157.558 125.634C157.469 125.027 157.646 122.795 157.646 122.795L157.913 120.224C157.913 120.224 158.104 119.426 158.072 119.106C158.04 118.787 158.294 117.643 158.294 117.643C158.28 117.401 158.32 117.158 158.413 116.933C158.561 116.637 158.62 115.655 158.62 115.655L160.04 112.404L160.734 109.53L170.121 109.44C170.121 109.44 170.154 109.69 170.212 110.141C170.269 110.593 170.349 111.259 170.438 112.088C170.52 112.839 170.609 113.722 170.697 114.704C170.983 117.849 170.391 118.412 170.391 118.412Z" fill="#3F3D56"/>
<path d="M169.517 92.5281L167.331 94.8675C167.331 94.8675 164.524 93.7497 164.819 93.3585C164.933 93.21 164.915 92.7405 164.85 92.2231C164.746 91.404 164.53 90.4666 164.53 90.4666C164.53 90.4666 169.437 89.6682 169.022 90.4954C168.89 90.8075 168.879 91.1577 168.992 91.4774C169.11 91.8533 169.288 92.2079 169.517 92.5281Z" fill="#FBBEBE"/>
<path opacity="0.1" d="M169.016 90.487C168.866 90.7905 168.794 90.8192 168.888 91.145C168.249 91.8332 167.43 92.5821 166.415 92.5821C165.871 92.5827 165.336 92.457 164.85 92.2148C164.746 91.3957 164.53 90.4583 164.53 90.4583C164.53 90.4583 169.431 89.6599 169.016 90.487Z" fill="black"/>
<path d="M169.933 88.98C169.933 89.9132 169.563 90.8082 168.903 91.4681C168.243 92.128 167.348 92.4987 166.415 92.4987C165.481 92.4987 164.586 92.128 163.927 91.4681C163.267 90.8082 162.896 89.9132 162.896 88.98C162.896 88.9625 162.896 88.9465 162.896 88.9289C162.899 88.467 162.994 88.0102 163.174 87.5846C163.353 87.1591 163.615 86.7732 163.944 86.4489C164.273 86.1246 164.663 85.8683 165.091 85.6946C165.519 85.5209 165.977 85.4333 166.439 85.4366C166.901 85.44 167.358 85.5343 167.784 85.7142C168.209 85.8941 168.595 86.156 168.919 86.485C169.244 86.8141 169.5 87.2038 169.674 87.6319C169.847 88.06 169.935 88.5181 169.932 88.98H169.933Z" fill="#FBBEBE"/>
<path opacity="0.1" d="M170.443 112.19C169.977 112.19 168.425 112.206 166.691 112.235H166.67L166.097 112.245H166.079C164.022 112.277 161.996 111.876 161.181 111.951C159.452 112.111 161.803 110.354 161.803 110.354C163.091 110.666 164.417 110.8 165.742 110.752L166.24 110.726C167.812 110.637 169.391 110.49 170.216 110.247C170.274 110.701 170.354 111.365 170.443 112.19Z" fill="black"/>
<path d="M170.443 112.101C169.977 112.101 168.425 112.119 166.691 112.146H166.67L166.097 112.155H166.079C164.022 112.189 161.996 111.786 161.181 111.863C159.452 112.023 161.803 110.266 161.803 110.266C163.091 110.579 164.417 110.713 165.742 110.664L166.24 110.638C167.812 110.55 169.391 110.402 170.216 110.159C170.274 110.611 170.354 111.275 170.443 112.101Z" fill="#5F5D7E"/>
<path opacity="0.1" d="M165.469 93.5036L162.754 94.7811L160.654 111.012C160.654 111.012 161.897 110.449 162.606 110.804C163.315 111.158 165.502 110.834 165.502 110.834C165.502 110.834 167.099 110.745 167.336 110.924C167.572 111.103 170.352 110.184 170.352 110.184C170.352 110.184 170.855 109.067 170.47 108.883C170.085 108.699 170.588 106.967 170.588 106.967L170.352 95.2586L169.873 93.7511L168.595 92.9814L167.296 94.0162L166.674 94.1056L165.469 93.5036Z" fill="black"/>
<path d="M165.469 93.3267L162.754 94.6042L160.649 110.836C160.649 110.836 161.892 110.274 162.601 110.629C163.31 110.983 165.497 110.659 165.497 110.659C165.497 110.659 167.094 110.57 167.331 110.747C167.567 110.924 170.347 110.009 170.347 110.009C170.347 110.009 170.85 108.891 170.465 108.708C170.08 108.524 170.583 106.791 170.583 106.791L170.347 95.0833L169.868 93.5758L168.591 92.8062L167.291 93.8409L166.67 93.9303L165.469 93.3267Z" fill="#E7EFFD"/>
<path opacity="0.1" d="M165.424 94.0802C165.424 94.0802 166.208 95.0111 166.194 95.198C166.18 95.3848 166.149 95.8495 166.149 95.8495L165.558 97.0455C165.558 97.0455 165.239 98.5386 165.239 98.85C165.239 99.1614 164.722 101.85 164.722 101.85L164.088 105.994L163.304 111.424L164.102 112.798L165.049 112L166.306 102.333L166.571 100.426C166.571 100.426 166.852 96.996 166.852 96.6415C166.822 96.2105 166.768 95.7814 166.692 95.3561C166.692 95.3561 166.885 94.4682 167.684 94.2622C168.482 94.0562 167.623 94.2175 167.623 94.2175L167.167 93.8486L166.767 94.0083C166.767 94.0083 165.661 93.6666 165.424 94.0802Z" fill="black"/>
<path d="M165.336 93.991C165.336 93.991 166.119 94.922 166.104 95.1088C166.09 95.2956 166.06 95.7587 166.06 95.7587L165.469 96.9563C165.469 96.9563 165.15 98.4494 165.15 98.7592C165.15 99.069 164.632 101.76 164.632 101.76L164.013 105.899L163.229 111.328L164.027 112.703L164.972 111.904L166.229 102.237L166.496 100.33C166.496 100.33 166.777 96.9005 166.777 96.546C166.747 96.1144 166.693 95.6847 166.617 95.2589C166.617 95.2589 166.809 94.3726 167.607 94.165C168.406 93.9575 167.548 94.1219 167.548 94.1219L167.09 93.7515L166.691 93.9112C166.691 93.9112 165.573 93.5774 165.336 93.991Z" fill="#6C63FF"/>
<path opacity="0.1" d="M164.819 92.4385C164.819 92.4385 164.7 92.5279 164.67 93.1187C164.64 93.7096 164.226 95.035 164.226 95.035C164.226 95.035 165.764 93.9715 166.532 94.0896L164.819 92.4385Z" fill="black"/>
<path d="M164.819 92.2612C164.819 92.2612 164.7 92.3507 164.67 92.9415C164.64 93.5323 164.226 94.8577 164.226 94.8577C164.226 94.8577 165.764 93.7942 166.532 93.9124L164.819 92.2612Z" fill="#E7EFFD"/>
<path opacity="0.1" d="M169.017 91.9658L166.593 94.0944C166.593 94.0944 168.632 95.3064 168.899 95.6018C169.165 95.8973 169.43 92.7052 169.43 92.7052L169.017 91.9658Z" fill="black"/>
<path d="M169.106 91.7886L166.682 93.9172C166.682 93.9172 168.722 95.1292 168.988 95.4246C169.253 95.72 169.519 92.5279 169.519 92.5279L169.106 91.7886Z" fill="#E7EFFD"/>
<path opacity="0.1" d="M164.907 92.4386C164.907 92.4386 164.642 92.306 164.389 92.6909C164.205 92.9414 163.955 93.1356 163.666 93.2514C163.666 93.2514 160.975 93.6809 160.871 94.0354L159.615 94.1089C159.615 94.1089 159.171 94.1679 159.136 95.1005C159.101 96.0331 158.855 96.1193 158.855 96.1193C158.855 96.1193 158.337 97.0359 158.376 97.5086C158.381 97.6523 158.347 97.7949 158.277 97.9204C158.206 98.0458 158.102 98.1492 157.976 98.2192L159.824 103.022C159.824 103.022 159.883 105.004 159.543 105.728C159.203 106.451 158.567 109.661 158.567 109.661C158.567 109.661 158.834 109.602 158.818 109.779C158.802 109.956 158.499 111.893 158.499 111.893C158.499 111.893 158.409 112.661 158.262 112.928C158.115 113.194 158.103 114.582 158.103 114.582L157.866 115.588C157.866 115.588 158.427 116.845 159.284 116.668C160.142 116.49 161.692 113.134 161.692 113.134L162.682 109.512L163.452 105.935L163.674 103.511L164.028 98.1441L164.546 94.5975C164.546 94.5975 165.114 92.6909 164.907 92.4386Z" fill="black"/>
<path d="M164.818 92.2613C164.818 92.2613 164.552 92.1288 164.301 92.5136C164.116 92.7641 163.865 92.9581 163.576 93.0741C163.576 93.0741 160.885 93.5037 160.782 93.8582L159.527 93.9316C159.527 93.9316 159.083 93.9907 159.038 94.9217C158.993 95.8526 158.757 95.942 158.757 95.942C158.757 95.942 158.239 96.8586 158.278 97.3313C158.284 97.4752 158.25 97.6179 158.179 97.7434C158.109 97.8689 158.005 97.9723 157.879 98.0419L159.733 102.852C159.733 102.852 159.792 104.833 159.451 105.557C159.111 106.28 158.476 109.49 158.476 109.49C158.476 109.49 158.742 109.431 158.728 109.608C158.714 109.785 158.409 111.721 158.409 111.721C158.409 111.721 158.321 112.49 158.172 112.755C158.024 113.02 158.013 114.411 158.013 114.411L157.776 115.417C157.776 115.417 158.338 116.674 159.196 116.495C160.053 116.316 161.606 112.963 161.606 112.963L162.596 109.341L163.364 105.764L163.576 103.331L163.931 97.9637L164.448 94.4171C164.448 94.4171 165.024 92.5136 164.818 92.2613Z" fill="#65617D"/>
<path opacity="0.1" d="M155.33 103.703L154.472 104.293C154.472 104.293 153.161 104.335 152.224 104.105L151.745 103.893L151.649 103.851L151.748 103.883C152.129 104.019 152.542 104.033 152.931 103.925C154.145 103.516 154.011 101.513 153.963 101.06C153.963 101.014 153.955 100.985 153.953 100.974V100.985C153.97 101.012 153.989 101.038 154.009 101.063L154.063 101.121L154.507 101.973C154.508 101.985 154.508 101.998 154.507 102.01L155.33 103.703Z" fill="black"/>
<path d="M158.299 97.9238L157.886 98.042L157.826 98.8835C157.826 98.8835 157.347 98.8101 157.205 99.3865C157.149 99.6921 157.022 99.9806 156.836 100.23C156.836 100.23 156.024 100.91 155.979 101.486L155.476 101.796C155.476 101.796 154.309 101.53 154.039 101.057C154.039 101.057 154.572 104.87 151.733 103.931C151.733 103.931 154.911 105.32 155.059 105.514C155.208 105.707 156.177 106.267 157.07 105.795C157.962 105.322 158.149 104.597 158.149 104.597C158.149 104.597 159.007 103.399 159.035 103.222C159.064 103.045 159.73 102.837 159.73 102.837L161.007 99.7634L158.299 97.9238Z" fill="#65617D"/>
<path opacity="0.1" d="M168.677 93.7399L169.105 91.7886C169.105 91.7886 169.298 92.4273 169.49 92.5726L170.129 93.0517C170.129 93.0517 170.767 93.3471 170.986 93.3471C171.205 93.3471 172.406 93.6665 172.553 93.8262C172.699 93.9858 173.292 93.8709 173.292 93.8709C173.292 93.8709 173.779 94.0306 174.208 94.1375C174.638 94.2445 174.847 94.9504 174.755 95.2314C174.719 95.3712 174.719 95.5177 174.756 95.6573C174.792 95.7969 174.863 95.9251 174.962 96.0298C175.139 96.2071 175.229 96.7835 175.229 96.7835C175.446 96.8545 175.626 97.0083 175.73 97.2115C175.879 97.5309 175.834 98.2462 175.834 98.2462L173.632 101.351C173.632 101.351 173.661 102.548 173.573 102.815C173.485 103.082 173.883 107.605 173.883 107.605L174.341 115.38C174.106 115.587 173.859 115.779 173.602 115.957C173.469 116.016 173.337 113.207 173.337 113.105C173.337 113.003 169.921 107.995 169.921 107.995C169.921 107.995 169.463 107.256 169.463 107.093C169.463 106.93 169.035 105.437 169.035 105.437L168.385 102.563L168.677 93.7399Z" fill="black"/>
<path d="M176.015 98.0789C176.015 98.1811 176.015 98.2482 176.015 98.2482L173.815 101.349C173.815 101.349 173.845 102.547 173.756 102.814C173.705 102.973 173.816 104.559 173.915 105.865C173.99 106.807 174.059 107.603 174.059 107.603L174.254 110.9L174.517 115.371C174.282 115.578 174.035 115.77 173.778 115.948C173.645 116.007 173.513 113.198 173.513 113.094C173.513 112.99 170.097 107.984 170.097 107.984C170.097 107.984 169.639 107.245 169.639 107.082C169.639 106.919 169.211 105.426 169.211 105.426L168.561 102.552L168.856 93.7419L169.107 91.7905C169.107 91.7905 169.478 92.4293 169.669 92.573L170.308 93.0616C170.308 93.0616 170.947 93.357 171.165 93.357C171.384 93.357 172.585 93.6764 172.732 93.8361C172.879 93.9958 173.471 93.8808 173.471 93.8808C173.471 93.8808 173.96 94.0405 174.388 94.1475C174.816 94.2545 175.027 94.9603 174.934 95.2413C174.899 95.3811 174.899 95.5276 174.935 95.6672C174.972 95.8068 175.043 95.9349 175.142 96.0398C175.319 96.217 175.408 96.7935 175.408 96.7935C175.625 96.8644 175.806 97.0182 175.91 97.2214C175.997 97.4985 176.032 97.7891 176.015 98.0789Z" fill="#65617D"/>
<path opacity="0.1" d="M157.945 137.465C158.018 137.465 161.123 137.584 161.063 138.087C161.004 138.59 157.945 137.465 157.945 137.465Z" fill="black"/>
<path opacity="0.1" d="M158.64 138.302C158.64 138.302 160.724 138.642 160.177 138.952C159.631 139.261 158.64 138.302 158.64 138.302Z" fill="black"/>
<path opacity="0.1" d="M166.385 137.141C166.385 137.141 169.844 137.437 169.327 137.82C168.809 138.203 167.583 138.264 167.524 138.278C167.465 138.292 166.385 137.141 166.385 137.141Z" fill="black"/>
<path opacity="0.1" d="M165.972 138.663C165.972 138.663 167.888 138.982 167.952 139.358C168.016 139.733 165.972 138.663 165.972 138.663Z" fill="black"/>
<path opacity="0.1" d="M167.035 129.764C167.035 129.764 168.792 130.177 168.899 130.458L167.035 129.764Z" fill="black"/>
<path opacity="0.1" d="M160.255 131.035C160.255 131.035 159.338 131.301 160.226 131.833C161.114 132.365 160.255 131.035 160.255 131.035Z" fill="black"/>
<path opacity="0.1" d="M164.316 116.829C164.42 116.829 166.031 116.297 166.593 116.534C166.995 116.684 167.419 116.764 167.848 116.77L164.316 116.829Z" fill="black"/>
<path opacity="0.1" d="M164.524 118.514L164.508 118.661L163.13 122.27C163.13 122.27 162.908 123.363 162.716 123.985C162.595 124.404 162.499 124.831 162.427 125.262L163.647 117.698L164.524 118.514Z" fill="black"/>
<path d="M166.67 112.146L166.097 112.155H166.079L165.742 110.665L166.24 110.638L166.67 112.146Z" fill="#3F3D56"/>
<path d="M173.643 110.341L173.275 110.644L172.046 111.655C172.046 111.655 168.721 113.429 167.805 111.745C166.997 110.26 170.767 109.199 171.675 108.968L171.869 108.921L173.643 110.341Z" fill="#FBBEBE"/>
<path opacity="0.1" d="M159.438 95.8096C159.438 95.8096 160.087 96.105 160.236 96.5186C160.384 96.9322 159.438 95.8096 159.438 95.8096Z" fill="black"/>
<path opacity="0.1" d="M157.427 100.244C157.427 100.244 156.482 101.397 156.865 101.841C157.249 102.285 157.427 100.244 157.427 100.244Z" fill="black"/>
<path opacity="0.1" d="M174.338 96.4644C174.338 96.4644 173.452 96.5538 173.421 97.3219L174.338 96.4644Z" fill="black"/>
<path opacity="0.1" d="M166.119 108.581C166.208 108.492 168.247 105.477 168.722 105.744L166.119 108.581Z" fill="black"/>
<path opacity="0.1" d="M169.934 88.9799C169.934 89.5593 169.791 90.1299 169.517 90.6406H169.491C169.268 90.5927 169.151 90.334 168.982 90.1711C168.877 90.0713 168.744 90.0069 168.601 89.9868C168.457 89.9668 168.312 89.9921 168.184 90.0593C168.054 90.1367 167.949 90.2487 167.879 90.3827C167.81 90.5167 167.779 90.6674 167.791 90.8178C167.679 90.3388 167.714 89.8406 167.604 89.3663C167.494 88.892 167.163 88.4082 166.71 88.4082C166.515 88.4082 166.286 88.48 166.146 88.3331C166.061 88.2453 166.044 88.1064 165.986 87.9994C165.667 87.474 164.677 87.7391 164.274 88.009C163.872 88.2788 163.404 88.7068 162.904 88.9367C162.911 88.0037 163.288 87.1117 163.953 86.4567C164.617 85.8018 165.515 85.4377 166.448 85.4444C167.381 85.4512 168.273 85.8283 168.928 86.4929C169.583 87.1574 169.947 88.0548 169.94 88.9878L169.934 88.9799Z" fill="black"/>
<path d="M165.98 87.9021C166.044 88.0091 166.061 88.1481 166.14 88.2375C166.28 88.3828 166.509 88.3077 166.703 88.3109C167.157 88.3189 167.489 88.7996 167.598 89.2691C167.706 89.7385 167.673 90.2463 167.786 90.719C167.773 90.5688 167.803 90.4179 167.872 90.284C167.941 90.15 168.047 90.0384 168.177 89.9621C168.305 89.8951 168.451 89.8698 168.594 89.8895C168.737 89.9093 168.871 89.9732 168.976 90.0723C169.145 90.232 169.262 90.4954 169.485 90.5417C169.709 90.588 169.923 90.3741 170.002 90.1393C170.06 89.8968 170.103 89.6509 170.13 89.4032C170.231 88.9433 170.533 88.5648 170.699 88.1257C170.897 87.5922 170.892 87.0045 170.684 86.4746C170.573 86.1967 170.408 85.9476 170.296 85.6761C170.125 85.2562 170.081 84.7803 169.873 84.3795C169.707 84.0548 169.43 83.8003 169.092 83.6615C168.755 83.5228 168.379 83.509 168.032 83.6226C167.713 83.7439 167.432 83.9771 167.106 84.0825C166.668 84.223 166.202 84.1176 165.75 84.0537C165.298 83.9899 164.792 83.9851 164.434 84.2821C164.016 84.6254 163.901 85.2689 163.508 85.6442C163.348 85.8039 163.138 85.9029 162.964 86.0482C162.869 86.1176 162.793 86.208 162.74 86.3123C162.687 86.4165 162.659 86.5317 162.659 86.6486C162.686 86.9552 162.978 87.2331 162.874 87.5173C162.836 87.5991 162.782 87.6725 162.714 87.7329C162.385 88.0784 162.14 88.4954 161.999 88.9513C162.797 89.1972 163.647 88.3253 164.265 87.9133C164.671 87.6435 165.656 87.3784 165.98 87.9021Z" fill="#7C5C5C"/>
<path opacity="0.1" d="M173.643 110.341L173.276 110.644C172.957 110.103 171.619 109.024 171.619 109.024L171.676 108.968L171.869 108.921L173.643 110.341Z" fill="black"/>
<path d="M173.997 109.793C173.997 109.793 173.866 110.122 173.729 110.407C173.592 110.691 173.443 110.95 173.437 110.74C173.421 110.325 171.708 108.936 171.708 108.936L171.939 108.709L172.209 108.447L173.997 109.793Z" fill="#E7EFFD"/>
<path opacity="0.1" d="M174.057 107.606L174.252 110.903C173.792 110.189 172.532 108.359 171.723 108.418L173.688 106.157C173.77 106.066 173.845 105.97 173.914 105.868C173.989 106.81 174.057 107.606 174.057 107.606Z" fill="black"/>
<path opacity="0.1" d="M173.998 109.793C173.998 109.793 173.867 110.122 173.73 110.407C173.214 109.701 172.506 108.866 171.939 108.709L172.209 108.447L173.998 109.793Z" fill="black"/>
<path d="M175.477 97.8345L176.009 98.2481C176.009 98.2481 176.897 98.264 176.984 99.0018C177.072 99.7395 177.887 100.081 177.887 100.081C177.887 100.081 178.492 100.688 178.492 100.969C178.492 101.25 178.95 101.752 178.95 101.796C178.95 101.841 179.394 102.742 179.335 102.904C179.276 103.067 179.814 103.776 179.645 104.043C179.512 104.282 179.393 104.529 179.29 104.782C179.29 104.782 178.596 106.113 178.241 106.363C177.887 106.614 176.261 108.73 176.261 108.73C176.261 108.73 174.516 110.739 174.516 111.36C174.516 111.36 172.817 108.522 171.811 108.596L173.776 106.335C173.776 106.335 174.116 105.964 174.132 105.744C174.148 105.523 175.078 104.501 175.522 104.457C175.522 104.457 175.595 103.851 175.403 103.835C175.212 103.819 175.049 103.356 175.049 103.356C175.049 103.356 173.748 101.819 173.733 100.843C173.719 99.8673 175.477 97.8345 175.477 97.8345Z" fill="#65617D"/>
<path opacity="0.1" d="M176.261 99.2383C176.261 99.2383 175.018 100.155 175.285 100.452C175.552 100.749 176.261 99.2383 176.261 99.2383Z" fill="black"/>
<path opacity="0.1" d="M176.319 103.022C176.319 103.022 178.625 102.283 178.862 103.022H176.319Z" fill="black"/>
<path opacity="0.1" d="M162.041 142.294C162.041 142.294 160.798 143.109 160.177 142.989C159.747 142.935 159.31 143.007 158.92 143.196C158.493 143.664 157.954 144.015 157.354 144.217C156.348 144.557 154.944 144.423 154.146 144.158C153.769 144.032 153.739 143.869 153.921 143.669C154.788 143.841 156.728 144.185 157.25 143.936C157.826 143.63 158.379 143.284 158.906 142.901C158.906 142.901 160.184 142.724 160.354 142.724C160.481 142.724 161.463 142.318 162.017 142.085L162.041 142.294Z" fill="black"/>
<path opacity="0.1" d="M169.56 143.963C169.56 144.012 169.549 144.044 169.549 144.044C169.549 144.044 169.253 144.694 167.612 144.931C165.97 145.167 165.972 144.384 165.972 144.384L165.988 144.172C166.507 144.37 167.64 144.589 169.56 143.963Z" fill="black"/>
<path opacity="0.1" d="M160.051 99.061C160.051 99.061 160.051 102.432 159.764 102.764C159.476 103.096 160.051 99.061 160.051 99.061Z" fill="black"/>
<path opacity="0.1" d="M173.377 100.148L173.806 101.352C173.806 101.352 173.976 100.171 173.377 100.148Z" fill="black"/>
<g opacity="0.1">
<path opacity="0.1" d="M162.924 87.2267C163.033 86.9504 162.749 86.6774 162.712 86.3804C162.674 86.4638 162.657 86.5555 162.664 86.647C162.683 86.8722 162.849 87.0814 162.892 87.2858C162.905 87.2671 162.916 87.2473 162.924 87.2267Z" fill="black"/>
<path opacity="0.1" d="M167.831 90.411C167.725 89.9447 167.757 89.4529 167.649 88.985C167.54 88.5171 167.208 88.0269 166.754 88.0269C166.559 88.0269 166.331 88.0972 166.191 87.9518C166.104 87.864 166.088 87.7251 166.031 87.6165C165.712 87.0927 164.721 87.3594 164.317 87.6277C163.714 88.0285 162.88 88.87 162.107 88.6784C162.071 88.7678 162.036 88.8588 162.007 88.9531C162.805 89.199 163.655 88.3271 164.273 87.9151C164.677 87.6468 165.662 87.3818 165.986 87.9055C166.05 88.0125 166.068 88.1514 166.146 88.2409C166.286 88.3862 166.515 88.3111 166.71 88.3143C167.163 88.3223 167.495 88.803 167.604 89.2724C167.712 89.7419 167.679 90.2497 167.792 90.7224C167.784 90.6171 167.797 90.5112 167.831 90.411Z" fill="black"/>
<path opacity="0.1" d="M170.054 89.8566C169.974 90.0914 169.763 90.3069 169.535 90.259C169.306 90.2111 169.196 89.9524 169.027 89.7896C168.922 89.6904 168.789 89.6264 168.646 89.6063C168.503 89.5863 168.357 89.6113 168.229 89.6778C168.105 89.7516 168.004 89.8569 167.935 89.9829C167.866 90.1089 167.832 90.2511 167.836 90.3948C167.895 90.2141 168.019 90.0617 168.184 89.9668C168.312 89.8999 168.458 89.8745 168.601 89.8942C168.744 89.914 168.877 89.9779 168.982 90.077C169.152 90.2367 169.268 90.5002 169.492 90.5465C169.715 90.5928 169.929 90.3788 170.009 90.144C170.052 90.0061 170.08 89.8635 170.091 89.7193C170.081 89.7659 170.069 89.8117 170.054 89.8566Z" fill="black"/>
<path opacity="0.1" d="M170.75 87.8416C170.59 88.2792 170.282 88.6576 170.181 89.1191C170.162 89.2117 170.149 89.3076 170.138 89.4034C170.24 88.9435 170.539 88.5666 170.705 88.1259C170.779 87.929 170.825 87.7225 170.841 87.5127C170.819 87.6245 170.788 87.7345 170.75 87.8416Z" fill="black"/>
</g>
<path d="M149.387 98.5451C149.407 98.5451 149.424 98.5287 149.424 98.5084C149.424 98.4881 149.407 98.4717 149.387 98.4717C149.367 98.4717 149.35 98.4881 149.35 98.5084C149.35 98.5287 149.367 98.5451 149.387 98.5451Z" fill="#E6E8EC"/>
<path d="M163.469 99.332H136.648C136.065 99.332 135.592 99.8046 135.592 100.388V131.526C135.592 132.109 136.065 132.582 136.648 132.582H163.469C164.051 132.582 164.524 132.109 164.524 131.526V100.388C164.524 99.8046 164.051 99.332 163.469 99.332Z" fill="white"/>
<path d="M163.469 99.332H136.648C136.065 99.332 135.592 99.8046 135.592 100.388V131.526C135.592 132.109 136.065 132.582 136.648 132.582H163.469C164.051 132.582 164.524 132.109 164.524 131.526V100.388C164.524 99.8046 164.051 99.332 163.469 99.332Z" fill="#DEDBFF"/>
<path d="M161.993 101.028H138.123C137.54 101.028 137.068 101.501 137.068 102.084V129.831C137.068 130.414 137.54 130.886 138.123 130.886H161.993C162.576 130.886 163.049 130.414 163.049 129.831V102.084C163.049 101.501 162.576 101.028 161.993 101.028Z" fill="white"/>
<path d="M157.968 106.467H141.609C141.061 106.467 140.618 106.957 140.618 107.561V112.361C140.618 112.965 141.061 113.454 141.609 113.454H157.968C158.515 113.454 158.959 112.965 158.959 112.361V107.561C158.959 106.957 158.515 106.467 157.968 106.467Z" fill="#E7E5FF"/>
<path d="M158.086 116.948H141.491V118.695H158.086V116.948Z" fill="#E7E5FF"/>
<path d="M161.579 120.441H138.871V122.188H161.579V120.441Z" fill="#E7E5FF"/>
<path d="M161.579 123.935H138.871V125.682H161.579V123.935Z" fill="#E7E5FF"/>
<path d="M67.0678 88.3413H1.05552C0.472572 88.3413 0 88.8139 0 89.3968V120.535C0 121.118 0.472572 121.591 1.05552 121.591H67.0678C67.6507 121.591 68.1233 121.118 68.1233 120.535V89.3968C68.1233 88.8139 67.6507 88.3413 67.0678 88.3413Z" fill="white"/>
<path d="M67.0678 88.3413H1.05552C0.472572 88.3413 0 88.8139 0 89.3968V120.535C0 121.118 0.472572 121.591 1.05552 121.591H67.0678C67.6507 121.591 68.1233 121.118 68.1233 120.535V89.3968C68.1233 88.8139 67.6507 88.3413 67.0678 88.3413Z" fill="#DEDBFF"/>
<path d="M63.5913 90.0371H4.53013C3.94718 90.0371 3.47461 90.5097 3.47461 91.0926V118.84C3.47461 119.422 3.94718 119.895 4.53013 119.895H63.5913C64.1743 119.895 64.6468 119.422 64.6468 118.84V91.0926C64.6468 90.5097 64.1743 90.0371 63.5913 90.0371Z" fill="white"/>
<path d="M53.3809 96.0269H13.3399C12.8081 96.0269 12.377 96.458 12.377 96.9898V101.215C12.377 101.747 12.8081 102.178 13.3399 102.178H53.3809C53.9127 102.178 54.3438 101.747 54.3438 101.215V96.9898C54.3438 96.458 53.9127 96.0269 53.3809 96.0269Z" fill="#E7E5FF"/>
<path d="M53.2773 106.467H14.8477V108.214H53.2773V106.467Z" fill="#E7E5FF"/>
<path d="M61.1377 109.96H6.98682V111.707H61.1377V109.96Z" fill="#E7E5FF"/>
<path d="M61.1377 113.454H6.98682V115.201H61.1377V113.454Z" fill="#E7E5FF"/>
<path d="M16.6502 145.516C16.8402 144.823 16.9695 144.213 16.9695 144.213C16.9731 143.75 17.0951 143.295 17.324 142.893V142.701L17.3783 141.294C17.2939 141.035 17.187 140.784 17.0589 140.544C16.8226 140.092 17.1388 138.481 17.1388 138.481C17.1388 138.481 18.1656 136.234 17.9931 134.776C17.8206 133.318 20.168 128.416 20.168 128.416C20.1743 127.932 20.125 127.45 20.0211 126.978C20.0022 126.88 19.9969 126.78 20.0051 126.68C20.0043 126.668 20.0043 126.655 20.0051 126.643V126.654C20.0738 125.696 20.8978 123.94 20.8978 123.94L20.9281 120.522C20.9281 120.522 20.5225 118.491 21.4072 115.82C21.7186 114.887 21.923 114.14 22.0571 113.562C22.0731 113.496 22.0874 113.434 22.1002 113.373C20.4906 113.063 19.261 112.811 19.261 112.811C19.261 112.811 20.3517 108.918 21.0175 108.255C21.6834 107.593 22.2679 105.45 22.2679 105.45C22.2679 105.45 22.7054 102.687 22.204 101.857C21.7026 101.026 21.6802 99.6211 21.6802 99.6211C21.6802 99.6211 20.4954 98.6902 20.358 98.2926C20.2207 97.8949 20.0019 96.9991 20.0195 96.536C20.0371 96.0729 20.2063 95.6578 20.1648 95.4102C20.1233 95.1627 20.5656 94.2461 20.3788 93.7958C20.3323 93.6575 20.3107 93.5121 20.3149 93.3663C20.3149 93.3663 20.3149 93.3663 20.3149 93.3535C20.3282 92.9668 20.379 92.5823 20.4666 92.2054C20.8296 91.9216 21.2487 91.718 21.6962 91.6081L21.7265 91.5027L21.8064 91.2297C21.8456 91.2052 21.8862 91.1828 21.9277 91.1626L21.9357 91.062L21.9613 90.6644L21.808 89.7574C21.4886 88.1829 23.5837 88.0312 23.5837 88.0312C23.7186 87.7968 23.9352 87.6206 24.1921 87.5362C24.6168 87.4052 24.1729 89.8851 23.9701 90.0368C23.8104 90.1502 23.3314 90.9151 23.0998 91.2904L23.0615 91.3526C23.0951 91.3847 23.1261 91.4194 23.1541 91.4564L23.0535 91.9946L23.0376 92.076C23.1694 92.2528 23.2743 92.4482 23.3489 92.6557C23.3489 92.6557 22.9513 93.0581 23.0104 93.5275C23.0276 93.8928 22.9734 94.2578 22.8507 94.6022C22.8731 94.5783 23.1525 94.2988 23.4176 94.3787C23.6827 94.4585 24.4204 94.7124 24.4204 94.7124C24.4204 94.7124 24.9745 94.8322 24.9187 94.9535C24.8628 95.0749 25.2748 95.6306 25.2748 95.6306L26.8285 94.2685C26.8461 94.2254 26.862 94.1839 26.878 94.1407C26.9496 93.9399 27.003 93.7331 27.0377 93.5228C26.8739 93.4781 26.7137 93.4209 26.5586 93.3519C26.4029 93.292 26.2638 93.1956 26.153 93.0709C26.0093 92.8856 25.9933 92.6397 25.9374 92.4145C25.8352 91.9738 25.5957 91.5746 25.428 91.1514C25.1468 90.4415 25.0726 89.6663 25.2141 88.9158C25.2482 88.6859 25.3357 88.4671 25.4696 88.2771C25.7283 87.9497 26.177 87.83 26.5107 87.5745C26.8445 87.319 27.068 86.915 27.4513 86.7282C27.7994 86.5589 28.213 86.5972 28.5946 86.6739C29.3357 86.8251 30.0423 87.1126 30.6785 87.5218C30.8925 87.6607 31.1272 87.8204 31.3811 87.7837C31.5918 87.7276 31.7775 87.6022 31.9081 87.4276C31.9074 87.4201 31.9074 87.4127 31.9081 87.4052L31.9256 87.3877C32.0707 87.7461 32.135 88.1321 32.1141 88.5182C32.1141 88.5773 32.1141 88.638 32.1013 88.6971C32.1013 88.7178 32.1013 88.7386 32.1013 88.7593C32.0997 88.7769 32.0997 88.7945 32.1013 88.812C32.1005 88.8385 32.1038 88.8648 32.1109 88.8903C32.1389 88.969 32.1842 89.0405 32.2434 89.0995C32.2868 89.1529 32.3253 89.21 32.3584 89.2703C32.3584 89.2496 32.3472 89.2288 32.3408 89.2081C32.4312 89.3514 32.4789 89.5176 32.4782 89.6871C32.4818 89.8107 32.4365 89.9306 32.352 90.0209C32.2748 90.0924 32.1902 90.1556 32.0997 90.2093C32.1806 90.7892 32.0819 91.38 31.817 91.9021C31.552 92.4242 31.1336 92.8527 30.6178 93.1299C30.5987 93.1715 30.5795 93.2146 30.5619 93.2577C30.3243 93.7652 30.2094 94.3215 30.2266 94.8817C30.2266 94.9216 30.2266 94.9615 30.2394 95.0015C30.2521 95.0414 30.2761 95.0446 30.2921 95.0669C30.2921 95.0669 32.7672 95.1867 33.3708 94.6805C33.9744 94.1743 34.792 96.0266 34.792 96.0266C34.792 96.0266 35.6735 96.2326 35.8571 96.0681C36.0407 95.9037 37.0771 96.0905 37.0771 96.0905C37.5163 95.7283 38.0771 95.5472 38.6452 95.5843C39.0022 95.3342 39.3932 95.1363 39.8061 94.9967L39.8349 94.9871C40.0155 94.9283 40.2072 94.9113 40.3953 94.9376C40.3953 94.9376 41.6521 93.9795 42.0273 93.4509C42.4026 92.9223 44.1639 90.9854 44.1639 90.9758L44.1751 90.88L44.2054 90.5893C44.2549 90.5996 44.3051 90.606 44.3555 90.6085L44.3939 90.5079C44.5018 90.2272 44.6327 89.9559 44.7851 89.6967C44.7851 89.6967 44.7995 89.3278 44.6957 89.232C44.5919 89.1362 44.7963 87.7948 44.7963 87.7948C44.7963 87.7948 45.9923 85.2718 46.9009 87.2248C46.9009 87.2248 48.7118 88.5358 47.0957 89.9187C47.0957 89.9187 46.457 90.1965 46.366 90.4312C46.3021 90.5909 46.0738 91.0093 45.9205 91.292L45.8518 91.4181L45.8694 91.4341L45.8374 91.6736L45.8246 91.7678C46.1105 91.9451 46.3037 92.1175 46.251 92.2469C46.1559 92.4562 46.0877 92.6767 46.0482 92.9032C46.0482 92.9032 43.7903 95.5061 43.4677 96.6542C43.4677 96.6542 37.5498 99.8702 35.6431 100.043L35.9066 101.774C35.9379 102.241 35.9453 102.709 35.9289 103.177C35.889 103.545 36.0791 105.223 36.0791 105.223C36.0791 105.223 36.3138 107.692 36.5805 108.046C36.8471 108.401 36.7402 109.873 36.7402 109.873C36.7802 110.581 36.8806 111.284 37.0404 111.974C37.2831 112.918 37.0404 114.065 37.0404 114.065C37.0404 114.065 37.9202 116.311 35.6687 114.724C35.6687 114.724 34.5381 114.611 33.2351 114.517C33.2351 114.558 33.2351 114.603 33.2351 114.646C33.2351 114.815 33.2271 114.997 33.2223 115.189C33.1903 116.455 33.1313 118.199 33.0227 119.516C32.8311 121.846 31.9432 126.435 31.9432 126.435L31.8538 128.754C31.8918 128.974 31.9057 129.197 31.8953 129.42C31.8803 130.238 31.6327 131.035 31.1815 131.718L30.9436 133.259C30.9436 133.259 30.4885 134.262 30.4565 134.87C30.4557 134.92 30.46 134.97 30.4693 135.019C30.481 135.097 30.4848 135.177 30.4805 135.257C30.4805 135.959 29.9887 137.623 29.9887 137.623C29.9887 137.623 29.8976 139.317 29.6405 139.405C29.4202 139.482 29.8928 140.394 30.0334 140.655C30.0386 140.64 30.0423 140.624 30.0445 140.608L30.0749 140.659C30.1219 140.798 30.143 140.945 30.1372 141.091C30.1467 141.208 30.1231 141.324 30.0691 141.428C30.0151 141.531 29.933 141.617 29.8322 141.676C29.3387 141.952 29.0705 142.187 29.4761 142.302C29.6258 142.331 29.774 142.368 29.92 142.412L29.9439 142.356C30.0012 142.381 30.0483 142.424 30.0773 142.48C30.1064 142.535 30.1157 142.598 30.1036 142.66C30.0925 142.86 30.0328 143.055 29.9296 143.228C29.7329 143.664 29.4864 144.075 29.195 144.454L29.0002 144.426C29.0266 144.5 29.062 144.572 29.1056 144.638C29.1755 144.748 29.2708 144.839 29.3835 144.905C29.487 144.972 29.6034 145.016 29.7252 145.036C29.8628 145.046 29.9967 145.085 30.1183 145.15C30.2399 145.215 30.3464 145.305 30.431 145.414C30.6705 145.751 30.8126 146.203 30.2969 146.575L28.4589 147.131C28.4589 147.131 25.3227 147.417 25.5143 146.723C25.7059 146.03 25.8337 145.42 25.8337 145.42C25.837 144.992 25.9398 144.57 26.1339 144.188C26.1693 144.126 26.2088 144.066 26.252 144.009L26.1418 143.993C26.1418 143.993 25.9598 142.436 25.6596 142.134C25.5925 142.062 25.5782 142.01 25.5957 141.974C25.5686 141.89 25.6484 141.844 25.7554 141.815C25.7554 141.834 25.7698 141.855 25.7762 141.875C25.8764 141.859 25.978 141.852 26.0796 141.855C26.0796 141.855 26.2121 141.048 25.8943 140.737C25.8686 140.703 25.8505 140.663 25.8412 140.621C25.8318 140.58 25.8314 140.536 25.84 140.494C25.8407 140.383 25.8563 140.272 25.8863 140.165C25.8895 140.172 25.8932 140.178 25.8975 140.184C26.0923 139.456 26.696 138.31 26.696 138.31C26.696 138.31 26.7486 137.574 26.557 137.27C26.3654 136.967 26.7375 133.268 26.7375 133.268C26.7375 133.268 26.7295 131.474 26.9898 130.648C27.2501 129.822 26.7806 128.82 26.7806 128.82C26.7806 128.82 26.7806 128.8 26.7886 128.767C26.7891 128.762 26.7891 128.757 26.7886 128.753C26.7886 128.753 26.8045 128.642 26.8301 128.471V128.489C26.9003 128.01 27.0297 127.162 27.1159 126.766C27.2389 126.206 27.2165 123.499 27.2165 123.499L26.8029 122.333L25.9135 124.291L24.9554 126.91C24.9554 126.91 24.5067 127.453 24.4763 128.028C24.4763 128.056 24.4763 128.083 24.4763 128.112C24.4803 128.171 24.4803 128.23 24.4763 128.289C24.4776 128.625 24.3725 128.952 24.1761 129.224C24.1761 129.224 23.8999 130.468 23.5374 130.773C23.1749 131.078 23.1461 131.692 23.1461 131.692C23.1461 131.692 22.6447 133.494 22.4292 133.805C22.2487 134.067 22.2104 134.806 22.204 135.033C22.204 135.074 22.204 135.098 22.204 135.098C22.204 135.098 22.1194 135.747 22.1002 136.293C22.1002 136.36 22.1002 136.425 22.1002 136.486C22.0994 136.482 22.0994 136.478 22.1002 136.473C22.0941 136.622 22.1059 136.77 22.1353 136.916C22.1353 136.916 22.1353 136.933 22.1353 136.943V136.85C22.2112 137.224 22.2407 137.606 22.2232 137.987C22.2088 138.64 22.0795 139.41 21.6659 139.849C20.9505 140.609 20.5241 140.488 20.5241 140.488C20.5241 140.488 20.8163 141.483 21.214 141.695C21.2293 141.703 21.2437 141.713 21.2571 141.724C21.2571 141.705 21.2571 141.685 21.2682 141.668C21.3105 141.719 21.3417 141.778 21.3598 141.842C21.378 141.906 21.3827 141.973 21.3736 142.038C21.3864 142.471 21.0862 143.156 20.8147 143.476C20.7159 143.567 20.5956 143.632 20.465 143.664C20.4849 143.679 20.5057 143.693 20.5273 143.705C20.5716 143.732 20.6175 143.755 20.6646 143.776C20.7291 143.807 20.798 143.828 20.869 143.838C21.0068 143.847 21.1411 143.886 21.2628 143.951C21.3845 144.016 21.4909 144.107 21.5748 144.216C21.8144 144.552 21.9565 145.004 21.4407 145.376L19.6027 145.931C19.6027 145.931 16.4569 146.209 16.6502 145.516Z" fill="url(#paint1_linear)"/>
<path d="M28.5233 147.134L30.3038 146.577C30.8036 146.203 30.6663 145.751 30.4348 145.414C30.3548 145.306 30.2525 145.217 30.1348 145.152C30.0172 145.087 29.8869 145.049 29.7529 145.039C29.6339 145.019 29.5206 144.974 29.4207 144.906C29.312 144.84 29.2206 144.75 29.1541 144.641C29.0341 144.433 28.9738 144.195 28.98 143.955C28.98 143.955 27.0734 143.316 26.5241 143.86C26.427 143.959 26.3447 144.072 26.2797 144.194C26.0913 144.578 25.9909 144.999 25.9859 145.427C25.9859 145.427 25.8646 146.035 25.6777 146.73C25.4909 147.425 28.5233 147.134 28.5233 147.134Z" fill="#2D293D"/>
<path d="M19.9619 145.938L21.7424 145.381C22.2422 145.007 22.1049 144.555 21.8733 144.22C21.7934 144.112 21.6909 144.022 21.5729 143.957C21.455 143.892 21.3243 143.853 21.1899 143.843C21.121 143.834 21.0541 143.814 20.9919 143.782C20.9463 143.761 20.902 143.737 20.8593 143.711C20.3803 143.422 20.417 142.752 20.417 142.752C20.417 142.752 18.5104 142.114 17.9611 142.658C17.8874 142.732 17.822 142.813 17.7662 142.901C17.5431 143.307 17.4245 143.762 17.4213 144.225C17.4213 144.225 17.2984 144.835 17.1131 145.528C16.9279 146.221 19.9619 145.938 19.9619 145.938Z" fill="#2D293D"/>
<path opacity="0.1" d="M26.5225 143.86C26.426 143.959 26.3442 144.072 26.2798 144.194L29.1541 144.64C29.0341 144.431 28.9739 144.193 28.9801 143.953C28.9801 143.953 27.0782 143.316 26.5225 143.86Z" fill="black"/>
<path opacity="0.1" d="M17.7673 142.907L17.7466 143.449C18.1682 144.207 20.3479 144.129 20.993 143.782C20.9474 143.761 20.9031 143.737 20.8604 143.711C20.3814 143.422 20.4181 142.752 20.4181 142.752C20.4181 142.752 18.5115 142.114 17.9622 142.658C17.8881 142.734 17.8227 142.817 17.7673 142.907Z" fill="black"/>
<path d="M17.5134 140.563C17.6403 140.804 17.7471 141.055 17.8328 141.313L17.7546 143.252C18.2145 144.082 20.779 143.91 21.1399 143.482C21.5008 143.054 21.9128 141.912 21.5279 141.702C21.1431 141.491 20.8604 140.494 20.8604 140.494C20.8604 140.494 21.274 140.609 21.9687 139.856C22.6633 139.102 22.5324 137.344 22.4238 136.922C22.3152 136.501 22.4956 135.105 22.4956 135.105C22.4956 135.105 22.5084 134.121 22.7176 133.81C22.9268 133.498 23.4138 131.697 23.4138 131.697C23.4138 131.697 23.4362 131.082 23.7923 130.777C24.1484 130.472 24.4182 129.227 24.4182 129.227C24.6319 128.922 24.7329 128.552 24.7041 128.181C24.6546 127.565 25.1704 126.919 25.1704 126.919L26.1077 124.301L26.97 122.341L27.3676 123.512C27.3676 123.512 27.3868 126.218 27.267 126.779C27.1473 127.339 26.9476 128.832 26.9476 128.832C26.9476 128.832 27.4012 129.834 27.1489 130.661C26.8966 131.488 26.8997 133.281 26.8997 133.281C26.8997 133.281 26.5357 136.981 26.7209 137.283C26.9061 137.585 26.8534 138.321 26.8534 138.321C26.8534 138.321 25.7644 140.443 26.071 140.751C26.3776 141.06 26.2498 141.869 26.2498 141.869C26.2498 141.869 25.5632 141.842 25.8458 142.149C26.1285 142.455 26.2802 143.999 26.2802 143.999L29.2359 144.458C29.5192 144.077 29.7581 143.665 29.9481 143.23C30.3761 142.337 29.9066 142.417 29.5154 142.304C29.1242 142.19 29.3828 141.954 29.8603 141.678C30.3378 141.401 30.0935 140.727 30.0935 140.727C30.0935 140.727 29.4276 139.496 29.6783 139.408C29.929 139.321 30.0168 137.626 30.0168 137.626C30.0168 137.626 30.5853 135.63 30.4831 135.086C30.3809 134.541 30.9478 133.259 30.9478 133.259L31.1777 131.72C31.7376 130.863 31.9694 129.832 31.8308 128.818L31.9234 126.436C31.9234 126.436 32.7921 121.854 32.9869 119.516C33.1083 118.025 33.169 115.986 33.1961 114.713C33.2121 113.998 33.2185 113.525 33.2185 113.525L22.6521 112.011C22.6154 112.541 22.5304 113.065 22.3982 113.579C22.2689 114.159 22.0693 114.906 21.7595 115.839C20.894 118.51 21.2804 120.542 21.2804 120.542L21.2469 123.959C21.2469 123.959 20.2249 126.207 20.3926 127.001C20.4927 127.473 20.5399 127.955 20.5331 128.438C20.5331 128.438 18.2592 133.337 18.4252 134.789C18.5913 136.24 17.5933 138.495 17.5933 138.495C17.5933 138.495 17.2851 140.111 17.5134 140.563Z" fill="#575988"/>
<path opacity="0.05" d="M24.0708 128.002L20.8579 127.443C20.8579 127.443 22.616 129.385 24.0708 128.002Z" fill="black"/>
<path opacity="0.1" d="M21.4462 124.312C21.4462 124.312 21.2865 125.449 21.9747 125.909C21.9684 125.906 20.7308 125.661 21.4462 124.312Z" fill="black"/>
<path opacity="0.1" d="M21.7837 120.684C21.7837 120.684 24.3977 123.01 25.3862 122.865C26.3746 122.72 21.7837 120.684 21.7837 120.684Z" fill="black"/>
<path opacity="0.1" d="M28.0356 129.2C28.0356 129.2 30.0684 129.746 30.0988 130.57C30.1291 131.394 28.0356 129.2 28.0356 129.2Z" fill="black"/>
<path opacity="0.05" d="M27.1885 139.419C27.1885 139.419 30.0629 140.071 29.2293 140.408C28.3958 140.745 27.0304 140.988 27.0304 140.988C27.0304 140.988 26.0947 141.004 27.1885 139.419Z" fill="black"/>
<g opacity="0.05">
<path opacity="0.05" d="M29.7921 141.017C29.8665 140.974 29.9304 140.915 29.979 140.844C30.0276 140.773 30.0598 140.693 30.0732 140.608L30.1003 140.661C30.1003 140.661 30.3462 141.333 29.8672 141.619C29.8129 141.649 29.7618 141.681 29.7075 141.711C29.6229 141.692 29.5302 141.676 29.4424 141.651C29.0528 141.531 29.3131 141.295 29.7921 141.017Z" fill="black"/>
<path opacity="0.05" d="M26.0646 140.678C25.988 140.601 25.9991 140.413 26.0646 140.172C26.1746 140.395 26.2221 140.643 26.2019 140.89C26.173 140.81 26.126 140.737 26.0646 140.678Z" fill="black"/>
<path opacity="0.05" d="M26.9819 128.478C27.0772 128.773 27.131 129.08 27.1416 129.39C27.0946 129.174 27.0273 128.964 26.9404 128.761C26.9404 128.761 26.958 128.65 26.9819 128.478Z" fill="black"/>
<path opacity="0.05" d="M20.398 126.934C20.3817 126.845 20.3758 126.754 20.3804 126.664C20.4107 126.849 20.4299 127.02 20.4411 127.17C20.4283 127.094 20.4139 127.015 20.398 126.934Z" fill="black"/>
<path opacity="0.05" d="M26.7156 137.211C26.6676 137.033 26.6503 136.848 26.6645 136.664C26.7468 136.885 26.7858 137.12 26.7794 137.357C26.7639 137.306 26.7425 137.257 26.7156 137.211Z" fill="black"/>
<path opacity="0.05" d="M25.9291 141.815C26.0629 142.314 26.1563 142.823 26.2086 143.337L29.1644 143.795C29.4486 143.414 29.6881 143.002 29.8781 142.567C29.9165 142.489 29.9452 142.419 29.9708 142.355C30.1448 142.443 30.2087 142.631 29.9532 143.161C29.763 143.596 29.5241 144.007 29.241 144.387L26.2788 143.932C26.2788 143.932 26.1192 142.377 25.8333 142.072C25.7008 141.92 25.7998 141.852 25.9291 141.815Z" fill="black"/>
<path opacity="0.05" d="M30.0218 137.559C30.0218 137.559 29.9324 139.254 29.6833 139.341C29.5699 139.056 29.4965 138.787 29.6083 138.747C29.8574 138.658 29.9484 136.965 29.9484 136.965C29.9484 136.965 30.5169 134.971 30.4147 134.425C30.3125 133.879 30.8778 132.6 30.8778 132.6L31.1093 131.059C31.6691 130.202 31.901 129.171 31.7624 128.157L31.8534 125.775C31.8534 125.775 32.7189 121.185 32.9074 118.855C33.0271 117.364 33.0878 115.325 33.1165 114.052C33.1165 113.822 33.1261 113.618 33.1293 113.445L33.214 113.458C33.214 113.458 33.214 113.937 33.1916 114.645C33.1644 115.922 33.1038 117.958 32.9824 119.449C32.794 121.778 31.9301 126.369 31.9301 126.369L31.8375 128.75C31.9761 129.764 31.7448 130.794 31.1859 131.651L30.9528 133.192C30.9528 133.192 30.3859 134.469 30.4881 135.019C30.5903 135.568 30.0218 137.559 30.0218 137.559Z" fill="black"/>
<path opacity="0.05" d="M21.0656 142.823C21.3197 142.483 21.4953 142.091 21.5798 141.675C21.8721 141.959 21.484 143.008 21.1407 143.415C20.7974 143.823 18.2153 144.016 17.7554 143.187L17.7729 142.719C18.4117 143.403 20.7239 143.229 21.0656 142.823Z" fill="black"/>
<path opacity="0.05" d="M17.4391 139.899C17.566 140.14 17.6728 140.391 17.7585 140.65L17.7441 140.993C17.6772 140.822 17.6015 140.655 17.5174 140.491C17.447 140.296 17.4187 140.087 17.4343 139.88L17.4391 139.899Z" fill="black"/>
<path opacity="0.05" d="M21.0094 140.429C20.923 140.236 20.8494 140.038 20.7891 139.836C20.7891 139.836 21.2026 139.95 21.8957 139.19C22.4003 138.636 22.469 137.558 22.4274 136.849C22.536 137.272 22.6654 139.022 21.9723 139.782C21.5156 140.28 21.1819 140.403 21.0094 140.429Z" fill="black"/>
<path opacity="0.05" d="M22.4967 135.032C22.4346 135.514 22.3994 136 22.3913 136.487C22.3818 136.409 22.3679 136.332 22.3498 136.257C22.2428 135.833 22.42 134.439 22.42 134.439C22.42 134.439 22.4344 133.456 22.642 133.144C22.8496 132.833 23.3382 131.032 23.3382 131.032C23.3382 131.032 23.3622 130.419 23.7183 130.112C24.0744 129.805 24.3442 128.561 24.3442 128.561C24.5571 128.256 24.6581 127.887 24.6301 127.515C24.5806 126.899 25.0963 126.254 25.0963 126.254L26.0337 123.635L26.896 121.676L27.2936 122.848C27.2936 122.848 27.2936 122.992 27.2936 123.222L26.9742 122.263L26.1119 124.221L25.1746 126.842C25.1746 126.842 24.6588 127.48 24.7083 128.103C24.7371 128.474 24.6361 128.844 24.4225 129.149C24.4225 129.149 24.1526 130.393 23.7965 130.698C23.4404 131.003 23.4181 131.618 23.4181 131.618C23.4181 131.618 22.9294 133.419 22.7218 133.732C22.5142 134.045 22.4967 135.032 22.4967 135.032Z" fill="black"/>
</g>
<path d="M22.1728 89.7736L22.3229 90.6774L22.2974 91.0766L22.2782 91.3704L23.2986 91.5158L23.4215 91.3082C23.6483 90.9329 24.1178 90.168 24.2663 90.053C24.4611 89.9013 24.8954 87.4214 24.4835 87.5524C24.2322 87.6389 24.0218 87.8152 23.8926 88.0474C23.8926 88.0474 21.871 88.2007 22.1728 89.7736Z" fill="#FFCDD3"/>
<path opacity="0.1" d="M22.2778 91.3707L23.2982 91.516L23.4212 91.3084C23.2895 91.1476 23.1066 91.037 22.9031 90.9951C22.6995 90.9533 22.4878 90.9827 22.3034 91.0784L22.2778 91.3707Z" fill="black"/>
<path d="M22 91.8465L23.3398 92.2122L23.3749 92.011L23.4723 91.4728C23.4021 91.372 23.3127 91.2861 23.2092 91.22C23.1057 91.1539 22.9901 91.109 22.8691 91.0877C22.7481 91.0665 22.6242 91.0694 22.5043 91.0963C22.3845 91.1232 22.2712 91.1736 22.1709 91.2445L22.0942 91.5175L22 91.8465Z" fill="#DCE6F2"/>
<path d="M43.9624 90.7154L45.374 91.5458C45.374 91.5458 45.4331 91.4324 45.5161 91.2775C45.6646 90.9949 45.885 90.5701 45.9473 90.4168C46.0415 90.1821 46.6547 89.9026 46.6547 89.9026C48.2212 88.5181 46.4695 87.2103 46.4695 87.2103C45.5912 85.2574 44.4319 87.782 44.4319 87.782C44.4319 87.782 44.2323 89.1281 44.3329 89.2192C44.4335 89.3102 44.4191 89.6838 44.4191 89.6838C44.2703 89.9433 44.1432 90.2146 44.0391 90.495C43.9896 90.6276 43.9624 90.7154 43.9624 90.7154Z" fill="#FFCDD3"/>
<path opacity="0.1" d="M43.9624 90.7155L45.374 91.5458C45.374 91.5458 45.4331 91.4324 45.5161 91.2776C45.3181 91.1003 44.6187 90.4791 44.3808 90.5047C44.2672 90.5161 44.1527 90.5161 44.0391 90.5047C43.9896 90.6276 43.9624 90.7155 43.9624 90.7155Z" fill="black"/>
<path d="M43.7979 91.1419L45.3947 92.0026L45.4394 91.6545L45.4714 91.415C45.4714 91.415 44.5643 90.5751 44.2865 90.5942C44.1448 90.6085 44.0018 90.6026 43.8617 90.5767L43.833 90.8673L43.7979 91.1419Z" fill="#DCE6F2"/>
<path d="M25.8721 95.8801C25.8721 95.8801 32.9094 96.9499 31.6048 96.4709C30.6962 96.1355 30.3528 95.5367 30.3017 94.8852C30.2842 94.3262 30.3934 93.7705 30.6211 93.2596C30.806 92.8206 31.0344 92.4012 31.303 92.0077C31.303 92.0077 26.0142 88.8284 26.9915 91.5717C27.1425 91.9867 27.2292 92.4224 27.2486 92.8636C27.2639 93.3015 27.2001 93.7386 27.0601 94.1539C26.8307 94.8277 26.4195 95.4251 25.8721 95.8801Z" fill="#FFCDD3"/>
<path opacity="0.1" d="M26.9981 91.5717C27.1491 91.9867 27.2358 92.4224 27.2552 92.8636C27.747 93.3091 28.3059 93.3027 29.0229 93.3299C29.5738 93.3522 30.1774 93.5087 30.6198 93.2596C30.8046 92.8206 31.033 92.4012 31.3016 92.0077C31.3016 92.0077 26.0208 88.8284 26.9981 91.5717Z" fill="black"/>
<path d="M29.2241 93.523C30.8389 93.523 32.148 92.2139 32.148 90.5991C32.148 88.9843 30.8389 87.6753 29.2241 87.6753C27.6093 87.6753 26.3003 88.9843 26.3003 90.5991C26.3003 92.2139 27.6093 93.523 29.2241 93.523Z" fill="#FFCDD3"/>
<path opacity="0.1" d="M25.8721 95.8798C25.8721 95.8798 32.9094 96.9497 31.6048 96.4707C30.6962 96.1353 30.3528 95.5365 30.3017 94.885C29.9648 94.4906 29.2686 94.1888 28.8199 94.0243C28.4113 93.8704 27.9653 93.8459 27.5424 93.954C27.3737 93.9965 27.2122 94.0637 27.0633 94.1536C26.833 94.8279 26.4207 95.4253 25.8721 95.8798Z" fill="black"/>
<path opacity="0.1" d="M22 91.8464L23.3398 92.212L23.3749 92.0108C23.2384 91.8073 23.0426 91.6508 22.814 91.5625C22.5854 91.4743 22.3352 91.4585 22.0974 91.5174L22 91.8464Z" fill="black"/>
<path opacity="0.1" d="M43.7979 91.1422L45.3947 92.0029L45.4394 91.6548C44.9218 91.3555 44.3827 91.095 43.8266 90.8755L43.7979 91.1422Z" fill="black"/>
<path opacity="0.1" d="M22.3906 113.579C25.1053 114.117 28.9856 114.83 29.61 114.665C30.129 114.529 31.7657 114.609 33.1885 114.713C33.2045 113.998 33.2109 113.525 33.2109 113.525L22.6445 112.011C22.6078 112.541 22.5228 113.065 22.3906 113.579Z" fill="black"/>
<path d="M19.688 112.832C19.688 112.832 28.6399 114.726 29.6188 114.469C30.5977 114.212 35.5511 114.721 35.5511 114.721C37.7276 116.305 36.8797 114.06 36.8797 114.06C36.8797 114.06 37.1208 112.914 36.8797 111.97C36.7253 111.279 36.6286 110.576 36.5907 109.868C36.5907 109.868 36.6977 108.396 36.4406 108.043C36.1835 107.69 35.9615 105.22 35.9615 105.22C35.9615 105.22 35.7811 103.542 35.8194 103.174C35.8577 102.807 35.8002 101.771 35.8002 101.771L35.5463 100.04C37.3971 99.8657 43.1282 96.6433 43.1282 96.6433C43.4476 95.4999 45.6336 92.8779 45.6336 92.8779C45.6729 92.6519 45.7394 92.4315 45.8317 92.2216C45.9913 91.8351 43.8148 90.9648 43.8148 90.9648C43.8148 90.9648 42.0886 92.9146 41.7309 93.4416C41.3732 93.9685 40.1485 94.9298 40.1485 94.9298C39.9661 94.9044 39.7803 94.9214 39.6055 94.9793H39.5768C39.1777 95.1208 38.8012 95.3192 38.459 95.5686C37.9058 95.5341 37.3608 95.7155 36.9388 96.0748C36.9388 96.0748 35.9376 95.8895 35.7603 96.054C35.5831 96.2185 34.7287 96.0141 34.7287 96.0141C34.7287 96.0141 33.9303 94.1649 33.3539 94.6711C32.7774 95.1773 30.3725 95.0608 30.3725 95.0608C30.0707 94.6232 29.3042 94.2895 28.8252 94.1138C28.4168 93.9592 27.9706 93.9346 27.5477 94.0436C27.3642 94.0887 27.1898 94.1649 27.0319 94.2687L25.5245 95.6356C25.5245 95.6356 25.1269 95.0799 25.1812 94.9586C25.2355 94.8372 24.7021 94.719 24.7021 94.719C24.7021 94.719 23.9979 94.4699 23.7312 94.3869C23.4645 94.3039 23.2043 94.5849 23.1819 94.6105C23.3038 94.2659 23.358 93.9009 23.3416 93.5358C23.2857 93.0663 23.6689 92.6623 23.6689 92.6623C22.8913 90.5177 20.884 92.212 20.884 92.212C20.884 92.212 20.6174 93.3569 20.7978 93.8088C20.9782 94.2607 20.5487 95.1757 20.587 95.4233C20.6253 95.6708 20.4641 96.0828 20.4465 96.549C20.4289 97.0153 20.6397 97.9096 20.7659 98.3056C20.892 98.7016 22.0433 99.6342 22.0433 99.6342C22.0433 99.6342 22.0641 101.036 22.548 101.87C23.0318 102.703 22.607 105.463 22.607 105.463C22.607 105.463 22.0322 107.604 21.3918 108.268C20.7515 108.933 19.688 112.832 19.688 112.832Z" fill="#656691"/>
<path opacity="0.1" d="M33.4466 97.1796C33.4466 97.1796 33.7484 96.3812 33.9959 96.3158C34.244 96.2352 34.4862 96.1375 34.7209 96.0235L34.574 95.7153C34.574 95.7153 33.6414 95.9341 33.4849 96.1944C33.3284 96.4547 33.4466 97.1796 33.4466 97.1796Z" fill="black"/>
<path opacity="0.1" d="M38.4502 95.5783C38.4901 95.8258 40.6666 96.1308 40.6666 96.1308L39.6047 94.9795H39.5776C39.1746 95.1231 38.7948 95.3248 38.4502 95.5783Z" fill="black"/>
<path d="M44.9034 92.6462C45.0119 92.6462 45.0999 92.5583 45.0999 92.4498C45.0999 92.3414 45.0119 92.2534 44.9034 92.2534C44.795 92.2534 44.707 92.3414 44.707 92.4498C44.707 92.5583 44.795 92.6462 44.9034 92.6462Z" fill="#575988"/>
<path d="M44.6368 93.0295C44.7453 93.0295 44.8333 92.9416 44.8333 92.8331C44.8333 92.7247 44.7453 92.6367 44.6368 92.6367C44.5284 92.6367 44.4404 92.7247 44.4404 92.8331C44.4404 92.9416 44.5284 93.0295 44.6368 93.0295Z" fill="#575988"/>
<path d="M44.3766 93.3826C44.4851 93.3826 44.573 93.2946 44.573 93.1862C44.573 93.0777 44.4851 92.9897 44.3766 92.9897C44.2681 92.9897 44.1802 93.0777 44.1802 93.1862C44.1802 93.2946 44.2681 93.3826 44.3766 93.3826Z" fill="#575988"/>
<path d="M44.1056 93.7654C44.2141 93.7654 44.302 93.6775 44.302 93.569C44.302 93.4605 44.2141 93.3726 44.1056 93.3726C43.9971 93.3726 43.9092 93.4605 43.9092 93.569C43.9092 93.6775 43.9971 93.7654 44.1056 93.7654Z" fill="#575988"/>
<path d="M20.958 92.8169C21.0462 92.8169 21.1177 92.7454 21.1177 92.6572C21.1177 92.5691 21.0462 92.4976 20.958 92.4976C20.8698 92.4976 20.7983 92.5691 20.7983 92.6572C20.7983 92.7454 20.8698 92.8169 20.958 92.8169Z" fill="#575988"/>
<path d="M20.9199 93.1783C21.0081 93.1783 21.0796 93.1068 21.0796 93.0186C21.0796 92.9304 21.0081 92.8589 20.9199 92.8589C20.8317 92.8589 20.7603 92.9304 20.7603 93.0186C20.7603 93.1068 20.8317 93.1783 20.9199 93.1783Z" fill="#575988"/>
<path d="M20.8833 93.5391C20.9715 93.5391 21.043 93.4676 21.043 93.3794C21.043 93.2912 20.9715 93.2197 20.8833 93.2197C20.7951 93.2197 20.7236 93.2912 20.7236 93.3794C20.7236 93.4676 20.7951 93.5391 20.8833 93.5391Z" fill="#575988"/>
<path opacity="0.1" d="M33.1777 103.834C33.2017 103.807 27.3971 110.584 23.2549 106.379C23.2549 106.379 30.0096 107.561 33.1777 103.834Z" fill="black"/>
<path opacity="0.1" d="M36.2187 107.591C36.2187 107.591 32.902 107.554 32.5188 108.493L32.4805 109.485C32.5728 109.541 32.6778 109.572 32.7856 109.576C32.8934 109.58 33.0004 109.557 33.0969 109.509C33.4386 109.341 35.4794 108.401 36.1676 108.918L36.2187 107.591Z" fill="black"/>
<path d="M36.1553 107.588C36.1553 107.588 32.9855 107.553 32.6183 108.449L32.5815 109.394C32.6698 109.448 32.7702 109.478 32.8733 109.482C32.9764 109.486 33.0788 109.463 33.1708 109.416C33.4902 109.257 35.4495 108.361 36.1074 108.853L36.1553 107.588Z" fill="#656691"/>
<path opacity="0.1" d="M34.6872 100.329C34.318 101.098 33.8587 101.822 33.3187 102.483C32.7286 103.214 32.0231 103.844 31.23 104.348C31.23 104.348 34.6137 100.776 34.6872 100.329Z" fill="black"/>
<path opacity="0.1" d="M35.9172 96.522C35.9172 96.522 35.2785 98.8869 33.8174 99.6422L35.9172 96.522Z" fill="black"/>
<path opacity="0.1" d="M36.7564 96.7946C36.7724 96.7515 37.1748 98.7013 34.8066 99.6802C34.8066 99.6802 35.8079 99.3815 36.7564 96.7946Z" fill="black"/>
<path opacity="0.1" d="M22.3545 94.639C22.3912 94.639 21.1776 95.3496 20.8423 95.6865C20.8503 95.6865 21.6567 94.5624 22.3545 94.639Z" fill="black"/>
<path d="M29.9124 93.2788C29.8825 93.4338 29.7952 93.5717 29.6681 93.6653C29.5807 93.7035 29.4855 93.7205 29.3902 93.7148C28.4976 93.7371 27.5682 93.7403 26.7586 93.3651C26.6071 93.3049 26.4728 93.2084 26.3674 93.084C26.2269 92.8988 26.2077 92.6544 26.1582 92.4277C26.0592 91.987 25.8277 91.5894 25.6664 91.1662C25.3948 90.4537 25.3246 89.6803 25.4636 88.9306C25.4956 88.7014 25.5803 88.4828 25.7111 88.2919C25.9602 87.9645 26.3961 87.8447 26.7187 87.5876C27.0413 87.3305 27.2584 86.9281 27.6321 86.7397C27.9674 86.5704 28.3683 86.6072 28.7371 86.6854C29.4612 86.8372 30.1496 87.1261 30.7651 87.5365C30.9711 87.6755 31.1979 87.8336 31.4438 87.7968C31.6546 87.7383 31.8386 87.6085 31.9644 87.4296C32.1225 87.8356 32.1806 88.2738 32.1336 88.707C32.1224 88.7704 32.1224 88.8353 32.1336 88.8987C32.1609 88.9766 32.2045 89.048 32.2614 89.1078C32.4706 89.3713 32.5935 89.7801 32.3668 90.0292C32.2678 90.1378 32.1193 90.1889 32.0234 90.3055C31.851 90.5035 31.8941 90.8005 31.8877 91.064C31.8935 91.1556 31.8676 91.2464 31.8143 91.3211C31.7647 91.363 31.7053 91.3917 31.6415 91.4042C31.5778 91.4168 31.512 91.4129 31.4502 91.3929C31.327 91.351 31.1968 91.3336 31.0669 91.3418C30.9284 91.3817 30.8074 91.4672 30.7236 91.5846C30.2909 92.086 30.112 92.656 29.9124 93.2788Z" fill="#2D293D"/>
<g opacity="0.1">
<path opacity="0.1" d="M26.2796 92.854C26.3844 92.9793 26.5189 93.0765 26.6708 93.1366C27.4804 93.5119 28.4098 93.5071 29.3024 93.4863C29.3978 93.4923 29.4933 93.4748 29.5803 93.4352C29.7077 93.3427 29.795 93.2051 29.8246 93.0504C30.021 92.426 30.2031 91.8575 30.6358 91.3497C30.7193 91.2318 30.8403 91.1457 30.9791 91.1054C31.109 91.098 31.239 91.1153 31.3624 91.1565C31.4241 91.177 31.4901 91.1811 31.5539 91.1685C31.6177 91.1559 31.6771 91.127 31.7265 91.0847C31.7799 91.0106 31.8059 90.9203 31.7999 90.8292C31.7999 90.5657 31.7632 90.2687 31.9356 90.0691C32.0314 89.9589 32.18 89.9094 32.279 89.7944C32.3433 89.713 32.3844 89.6157 32.3982 89.5129C32.412 89.4101 32.3978 89.3054 32.3572 89.21C32.5041 89.4639 32.56 89.7848 32.3684 89.994C32.2694 90.1026 32.1225 90.1537 32.0251 90.2703C31.8526 90.4683 31.8973 90.7653 31.8909 91.0288C31.8969 91.1206 31.8704 91.2117 31.8159 91.2859C31.7664 91.328 31.7069 91.3567 31.6432 91.3693C31.5795 91.3818 31.5136 91.3779 31.4518 91.3577C31.3292 91.3158 31.1995 91.2984 31.0701 91.3066C30.9308 91.3466 30.8091 91.4327 30.7252 91.5509C30.2941 92.0571 30.112 92.6272 29.914 93.25C29.9112 93.3139 29.8952 93.3765 29.867 93.4338C29.8387 93.4912 29.7988 93.542 29.7499 93.5832C29.701 93.6243 29.644 93.6548 29.5826 93.6728C29.5213 93.6908 29.4569 93.6958 29.3934 93.6875C28.5008 93.7083 27.5714 93.7115 26.7602 93.3362C26.6089 93.2758 26.4746 93.1794 26.369 93.0552C26.3163 92.9823 26.2768 92.9007 26.2524 92.8141C26.2604 92.8281 26.2695 92.8414 26.2796 92.854Z" fill="black"/>
<path opacity="0.1" d="M32.1271 88.8157C32.0875 88.7696 32.0591 88.7149 32.0441 88.656C32.0329 88.5926 32.0329 88.5278 32.0441 88.4644C32.0826 88.107 32.0501 87.7456 31.9482 87.4009L31.9642 87.3833C32.1237 87.789 32.1823 88.2274 32.1351 88.6608C32.1278 88.7121 32.1251 88.7639 32.1271 88.8157Z" fill="black"/>
</g>
<path opacity="0.1" d="M30.3643 95.0703C30.3643 95.0703 26.6916 95.4137 26.3882 94.8516L30.3643 95.0703Z" fill="black"/>
<path opacity="0.1" d="M23.3261 93.2868C23.3261 93.2868 21.2965 93.2117 20.8223 93.9543L23.3261 93.2868Z" fill="black"/>
<path d="M97.5765 93.2592L96.7255 93.5602L96.4166 93.048C96.1802 92.654 95.8524 92.115 95.6105 91.7234C95.1835 91.0348 95.7421 89.9852 95.7421 89.9852C95.7421 89.9852 95.843 88.9317 96.2023 88.6071C96.5616 88.2824 96.6617 89.9852 96.6617 89.9852C98.1044 90.6408 97.3314 92.1828 97.3314 92.1828L97.4717 92.7943L97.5765 93.2592Z" fill="#EFB7B9"/>
<path opacity="0.1" d="M97.5759 93.2594L96.7249 93.5604L96.416 93.0482V93.0033C96.416 93.0033 96.9038 92.6684 97.4727 92.7945L97.5759 93.2594Z" fill="black"/>
<path d="M96.2021 96.7102L96.6284 96.3493L96.4149 93.1014C96.4149 93.1014 97.518 92.3465 98.3344 93.5277C98.3344 93.5277 98.3013 94.2494 98.3344 94.4464C98.3674 94.6434 98.1051 94.8404 98.3344 95.0366C98.5636 95.2328 98.3344 95.89 98.3344 95.89C98.3344 95.89 98.5936 96.3493 98.7575 96.4801C98.9214 96.6109 99.0861 97.6944 98.7575 97.9237C98.4289 98.153 97.8127 98.6785 97.8127 98.9078C97.8127 99.1371 97.0248 99.6958 97.0248 99.6958L96.3329 98.781L96.2021 96.7102Z" fill="#FF6484"/>
<path d="M86.983 116.427C85.3929 115.752 85.7459 114.104 86.0454 113.275C86.1052 113.107 86.1755 112.942 86.2557 112.783L87.1477 112.242C87.1477 112.242 87.3297 112.706 87.5243 113.328C87.9758 114.777 88.4951 117.069 86.983 116.427Z" fill="#EFB7B9"/>
<path d="M89.1682 131.46C89.0606 131.67 88.9811 131.893 88.9318 132.124C88.8531 132.495 88.8187 132.874 88.8294 133.253C88.8357 133.515 88.8577 133.687 88.8577 133.687L87.0864 134.905C87.0864 134.905 87.0967 134.763 87.114 134.553C87.1597 133.995 87.255 132.96 87.3449 132.826C87.4071 132.733 87.4505 132.359 87.478 132.013C87.5056 131.666 87.5166 131.362 87.5166 131.362C87.5166 131.362 89.6481 130.563 89.1682 131.46Z" fill="#EFB7B9"/>
<path d="M93.3519 132.334C93.3519 132.334 93.3519 132.673 93.3393 133.067C93.3267 133.461 93.303 133.925 93.2534 134.142C93.2077 134.341 93.2045 134.706 93.2132 135.042C93.225 135.436 93.2534 135.791 93.2534 135.791C93.2534 135.791 91.445 134.081 91.6294 133.945C91.6791 133.909 91.7279 133.763 91.7728 133.569C91.828 133.333 91.8776 133.018 91.9146 132.75C91.9588 132.431 91.9864 132.174 91.9864 132.174L93.3519 132.334Z" fill="#EFB7B9"/>
<path opacity="0.1" d="M89.1682 131.46C89.0605 131.67 88.981 131.893 88.9318 132.124C88.4469 132.111 87.963 132.074 87.4819 132.013C87.5087 131.674 87.5205 131.362 87.5205 131.362C87.5205 131.362 89.648 130.563 89.1682 131.46Z" fill="black"/>
<path opacity="0.1" d="M93.3513 132.334C93.3513 132.334 93.3513 132.672 93.3387 133.066C92.7745 133.211 92.1946 132.922 91.9141 132.751C91.9582 132.432 91.9858 132.175 91.9858 132.175L93.3513 132.334Z" fill="black"/>
<path d="M97.0548 115.574C96.333 117.15 96.0375 119.019 96.0375 119.019L95.7752 120.595C95.7752 120.595 95.9067 121.283 95.7752 121.546C95.6436 121.808 95.3812 122.235 95.3812 122.235C95.3812 122.235 95.5782 123.843 95.3812 124.007C95.1842 124.17 95.3812 125.155 95.3812 125.155L94.7248 128.464L93.8061 132.728C92.9204 133.451 91.7416 132.532 91.7416 132.532L92.0016 129.744C92.0016 129.744 92.3956 124.858 92.2317 124.658C92.0678 124.458 92.2971 123.838 92.2971 123.838C92.2971 123.838 92.5272 123.247 92.3633 123.018C92.1994 122.788 92.3956 122.296 92.3956 122.296C92.3956 122.296 92.3302 120.295 92.5272 119.835C92.7242 119.376 92.5272 116.534 92.5272 116.534L92.4484 115.65L92.4027 115.159L92.3988 115.111C92.3988 115.111 92.3688 115.308 92.32 115.612C92.175 116.538 91.8661 118.456 91.744 118.851C91.661 119.135 91.5482 119.41 91.4075 119.671C91.4075 119.671 91.5777 120.655 91.4075 120.918C91.2373 121.18 91.3815 121.476 91.3815 121.476C91.3815 121.476 91.5454 122.296 91.0529 122.624C90.5605 122.952 91.0529 123.116 91.0529 123.116C91.0529 123.116 90.6921 123.904 90.5613 124.231C90.4305 124.558 90.5613 125.019 90.5613 125.019L90.2989 127.676C90.2989 127.676 90.0688 128.791 90.1019 129.546C90.135 130.301 89.8064 132.039 89.8064 132.039C89.8064 132.039 87.2802 132.039 86.891 131.744C86.5017 131.448 87.541 128.566 87.541 128.566C87.541 128.566 87.8365 123.513 87.7703 123.383C87.7041 123.252 87.7703 122.267 88.0004 122.071C88.2305 121.874 88.0004 121.48 88.0004 121.48C88.0004 121.48 87.935 120.692 88.0004 120.495C88.0658 120.299 87.9902 119.642 87.9902 119.642C87.9902 119.642 87.7703 118.035 87.738 117.116C87.7057 116.197 87.541 114.131 87.541 114.131C87.541 114.131 87.7128 112.853 87.7388 112.245C87.7483 112.021 87.8483 111.741 87.9752 111.478C88.1172 111.181 88.2804 110.894 88.4637 110.621C88.4637 110.621 96.2369 108.323 96.5631 108.552C96.6498 108.612 96.7759 109.024 96.9004 109.621C97.2471 111.287 97.5859 114.416 97.0548 115.574Z" fill="#444053"/>
<path d="M92.2653 95.5227C93.5155 95.5227 94.5291 94.5092 94.5291 93.2589C94.5291 92.0087 93.5155 90.9951 92.2653 90.9951C91.015 90.9951 90.0015 92.0087 90.0015 93.2589C90.0015 94.5092 91.015 95.5227 92.2653 95.5227Z" fill="#A1616A"/>
<path opacity="0.1" d="M96.8996 109.622C96.6388 109.756 96.4638 109.849 96.4638 109.849C96.4638 109.849 92.7896 111.588 91.7448 111.489C90.9363 111.41 88.8727 111.455 87.9736 111.477C88.1156 111.18 88.2789 110.894 88.4622 110.62C88.4622 110.62 96.2361 108.323 96.5623 108.552C96.649 108.614 96.7751 109.024 96.8996 109.622Z" fill="black"/>
<path d="M90.69 96.8743C90.69 96.8743 88.5933 97.2053 88.0985 97.5299C87.6036 97.8546 86.6234 98.4818 86.6234 99.8268C86.6234 101.172 86.3941 102.55 86.2625 102.943C86.1309 103.336 88.3293 106.519 88.3293 106.519L87.5414 111.342C87.5414 111.342 90.6932 111.243 91.7427 111.342C92.7923 111.44 96.465 109.701 96.465 109.701C96.465 109.701 98.6303 108.553 99.0896 108.52C99.549 108.486 98.1709 105.993 98.1709 105.993C98.1709 105.993 96.0379 101.959 96.3988 101.303C96.7597 100.646 97.0244 99.6952 97.0244 99.6952L96.6304 96.3496C96.6304 96.3496 96.0402 96.1526 95.5478 96.5135C95.0553 96.8743 93.3825 96.6773 93.3825 96.6773L90.69 96.8743Z" fill="#FF6484"/>
<path opacity="0.1" d="M87.131 102.714L86.3083 102.943L86.0806 106.03C86.0806 106.03 86.3761 106.851 86.0806 107.113C85.7851 107.376 85.7197 112.986 85.7197 112.986C85.7197 112.986 86.6716 113.674 87.7865 113.15C87.7865 113.15 87.6226 112.526 88.1151 110.263C88.6076 107.999 88.6068 106.851 88.6068 106.851C88.6068 106.851 88.6068 104.029 88.8369 103.57C89.067 103.11 88.8369 101.962 88.8369 101.962C88.8369 101.962 88.3775 101.339 88.4098 101.11C88.4421 100.88 87.131 102.714 87.131 102.714Z" fill="black"/>
<path opacity="0.1" d="M87.5244 113.331C87.0413 113.493 86.5155 113.474 86.0454 113.277C86.1052 113.109 86.1755 112.945 86.2558 112.785L87.1478 112.244C87.1478 112.244 87.3329 112.708 87.5244 113.331Z" fill="black"/>
<path d="M87.0813 102.714L86.2611 102.943L86.0318 106.03C86.0318 106.03 86.3273 106.85 86.0318 107.113C85.7363 107.375 85.6709 112.985 85.6709 112.985C85.6709 112.985 86.6235 113.673 87.7377 113.146C87.7377 113.146 87.5738 112.523 88.0655 110.259C88.5572 107.995 88.558 106.847 88.558 106.847C88.558 106.847 88.558 104.026 88.7873 103.566C89.0166 103.107 88.7873 101.959 88.7873 101.959C88.7873 101.959 88.3279 101.336 88.361 101.106C88.3941 100.877 87.0813 102.714 87.0813 102.714Z" fill="#FF6484"/>
<path opacity="0.1" d="M95.4803 103.206C95.4803 103.206 95.054 106.88 93.8066 107.569C93.8066 107.569 96.5952 106.782 95.4803 103.206Z" fill="black"/>
<path opacity="0.1" d="M89.2139 103.534C89.2139 103.534 90.7551 104.288 90.3958 104.813C90.0365 105.338 89.2139 103.534 89.2139 103.534Z" fill="black"/>
<path opacity="0.1" d="M89.2139 105.043C89.2139 105.043 90.198 106.06 90.0018 106.421C89.8056 106.782 89.2139 105.043 89.2139 105.043Z" fill="black"/>
<path opacity="0.1" d="M97.1528 96.6118C97.1528 96.6118 97.5389 97.2674 97.576 97.6945C97.613 98.1215 97.1528 96.6118 97.1528 96.6118Z" fill="black"/>
<path opacity="0.1" d="M97.1528 95.726C97.1528 95.726 97.3467 95.5613 97.8415 95.726C98.3363 95.8907 97.1528 95.726 97.1528 95.726Z" fill="black"/>
<path opacity="0.1" d="M95.2596 114.901C94.4467 115.016 93.6178 114.91 92.8603 114.594L92.4466 115.653L92.4009 115.163C92.4686 114.751 92.6002 114.311 92.8603 114.2C92.8603 114.2 93.7711 114.925 95.2596 114.901Z" fill="black"/>
<path opacity="0.1" d="M88.5288 116.279C88.5288 116.279 90.5468 116.698 91.1125 116.624L88.5288 116.279Z" fill="black"/>
<path opacity="0.1" d="M88.7383 116.808C88.7383 116.808 89.5995 116.771 90.0297 116.944L88.7383 116.808Z" fill="black"/>
<path opacity="0.1" d="M88.8364 117.165C89.2294 117.249 89.6282 117.301 90.0294 117.323L88.8364 117.165Z" fill="black"/>
<path opacity="0.1" d="M88.7876 121.68C88.8246 121.655 90.5101 121.261 90.7197 121.544L88.7876 121.68Z" fill="black"/>
<path opacity="0.1" d="M88.7876 122.197C88.7876 122.197 90.2516 122.024 90.2887 122.197C90.3257 122.369 88.7876 122.197 88.7876 122.197Z" fill="black"/>
<path opacity="0.1" d="M88.7876 122.664C88.7876 122.664 90.3501 122.341 90.5345 122.42C90.7189 122.498 88.7876 122.664 88.7876 122.664Z" fill="black"/>
<path opacity="0.1" d="M88.8617 133.688L87.0903 134.906C87.0903 134.906 87.1006 134.763 87.1179 134.554C87.5119 133.584 88.0248 133.073 88.0248 133.073C88.4243 132.969 88.6765 133.065 88.8333 133.253C88.8396 133.515 88.8617 133.688 88.8617 133.688Z" fill="black"/>
<path d="M89.0338 134.782C88.7835 135.353 88.6575 135.971 88.6642 136.595C88.6742 137.106 88.5445 137.61 88.2891 138.053C88.2522 138.116 88.2106 138.175 88.1646 138.231C88.1646 138.231 86.9339 138.221 86.5029 137.864C86.4544 137.826 86.4149 137.777 86.387 137.722C86.1404 137.231 86.8669 135.348 86.8669 135.348C87.2483 133.897 88.0228 133.121 88.0228 133.121C89.4025 132.764 89.0338 134.782 89.0338 134.782Z" fill="#444053"/>
<path opacity="0.1" d="M88.2887 138.049C88.2518 138.111 88.2102 138.171 88.1642 138.227C88.1642 138.227 86.9335 138.217 86.5024 137.86C86.7144 137.159 87.3905 135.037 87.7072 135.397C88.0051 135.736 88.2123 137.367 88.2887 138.049Z" fill="black"/>
<path d="M88.1206 135.529L88.0347 138.707H88.4476C88.4476 138.707 88.5145 135.919 88.6989 135.529C88.8833 135.139 88.1206 135.529 88.1206 135.529Z" fill="#444053"/>
<path opacity="0.1" d="M93.2534 135.791C93.2534 135.791 91.445 134.081 91.6294 133.945C91.6791 133.909 91.7279 133.763 91.7728 133.569C92.1203 133.509 92.7184 133.654 93.2132 135.042C93.225 135.436 93.2534 135.791 93.2534 135.791Z" fill="black"/>
<path d="M93.5235 137.698C93.5096 137.704 93.4951 137.708 93.4802 137.71C93.2674 137.747 92.4834 137.726 92.0445 137.71C91.9641 137.708 91.8879 137.674 91.8319 137.616C91.7759 137.558 91.7445 137.481 91.7443 137.401C91.7443 137.282 91.7443 137.138 91.7349 136.984C91.7144 136.499 91.6561 135.922 91.4819 135.792C91.1738 135.555 90.9304 134.753 91.4819 133.737C91.4819 133.737 92.5394 132.93 93.3021 135.357C93.3021 135.357 93.3762 136.05 93.7079 136.296C94.0396 136.542 93.6716 137.627 93.5235 137.698Z" fill="#444053"/>
<path opacity="0.1" d="M93.4787 137.71C93.266 137.747 92.482 137.726 92.0431 137.71C91.9627 137.707 91.8864 137.674 91.8304 137.616C91.7744 137.558 91.743 137.481 91.7429 137.4C91.7429 137.282 91.7429 137.138 91.7334 136.984C91.8666 136.396 92.058 135.791 92.3047 135.653C92.3062 135.653 93.0524 135.568 93.4787 137.71Z" fill="black"/>
<path d="M91.6162 135.582L91.8148 138.227H92.0669V135.356L91.6162 135.582Z" fill="#444053"/>
<path opacity="0.1" d="M92.2329 89.652C91.5181 89.7052 90.8262 89.9275 90.2142 90.3005C90.0566 90.3958 89.899 90.5116 89.8336 90.6826C89.7769 90.8308 89.8005 90.9978 89.8029 91.1554C89.8242 92.5123 88.3113 93.539 88.3586 94.895C88.3775 95.4332 88.6477 95.9343 88.6974 96.4709C88.7801 97.3661 88.2506 98.1895 87.7432 98.9309C88.266 98.9628 88.7809 98.792 89.1812 98.4542C89.7166 100.239 89.7858 102.131 89.3821 103.95H90.1078C90.1795 103.945 90.2515 103.954 90.3198 103.976C90.3835 104.006 90.4405 104.049 90.4876 104.102C91.166 104.777 91.6207 105.775 91.3615 106.697L92.9058 106.118C93.2754 105.979 93.6505 105.838 93.9719 105.61C94.2934 105.381 94.5629 105.049 94.6307 104.66C94.6724 104.424 94.659 104.142 94.8537 104.005C94.9496 103.954 95.0518 103.916 95.1578 103.892C95.5817 103.742 95.7693 103.252 95.8559 102.811C95.9615 102.269 95.9946 101.716 95.9544 101.166C95.8859 100.244 95.6133 99.3084 95.8378 98.4085C95.9647 97.9034 96.2468 97.433 96.2696 96.9114C96.3067 96.0518 95.6345 95.3111 95.5345 94.4561C95.4643 93.8605 95.6794 93.2577 95.6093 92.662C95.5704 92.3545 95.4579 92.061 95.2813 91.8063C95.1048 91.5515 94.8694 91.3431 94.5952 91.1987C94.4053 91.101 94.2012 91.0356 94.0137 90.9277C93.5858 90.6795 93.3124 90.2327 92.924 89.9254C92.5355 89.6181 91.8886 89.5023 91.5963 89.9018L92.2329 89.652Z" fill="black"/>
<path d="M92.2329 89.5535C91.5181 89.6067 90.8262 89.8289 90.2142 90.202C90.0566 90.2973 89.899 90.4131 89.8336 90.5841C89.7769 90.7322 89.8005 90.8993 89.8029 91.0569C89.8242 92.4137 88.3113 93.4404 88.3586 94.7973C88.3775 95.3347 88.6477 95.8358 88.6974 96.3732C88.7801 97.2683 88.2506 98.0917 87.7432 98.834C88.2658 98.8647 88.7804 98.6941 89.1812 98.3573C89.7165 100.141 89.7857 102.033 89.3821 103.852H90.1078C90.1795 103.847 90.2515 103.856 90.3198 103.878C90.3836 103.908 90.4407 103.951 90.4876 104.003C91.166 104.679 91.6207 105.677 91.3615 106.599L92.9058 106.019C93.2754 105.881 93.6505 105.74 93.9719 105.511C94.2934 105.283 94.5629 104.951 94.6307 104.562C94.6724 104.325 94.659 104.043 94.8537 103.906C94.9496 103.855 95.0518 103.817 95.1578 103.793C95.5817 103.644 95.7693 103.154 95.8559 102.712C95.9624 102.171 95.9963 101.617 95.9568 101.066C95.8883 100.144 95.6156 99.2083 95.8402 98.3084C95.967 97.8034 96.2491 97.3329 96.272 96.8113C96.309 95.9517 95.6369 95.211 95.5368 94.356C95.4667 93.7604 95.6818 93.1584 95.6117 92.5619C95.5726 92.2545 95.4601 91.961 95.2835 91.7063C95.107 91.4516 94.8717 91.2431 94.5976 91.0986C94.4077 91.0009 94.2036 90.9355 94.0161 90.8284C93.5882 90.5794 93.3148 90.1326 92.9263 89.8253C92.5379 89.518 91.891 89.4022 91.5986 89.8017L92.2329 89.5535Z" fill="#925978"/>
<g opacity="0.1">
<path opacity="0.1" d="M89.8001 90.729C89.797 90.7594 89.7954 90.7899 89.7954 90.8204C89.7978 90.7905 89.7993 90.7597 89.8001 90.729Z" fill="black"/>
<path opacity="0.1" d="M95.5272 93.8832C95.5556 93.4656 95.6486 93.0464 95.6139 92.6304C95.5879 93.048 95.4949 93.4672 95.5272 93.8832Z" fill="black"/>
<path opacity="0.1" d="M88.6966 95.9597C88.6509 95.4711 88.4232 95.0141 88.3696 94.5264C88.3589 94.6158 88.355 94.7059 88.3578 94.7958C88.3767 95.3277 88.6407 95.8249 88.6943 96.3544C88.7073 96.2232 88.7081 96.091 88.6966 95.9597Z" fill="black"/>
<path opacity="0.1" d="M95.8429 97.9001C95.7691 98.2207 95.7425 98.5504 95.7641 98.8787C95.7719 98.6872 95.7983 98.497 95.8429 98.3106C95.9697 97.8055 96.2518 97.3351 96.2747 96.8135C96.2784 96.7208 96.2742 96.6281 96.2621 96.5361C96.2006 97.005 95.9555 97.4415 95.8429 97.9001Z" fill="black"/>
<path opacity="0.1" d="M89.1802 97.9429C88.8516 98.2183 88.4448 98.3836 88.0172 98.4156C87.9274 98.5559 87.8344 98.693 87.7422 98.8285C88.2648 98.8592 88.7794 98.6886 89.1802 98.3518C89.4681 99.3097 89.6224 100.303 89.6388 101.303C89.6622 100.166 89.5074 99.032 89.1802 97.9429Z" fill="black"/>
<path opacity="0.1" d="M95.8573 102.299C95.7706 102.74 95.5831 103.23 95.1592 103.379C95.053 103.403 94.9507 103.441 94.855 103.493C94.6604 103.63 94.6738 103.914 94.632 104.148C94.5643 104.538 94.2956 104.869 93.9733 105.094C93.651 105.319 93.2767 105.464 92.9072 105.603L91.4337 106.155C91.4261 106.303 91.4023 106.449 91.3628 106.592L92.9072 106.013C93.2767 105.874 93.6518 105.733 93.9733 105.505C94.2948 105.276 94.5643 104.944 94.632 104.555C94.6738 104.319 94.6604 104.037 94.855 103.899C94.9509 103.848 95.0532 103.811 95.1592 103.787C95.5831 103.637 95.7706 103.147 95.8573 102.706C95.947 102.247 95.9843 101.779 95.9684 101.311C95.958 101.643 95.9208 101.973 95.8573 102.299Z" fill="black"/>
<path opacity="0.1" d="M90.4886 103.588C90.4417 103.535 90.3846 103.493 90.3207 103.463C90.2524 103.44 90.1805 103.431 90.1088 103.436H89.465C89.4398 103.573 89.413 103.71 89.3862 103.846H90.1119C90.1837 103.841 90.2557 103.85 90.3239 103.873C90.3877 103.903 90.4448 103.945 90.4917 103.998C90.9881 104.492 91.364 105.159 91.4286 105.843C91.5082 105.025 91.0843 104.184 90.4886 103.588Z" fill="black"/>
</g>
<path opacity="0.1" d="M86.8887 106.273C86.8887 106.273 87.4749 106.027 87.6057 106.273C87.7365 106.519 86.8887 106.273 86.8887 106.273Z" fill="black"/>
<path opacity="0.1" d="M87.0962 106.695C87.0962 106.695 87.6824 106.449 87.814 106.695C87.9456 106.941 87.0962 106.695 87.0962 106.695Z" fill="black"/>
<path opacity="0.1" d="M91.42 140.145C97.9021 140.145 103.157 139.466 103.157 138.628C103.157 137.79 97.9021 137.111 91.42 137.111C84.9379 137.111 79.6831 137.79 79.6831 138.628C79.6831 139.466 84.9379 140.145 91.42 140.145Z" fill="#6C63FF"/>
<defs>
<linearGradient id="paint0_linear" x1="32711.4" y1="53102.8" x2="32711.4" y2="29107.8" gradientUnits="userSpaceOnUse">
<stop stop-color="#808080" stop-opacity="0.25"/>
<stop offset="0.54" stop-color="#808080" stop-opacity="0.12"/>
<stop offset="1" stop-color="#808080" stop-opacity="0.1"/>
</linearGradient>
<linearGradient id="paint1_linear" x1="-27356.8" y1="52577" x2="-26423.1" y2="29233.3" gradientUnits="userSpaceOnUse">
<stop stop-color="#808080" stop-opacity="0.25"/>
<stop offset="0.54" stop-color="#808080" stop-opacity="0.12"/>
<stop offset="1" stop-color="#808080" stop-opacity="0.1"/>
</linearGradient>
</defs>
</svg>
