<svg width="353" height="516" viewBox="0 0 353 516" fill="none" xmlns="http://www.w3.org/2000/svg">
<mask id="mask0" mask-type="alpha" maskUnits="userSpaceOnUse" x="0" y="0" width="353" height="516">
<path d="M353 37.4641C353 41.5838 351.838 45.1886 349.513 48.2784L167.394 503.255C166.102 506.344 163.519 509.305 159.644 512.138C155.769 514.713 152.024 516 148.407 516H38.7486C34.6154 516 31.7739 513.554 30.2239 508.662C28.9323 503.769 28.9323 499.521 30.2239 495.916L187.543 123.979H14.7245C11.1079 123.979 7.74973 122.563 4.64984 119.731C1.54995 116.641 0 113.293 0 109.689V14.6766C0 10.5569 1.42078 7.08084 4.26235 4.2485C7.10392 1.41617 10.5913 0 14.7245 0H339.438C348.479 0 353 4.37725 353 13.1317V37.4641Z" fill="#2D9CDB"/>
</mask>
<g mask="url(#mask0)">
<rect x="-38.2793" y="-18" width="411.535" height="602" fill="#D2DBE4"/>
</g>
<path fill-rule="evenodd" clip-rule="evenodd" d="M253.852 248.817C244.428 248.817 236.394 245.442 229.75 238.692C223.137 231.908 219.831 223.716 219.831 214.115C219.831 204.481 223.137 196.288 229.75 189.538C236.394 182.755 244.428 179.363 253.852 179.363C263.212 179.363 271.182 182.755 277.762 189.538C284.375 196.288 287.681 204.481 287.681 214.115C287.681 223.716 284.375 231.908 277.762 238.692C271.182 245.442 263.212 248.817 253.852 248.817ZM253.756 232.695C258.484 232.695 262.573 230.827 266.023 227.091C269.505 223.323 271.246 218.965 271.246 214.017C271.246 209.068 269.505 204.743 266.023 201.04C262.573 197.337 258.484 195.486 253.756 195.486C249.092 195.486 245.019 197.337 241.537 201.04C238.055 204.743 236.314 209.068 236.314 214.017C236.314 218.965 238.055 223.323 241.537 227.091C245.019 230.827 249.092 232.695 253.756 232.695ZM160.222 246.261C160.51 246.818 160.526 247.293 160.27 247.687C160.047 248.047 159.631 248.227 159.024 248.227H145.416C144.649 248.227 144.058 247.85 143.643 247.097L140.481 240.117H114.366L111.203 247.097C110.884 247.85 110.309 248.227 109.478 248.227H95.8221C95.279 248.227 94.8797 248.047 94.6241 247.687C94.3686 247.293 94.3846 246.818 94.6721 246.261L125.77 180.494C126.09 179.937 126.537 179.658 127.112 179.658H127.783C128.326 179.658 128.757 179.937 129.076 180.494L160.222 246.261ZM134.012 225.813L127.447 211.215L120.883 225.813H134.012ZM85.6158 180.002C86.1269 180.002 86.5422 180.166 86.8616 180.494C87.1811 180.822 87.3408 181.247 87.3408 181.772V246.507C87.3408 246.966 87.1811 247.375 86.8616 247.736C86.5741 248.063 86.1908 248.227 85.7116 248.227H4.34878C3.90156 248.227 3.51822 248.063 3.19878 247.736C2.87933 247.375 2.71961 246.966 2.71961 246.507L2.62378 181.772C2.62378 181.313 2.7835 180.903 3.10294 180.543C3.45433 180.183 3.83767 180.002 4.25295 180.002H17.0947C17.6058 180.002 18.0211 180.166 18.3405 180.494C18.66 180.822 18.8197 181.247 18.8197 181.772L18.7238 231.663H36.9802L36.8843 181.772C36.8843 181.313 37.0441 180.903 37.3635 180.543C37.7149 180.183 38.1142 180.002 38.5614 180.002H51.3552C51.8663 180.002 52.2816 180.166 52.6011 180.494C52.9205 180.822 53.0802 181.247 53.0802 181.772L53.0323 231.663H71.2407V181.772C71.2407 181.313 71.4004 180.903 71.7199 180.543C72.0393 180.183 72.4227 180.002 72.8699 180.002H85.6158ZM214.368 180.592C214.017 180.199 213.57 180.002 213.027 180.002H171.291C170.78 180.002 170.365 180.166 170.045 180.494C169.758 180.822 169.614 181.215 169.614 181.673V246.458C169.614 246.949 169.774 247.375 170.093 247.736C170.445 248.063 170.876 248.227 171.387 248.227H184.085C184.532 248.227 184.915 248.047 185.235 247.687C185.586 247.326 185.762 246.917 185.762 246.458V194.994H207.468C208.906 195.06 210.679 195.322 212.787 195.781C213.33 195.879 213.825 195.83 214.273 195.633C214.72 195.436 214.943 195.109 214.943 194.65V182.116C214.943 181.493 214.752 180.985 214.368 180.592ZM344.942 219.079C343.121 216.032 340.581 213.459 337.323 211.362C341.827 208.511 344.079 203.973 344.079 197.747C344.079 193.29 342.322 189.227 338.808 185.557C335.327 181.854 330.838 180.002 325.344 180.002H300.571C300.06 180.002 299.644 180.166 299.325 180.494C299.037 180.822 298.894 181.215 298.894 181.673V246.458C298.894 246.949 299.053 247.375 299.373 247.736C299.724 248.063 300.156 248.227 300.667 248.227H327.596C333.026 248.227 337.738 246.36 341.731 242.624C345.724 238.855 347.721 234.235 347.721 228.763C347.721 225.355 346.795 222.127 344.942 219.079ZM327.26 203.989C326.206 206.021 324.401 207.037 321.846 207.037H315.042V194.994H321.846C324.465 194.994 326.286 195.994 327.308 197.992C328.331 199.959 328.315 201.958 327.26 203.989ZM328.794 231.368C327.644 232.613 326.079 233.236 324.098 233.236H315.042V221.193H324.098C326.142 221.193 327.724 221.816 328.842 223.061C329.992 224.306 330.567 225.682 330.567 227.19C330.567 228.697 329.976 230.09 328.794 231.368ZM67.273 306.478C62.2438 306.478 57.9562 304.695 54.4103 301.128C50.8813 297.545 49.1169 293.217 49.1169 288.144C49.1169 283.055 50.8813 278.727 54.4103 275.161C57.9562 271.577 62.2438 269.785 67.273 269.785C72.268 269.785 76.5215 271.577 80.0334 275.161C83.5623 278.727 85.3268 283.055 85.3268 288.144C85.3268 293.217 83.5623 297.545 80.0334 301.128C76.5215 304.695 72.268 306.478 67.273 306.478ZM67.2218 297.96C69.7449 297.96 71.9271 296.974 73.7683 295C75.6265 293.009 76.5556 290.707 76.5556 288.093C76.5556 285.478 75.6265 283.193 73.7683 281.237C71.9271 279.281 69.7449 278.303 67.2218 278.303C64.7328 278.303 62.5592 279.281 60.701 281.237C58.8427 283.193 57.9136 285.478 57.9136 288.093C57.9136 290.707 58.8427 293.009 60.701 295C62.5592 296.974 64.7328 297.96 67.2218 297.96ZM30.9096 303.959C31.3187 304.444 31.4296 304.937 31.242 305.439C31.0545 305.924 30.6454 306.166 30.0146 306.166H23.1869C22.7777 306.166 22.4197 306.019 22.1128 305.725L11.7306 293.65V305.231C11.7306 305.474 11.6454 305.69 11.4749 305.881C11.3044 306.071 11.0998 306.166 10.8612 306.166H3.98229C3.70952 306.166 3.47937 306.08 3.29184 305.906C3.12136 305.716 3.03612 305.491 3.03612 305.231V274.174C3.00203 273.395 2.87417 272.434 2.65254 271.291C2.6014 270.997 2.61845 270.729 2.70369 270.486C2.80598 270.244 2.97646 270.123 3.21513 270.123H10.631C10.9208 270.123 11.1765 270.218 11.3982 270.408C11.6198 270.599 11.7306 270.841 11.7306 271.135V281.341L21.1155 270.616C21.4053 270.287 21.7719 270.123 22.2151 270.123H29.1707C29.7333 270.123 30.1254 270.356 30.347 270.824C30.5686 271.274 30.4919 271.715 30.1169 272.148L16.6149 287.469L30.9096 303.959ZM115.118 270.382C114.948 270.209 114.743 270.123 114.504 270.123H88.8557C88.583 270.123 88.3528 270.209 88.1653 270.382C87.9948 270.556 87.9096 270.781 87.9096 271.058V277.134C87.9096 277.376 88.0033 277.593 88.1909 277.783C88.3954 277.956 88.6171 278.043 88.8557 278.043H97.3201V303.725C97.3201 304.452 97.5246 305.041 97.9338 305.491C98.36 305.941 98.9311 306.166 99.6471 306.166H105.094C105.657 306.166 105.938 305.855 105.938 305.231V278.043H114.504C114.743 278.043 114.948 277.948 115.118 277.757C115.306 277.567 115.399 277.35 115.399 277.108V271.006C115.399 270.746 115.306 270.538 115.118 270.382ZM148.387 303.959C148.796 304.444 148.907 304.937 148.72 305.439C148.532 305.924 148.123 306.166 147.492 306.166H140.665C140.255 306.166 139.897 306.019 139.591 305.725L129.208 293.65V305.231C129.208 305.474 129.123 305.69 128.953 305.881C128.782 306.071 128.578 306.166 128.339 306.166H121.46C121.187 306.166 120.957 306.08 120.77 305.906C120.599 305.716 120.514 305.491 120.514 305.231V274.174C120.48 273.395 120.352 272.434 120.13 271.291C120.079 270.997 120.096 270.729 120.181 270.486C120.284 270.244 120.454 270.123 120.693 270.123H128.109C128.399 270.123 128.654 270.218 128.876 270.408C129.098 270.599 129.208 270.841 129.208 271.135V281.341L138.593 270.616C138.883 270.287 139.25 270.123 139.693 270.123H146.648C147.211 270.123 147.603 270.356 147.825 270.824C148.046 271.274 147.97 271.715 147.595 272.148L134.093 287.469L148.387 303.959ZM175.519 274.018C173.03 271.421 170.098 270.123 166.722 270.123H154.115C153.86 270.123 153.647 270.209 153.476 270.382C153.306 270.556 153.22 270.763 153.22 271.006V305.231C153.22 305.491 153.306 305.716 153.476 305.906C153.664 306.08 153.894 306.166 154.167 306.166H160.943C161.182 306.166 161.386 306.071 161.557 305.881C161.744 305.69 161.838 305.474 161.838 305.231V295H166.722C170.132 295 173.073 293.71 175.545 291.131C178.017 288.534 179.253 285.626 179.253 282.406C179.253 279.411 178.008 276.615 175.519 274.018ZM169.51 285.288C168.777 286.084 167.822 286.483 166.646 286.483H161.838V278.64H166.646C167.788 278.64 168.734 279.012 169.484 279.757C170.251 280.501 170.635 281.384 170.635 282.406C170.635 283.531 170.26 284.492 169.51 285.288ZM198.432 283.808C201.603 283.808 204.245 284.933 206.359 287.184C208.473 289.417 209.53 292.04 209.53 295.052C209.53 298.047 208.482 300.652 206.385 302.868C204.288 305.067 201.696 306.166 198.611 306.166H184.827C184.555 306.166 184.324 306.08 184.137 305.906C183.966 305.716 183.881 305.491 183.881 305.231V271.006C183.881 270.763 183.958 270.556 184.111 270.382C184.282 270.209 184.504 270.123 184.776 270.123H191.553C191.792 270.123 192.005 270.209 192.192 270.382C192.397 270.556 192.499 270.763 192.499 271.006V283.808H198.432ZM221.779 270.123C222.018 270.123 222.231 270.209 222.418 270.382C222.623 270.556 222.725 270.763 222.725 271.006V305.231C222.725 305.474 222.631 305.69 222.444 305.881C222.273 306.071 222.069 306.166 221.83 306.166H215.054C214.781 306.166 214.551 306.08 214.363 305.906C214.193 305.716 214.107 305.491 214.107 305.231V271.006C214.107 270.763 214.184 270.556 214.337 270.382C214.508 270.209 214.73 270.123 215.002 270.123H221.779ZM197.102 298.142C198.142 298.142 198.952 297.813 199.531 297.155C200.111 296.497 200.409 295.762 200.426 294.948C200.443 294.134 200.154 293.399 199.557 292.741C198.96 292.083 198.142 291.754 197.102 291.754H192.499V298.142H197.102ZM254.997 270.382C254.826 270.209 254.622 270.123 254.383 270.123H228.735C228.462 270.123 228.232 270.209 228.044 270.382C227.874 270.556 227.788 270.781 227.788 271.058V277.134C227.788 277.376 227.882 277.593 228.07 277.783C228.274 277.956 228.496 278.043 228.735 278.043H237.199V303.725C237.199 304.452 237.403 305.041 237.813 305.491C238.239 305.941 238.81 306.166 239.526 306.166H244.973C245.535 306.166 245.817 305.855 245.817 305.231V278.043H254.383C254.622 278.043 254.826 277.948 254.997 277.757C255.184 277.567 255.278 277.35 255.278 277.108V271.006C255.278 270.746 255.184 270.538 254.997 270.382ZM261.339 270.123L268.115 270.149C268.354 270.149 268.559 270.244 268.729 270.434C268.917 270.607 269.01 270.815 269.01 271.058V289.547L285.121 270.824C285.564 270.339 285.99 270.105 286.399 270.123H290.568C290.806 270.123 291.011 270.209 291.181 270.382C291.369 270.556 291.463 270.763 291.463 271.006V305.231C291.463 305.508 291.369 305.733 291.181 305.906C291.011 306.08 290.798 306.166 290.542 306.166H283.791C283.552 306.166 283.339 306.071 283.152 305.881C282.981 305.673 282.896 305.456 282.896 305.231V286.82L268.397 303.414C266.794 305.249 265.209 306.166 263.64 306.166H261.288C261.049 306.166 260.836 306.08 260.648 305.906C260.478 305.716 260.393 305.5 260.393 305.257V271.058C260.393 270.781 260.486 270.556 260.674 270.382C260.879 270.209 261.1 270.123 261.339 270.123ZM342.428 275.161C338.899 271.577 334.637 269.785 329.642 269.785C325.328 269.785 321.518 271.144 318.211 273.862C314.921 276.563 312.832 279.999 311.946 284.171H306.704V271.006C306.704 270.763 306.61 270.556 306.422 270.382C306.235 270.209 306.022 270.123 305.783 270.123H299.032C298.759 270.123 298.538 270.209 298.367 270.382C298.214 270.556 298.137 270.763 298.137 271.006V305.231C298.137 305.491 298.222 305.716 298.393 305.906C298.58 306.08 298.81 306.166 299.083 306.166H305.809C306.047 306.166 306.252 306.071 306.422 305.881C306.61 305.69 306.704 305.474 306.704 305.231V292.092H311.895C312.815 296.281 314.921 299.726 318.211 302.427C321.518 305.127 325.328 306.478 329.642 306.478C334.654 306.478 338.916 304.695 342.428 301.128C345.957 297.545 347.721 293.217 347.721 288.144C347.721 283.055 345.957 278.727 342.428 275.161ZM336.162 295C334.321 296.974 332.139 297.96 329.616 297.96C327.127 297.96 324.945 296.974 323.07 295C321.211 293.009 320.282 290.707 320.282 288.093C320.282 285.478 321.211 283.193 323.07 281.237C324.945 279.281 327.127 278.303 329.616 278.303C332.122 278.303 334.296 279.281 336.137 281.237C337.995 283.193 338.924 285.478 338.924 288.093C338.924 290.707 338.004 293.009 336.162 295ZM218.415 447.299C219.041 447.819 219.074 448.349 218.515 448.89C216.346 451.097 213.796 452.818 210.867 454.051C207.937 455.263 204.862 455.869 201.641 455.869C194.999 455.869 189.352 453.651 184.7 449.215C180.071 444.757 177.756 439.336 177.756 432.952C177.756 426.612 180.071 421.202 184.7 416.722C189.352 412.243 194.999 410.003 201.641 410.003C204.862 410.003 207.948 410.631 210.9 411.886C213.875 413.119 216.435 414.84 218.582 417.047C219.119 417.566 219.097 418.096 218.515 418.637L211.37 424.448C210.788 424.902 210.24 424.902 209.726 424.448C208.362 423.171 207.042 422.219 205.768 421.591C204.515 420.964 203.017 420.65 201.272 420.65C198.164 420.65 195.39 421.894 192.953 424.383C190.515 426.871 189.296 429.706 189.296 432.887C189.296 436.155 190.515 439.033 192.953 441.522C195.39 443.989 198.186 445.222 201.339 445.222C203.084 445.222 204.56 444.93 205.768 444.346C206.998 443.761 208.295 442.852 209.659 441.619C210.173 441.121 210.721 441.121 211.303 441.619L218.415 447.299ZM46.0853 455.122C46.2642 454.863 46.253 454.549 46.0517 454.181L24.2464 410.75C24.0227 410.382 23.7208 410.198 23.3406 410.198H22.871C22.4684 410.198 22.1553 410.382 21.9316 410.75L0.15984 454.181C-0.04144 454.549 -0.0526223 454.863 0.126293 455.122C0.305209 455.36 0.584765 455.479 0.964961 455.479H10.5258C11.1072 455.479 11.5098 455.23 11.7334 454.733L13.9475 450.123H32.2305L34.4446 454.733C34.7353 455.23 35.149 455.479 35.6858 455.479H45.213C45.638 455.479 45.9287 455.36 46.0853 455.122ZM23.1058 431.037L27.7017 440.678H18.5099L23.1058 431.037ZM83.9595 410.815C83.7135 410.555 83.4004 410.425 83.0202 410.425H53.801C53.4432 410.425 53.1524 410.533 52.9288 410.75C52.7275 410.966 52.6269 411.226 52.6269 411.529V454.311C52.6269 454.635 52.7387 454.917 52.9623 455.155C53.2083 455.371 53.5103 455.479 53.8681 455.479H62.758C63.0711 455.479 63.3394 455.36 63.5631 455.122C63.8091 454.884 63.9321 454.614 63.9321 454.311V420.325H79.1287C80.1351 420.369 81.3764 420.542 82.8524 420.845C83.2326 420.91 83.5793 420.877 83.8924 420.747C84.2055 420.617 84.362 420.401 84.362 420.098V411.821C84.362 411.41 84.2278 411.074 83.9595 410.815ZM121.498 420.325H102.913V428.538H112.81C113.123 428.538 113.402 428.657 113.648 428.895C113.894 429.111 114.017 429.371 114.017 429.674V437.269C114.017 437.616 113.905 437.908 113.682 438.146C113.458 438.362 113.167 438.47 112.81 438.47H102.913V445.579H121.498C121.811 445.579 122.091 445.687 122.337 445.904C122.583 446.12 122.706 446.38 122.706 446.683V454.311C122.706 454.657 122.583 454.938 122.337 455.155C122.113 455.371 121.834 455.479 121.498 455.479H92.8493C92.4915 455.479 92.1896 455.371 91.9436 455.155C91.7199 454.917 91.6081 454.635 91.6081 454.311V411.529C91.6081 411.226 91.7088 410.966 91.91 410.75C92.1337 410.533 92.4244 410.425 92.7822 410.425H121.498C121.811 410.425 122.091 410.533 122.337 410.75C122.583 410.966 122.706 411.226 122.706 411.529V419.157C122.706 419.503 122.594 419.784 122.37 420.001C122.147 420.217 121.856 420.325 121.498 420.325ZM170.376 410.75C170.152 410.533 169.884 410.425 169.571 410.425H160.513C160.155 410.425 159.864 410.533 159.641 410.75C159.44 410.966 159.339 411.226 159.339 411.529V427.986H142.23V411.529C142.23 411.226 142.096 410.966 141.828 410.75C141.582 410.533 141.302 410.425 140.989 410.425H132.032C131.674 410.425 131.383 410.533 131.16 410.75C130.958 410.966 130.858 411.226 130.858 411.529V454.311C130.858 454.635 130.97 454.917 131.193 455.155C131.439 455.371 131.741 455.479 132.099 455.479H141.056C141.369 455.479 141.637 455.36 141.861 455.122C142.107 454.884 142.23 454.614 142.23 454.311V439.022H159.339V452.428C159.339 453.337 159.607 454.073 160.144 454.635C160.681 455.198 161.419 455.479 162.358 455.479H169.638C170.376 455.479 170.745 455.09 170.745 454.311V411.529C170.745 411.226 170.622 410.966 170.376 410.75ZM259.643 410.75C259.42 410.533 259.151 410.425 258.838 410.425H225.191C224.833 410.425 224.531 410.533 224.285 410.75C224.062 410.966 223.95 411.247 223.95 411.594V419.189C223.95 419.492 224.073 419.763 224.319 420.001C224.587 420.217 224.878 420.325 225.191 420.325H236.295V452.428C236.295 453.337 236.563 454.073 237.1 454.635C237.659 455.198 238.408 455.479 239.348 455.479H246.493C247.231 455.479 247.6 455.09 247.6 454.311V420.325H258.838C259.151 420.325 259.42 420.206 259.643 419.968C259.889 419.73 260.012 419.46 260.012 419.157V411.529C260.012 411.204 259.889 410.944 259.643 410.75ZM293.626 431.134C295.907 432.519 297.685 434.218 298.96 436.231C300.257 438.243 300.906 440.375 300.906 442.625C300.906 446.239 299.508 449.29 296.713 451.779C293.917 454.246 290.618 455.479 286.816 455.479H267.963C267.605 455.479 267.303 455.371 267.057 455.155C266.834 454.917 266.722 454.635 266.722 454.311V411.529C266.722 411.226 266.822 410.966 267.024 410.75C267.247 410.533 267.538 410.425 267.896 410.425H285.24C289.086 410.425 292.228 411.648 294.666 414.093C297.126 416.517 298.356 419.2 298.356 422.143C298.356 426.255 296.78 429.252 293.626 431.134ZM282.791 428.278C284.58 428.278 285.843 427.607 286.581 426.265C287.319 424.924 287.331 423.604 286.615 422.305C285.899 420.985 284.625 420.325 282.791 420.325H278.027V428.278H282.791ZM284.367 445.579C285.754 445.579 286.85 445.168 287.655 444.346C288.482 443.502 288.896 442.582 288.896 441.587C288.896 440.591 288.494 439.682 287.689 438.86C286.906 438.038 285.799 437.626 284.367 437.626H278.027V445.579H284.367ZM350.22 455.122C350.398 454.863 350.387 454.549 350.186 454.181L328.381 410.75C328.157 410.382 327.855 410.198 327.475 410.198H327.005C326.603 410.198 326.29 410.382 326.066 410.75L304.294 454.181C304.093 454.549 304.082 454.863 304.261 455.122C304.439 455.36 304.719 455.479 305.099 455.479H314.66C315.242 455.479 315.644 455.23 315.868 454.733L318.082 450.123H336.365L338.579 454.733C338.87 455.23 339.283 455.479 339.82 455.479H349.347C349.772 455.479 350.063 455.36 350.22 455.122ZM327.24 431.037L331.836 440.678H322.644L327.24 431.037ZM53.7765 377.528C54.6047 378.225 54.6491 378.937 53.9096 379.664C51.0403 382.628 47.6682 384.938 43.7932 386.594C39.9182 388.222 35.851 389.035 31.5915 389.035C22.8062 389.035 15.3372 386.057 9.1846 380.099C3.06153 374.113 0 366.834 0 358.261C0 349.747 3.06153 342.482 9.1846 336.467C15.3372 330.452 22.8062 327.444 31.5915 327.444C35.851 327.444 39.933 328.287 43.8376 329.972C47.7717 331.629 51.1587 333.939 53.9983 336.903C54.7083 337.6 54.6787 338.312 53.9096 339.039L44.4588 346.841C43.6897 347.451 42.965 347.451 42.2846 346.841C40.4803 345.127 38.735 343.848 37.049 343.005C35.3925 342.163 33.4106 341.741 31.1034 341.741C26.9918 341.741 23.3238 343.412 20.0996 346.754C16.8754 350.096 15.2633 353.902 15.2633 358.174C15.2633 362.562 16.8754 366.427 20.0996 369.769C23.3238 373.082 27.0214 374.738 31.1921 374.738C33.4994 374.738 35.4517 374.346 37.049 373.561C38.6759 372.777 40.3915 371.556 42.1959 369.9C42.8762 369.231 43.601 369.231 44.37 369.9L53.7765 377.528ZM99.3889 355.82C102.406 357.68 104.758 359.961 106.444 362.664C108.159 365.366 109.017 368.229 109.017 371.251C109.017 376.104 107.168 380.201 103.471 383.543C99.7734 386.856 95.4104 388.512 90.3818 388.512H65.4458C64.9725 388.512 64.5732 388.367 64.2478 388.076C63.952 387.757 63.8041 387.379 63.8041 386.943V329.493C63.8041 329.086 63.9372 328.737 64.2034 328.447C64.4992 328.156 64.8838 328.011 65.3571 328.011H88.2964C93.3841 328.011 97.5401 329.652 100.764 332.936C104.018 336.191 105.645 339.794 105.645 343.746C105.645 349.268 103.56 353.292 99.3889 355.82ZM85.0574 351.985C87.4238 351.985 89.095 351.084 90.0712 349.282C91.0473 347.48 91.0621 345.708 90.1155 343.964C89.169 342.192 87.4829 341.305 85.0574 341.305H78.7568V351.985H85.0574ZM87.1428 375.217C88.9767 375.217 90.4261 374.665 91.491 373.561C92.5855 372.428 93.1327 371.193 93.1327 369.856C93.1327 368.519 92.6003 367.299 91.5354 366.195C90.5001 365.09 89.0359 364.538 87.1428 364.538H78.7568V375.217H87.1428ZM125.079 380.056C131.232 386.042 138.671 389.035 147.397 389.035C156.064 389.035 163.444 386.042 169.538 380.056C175.661 374.041 178.723 366.776 178.723 358.261C178.723 349.718 175.661 342.453 169.538 336.467C163.444 330.452 156.064 327.444 147.397 327.444C138.671 327.444 131.232 330.452 125.079 336.467C118.956 342.453 115.895 349.718 115.895 358.261C115.895 366.776 118.956 374.041 125.079 380.056ZM158.667 369.769C155.473 373.082 151.686 374.738 147.309 374.738C142.99 374.738 139.218 373.082 135.994 369.769C132.77 366.427 131.158 362.562 131.158 358.174C131.158 353.786 132.77 349.95 135.994 346.667C139.218 343.383 142.99 341.741 147.309 341.741C151.686 341.741 155.473 343.383 158.667 346.667C161.891 349.95 163.504 353.786 163.504 358.174C163.504 362.562 161.891 366.427 158.667 369.769ZM228.639 341.305H204.058V352.333H217.147C217.561 352.333 217.931 352.493 218.256 352.813C218.582 353.103 218.744 353.452 218.744 353.859V364.059C218.744 364.524 218.596 364.916 218.301 365.236C218.005 365.526 217.62 365.671 217.147 365.671H204.058V375.217H228.639C229.053 375.217 229.423 375.363 229.748 375.653C230.073 375.944 230.236 376.293 230.236 376.7V386.943C230.236 387.408 230.073 387.786 229.748 388.076C229.452 388.367 229.083 388.512 228.639 388.512H190.747C190.274 388.512 189.874 388.367 189.549 388.076C189.253 387.757 189.105 387.379 189.105 386.943V329.493C189.105 329.086 189.238 328.737 189.504 328.447C189.8 328.156 190.185 328.011 190.658 328.011H228.639C229.053 328.011 229.423 328.156 229.748 328.447C230.073 328.737 230.236 329.086 230.236 329.493V339.736C230.236 340.201 230.088 340.579 229.792 340.869C229.497 341.16 229.112 341.305 228.639 341.305ZM282.46 328.534C282.134 328.185 281.72 328.011 281.217 328.011H242.571C242.098 328.011 241.713 328.156 241.417 328.447C241.151 328.737 241.018 329.086 241.018 329.493V386.943C241.018 387.379 241.166 387.757 241.462 388.076C241.787 388.367 242.186 388.512 242.66 388.512H254.418C254.832 388.512 255.187 388.352 255.483 388.033C255.808 387.713 255.971 387.35 255.971 386.943V341.305H276.07C277.401 341.363 279.043 341.596 280.995 342.003C281.498 342.09 281.957 342.046 282.371 341.872C282.785 341.698 282.992 341.407 282.992 341V329.885C282.992 329.333 282.815 328.882 282.46 328.534ZM319.021 389.035C310.294 389.035 302.855 386.042 296.702 380.056C290.579 374.041 287.518 366.776 287.518 358.261C287.518 349.718 290.579 342.453 296.702 336.467C302.855 330.452 310.294 327.444 319.021 327.444C327.688 327.444 335.068 330.452 341.161 336.467C347.284 342.453 350.346 349.718 350.346 358.261C350.346 366.776 347.284 374.041 341.161 380.056C335.068 386.042 327.688 389.035 319.021 389.035ZM318.932 374.738C323.31 374.738 327.096 373.082 330.291 369.769C333.515 366.427 335.127 362.562 335.127 358.174C335.127 353.786 333.515 349.95 330.291 346.667C327.096 343.383 323.31 341.741 318.932 341.741C314.613 341.741 310.842 343.383 307.617 346.667C304.393 349.95 302.781 353.786 302.781 358.174C302.781 362.562 304.393 366.427 307.617 369.769C310.842 373.082 314.613 374.738 318.932 374.738Z" fill="#92B3CC"/>
</svg>
