<svg width="48" height="48" viewBox="0 0 48 48" fill="none" xmlns="http://www.w3.org/2000/svg">
<g id="vk-link">
<g id="Vkontakte (VK)">
<rect id="Rectangle" width="48" height="48" rx="24" fill="#0077FF"/>
<path id="Vector" fill-rule="evenodd" clip-rule="evenodd" d="M36.4035 18.0157C36.5843 17.4303 36.4035 17 35.5432 17H32.6988C31.9755 17 31.6423 17.3716 31.4615 17.7816C31.4615 17.7816 30.0149 21.2065 27.9657 23.4313C27.3028 24.0753 27.0015 24.2799 26.6398 24.2799C26.459 24.2799 26.1973 24.0753 26.1973 23.4899V18.0157C26.1973 17.313 25.9874 17 25.3846 17H20.9148C20.463 17 20.1911 17.3261 20.1911 17.6351C20.1911 18.3013 21.2155 18.4548 21.3212 20.3282V24.3974C21.3212 25.2895 21.1554 25.4513 20.7937 25.4513C19.8295 25.4513 17.484 22.0108 16.0927 18.0743C15.8201 17.3091 15.5466 17 14.8196 17H11.9752C11.1625 17 11 17.3716 11 17.7816C11 18.5134 11.9645 22.1434 15.4901 26.9442C17.8408 30.2225 21.1521 32 24.1656 32C25.9738 32 26.1973 31.6053 26.1973 30.9253V28.4474C26.1973 27.6579 26.3686 27.5004 26.9409 27.5004C27.3631 27.5004 28.0862 27.7053 29.7739 29.286C31.7025 31.1592 32.0202 32 33.1052 32H35.9496C36.7623 32 37.1686 31.6053 36.9341 30.8262C36.6777 30.0498 35.757 28.9236 34.5351 27.5882C33.8721 26.827 32.8776 26.0073 32.5765 25.5976C32.1545 25.0706 32.275 24.8365 32.5765 24.3684C32.5765 24.3684 36.0418 19.626 36.4035 18.0159V18.0157Z" fill="white"/>
</g>
</g>
</svg>
